G04 #@! TF.GenerationSoftware,KiCad,Pcbnew,5.1.6-c6e7f7d~87~ubuntu20.04.1*
G04 #@! TF.CreationDate,2020-08-06T14:23:34-04:00*
G04 #@! TF.ProjectId,Buoy_WithoutGSM,42756f79-5f57-4697-9468-6f757447534d,Leonardo Ward*
G04 #@! TF.SameCoordinates,Original*
G04 #@! TF.FileFunction,Copper,L1,Top*
G04 #@! TF.FilePolarity,Positive*
%FSLAX46Y46*%
G04 Gerber Fmt 4.6, Leading zero omitted, Abs format (unit mm)*
G04 Created by KiCad (PCBNEW 5.1.6-c6e7f7d~87~ubuntu20.04.1) date 2020-08-06 14:23:34*
%MOMM*%
%LPD*%
G01*
G04 APERTURE LIST*
G04 #@! TA.AperFunction,ComponentPad*
%ADD10C,2.540000*%
G04 #@! TD*
G04 #@! TA.AperFunction,ComponentPad*
%ADD11C,1.524000*%
G04 #@! TD*
G04 #@! TA.AperFunction,ComponentPad*
%ADD12R,1.560000X1.560000*%
G04 #@! TD*
G04 #@! TA.AperFunction,ComponentPad*
%ADD13C,1.560000*%
G04 #@! TD*
G04 #@! TA.AperFunction,ComponentPad*
%ADD14O,1.700000X1.950000*%
G04 #@! TD*
G04 #@! TA.AperFunction,ComponentPad*
%ADD15R,3.000000X3.000000*%
G04 #@! TD*
G04 #@! TA.AperFunction,ComponentPad*
%ADD16C,3.000000*%
G04 #@! TD*
G04 #@! TA.AperFunction,ComponentPad*
%ADD17R,1.700000X1.700000*%
G04 #@! TD*
G04 #@! TA.AperFunction,ComponentPad*
%ADD18O,1.700000X1.700000*%
G04 #@! TD*
G04 #@! TA.AperFunction,ViaPad*
%ADD19C,0.800000*%
G04 #@! TD*
G04 #@! TA.AperFunction,Conductor*
%ADD20C,0.800000*%
G04 #@! TD*
G04 #@! TA.AperFunction,Conductor*
%ADD21C,1.000000*%
G04 #@! TD*
G04 #@! TA.AperFunction,Conductor*
%ADD22C,0.254000*%
G04 #@! TD*
G04 APERTURE END LIST*
D10*
X144272000Y-65278000D03*
X144272000Y-85598000D03*
D11*
X173736000Y-85598000D03*
X173736000Y-83058000D03*
X173736000Y-80518000D03*
X173736000Y-77978000D03*
X173736000Y-75438000D03*
X173736000Y-72898000D03*
X173736000Y-70358000D03*
X173736000Y-67818000D03*
X173736000Y-65278000D03*
D12*
X140610001Y-69133001D03*
D13*
X140610001Y-71673001D03*
X140610001Y-114853001D03*
X140610001Y-74213001D03*
X140610001Y-76753001D03*
X140610001Y-79293001D03*
X140610001Y-81833001D03*
X140610001Y-84373001D03*
X140610001Y-86913001D03*
X140610001Y-89453001D03*
X140610001Y-91993001D03*
X140610001Y-94533001D03*
X140610001Y-97073001D03*
X140610001Y-99613001D03*
X140610001Y-102153001D03*
X140610001Y-104693001D03*
X140610001Y-107233001D03*
X140610001Y-109773001D03*
X140610001Y-112313001D03*
X166010001Y-69133001D03*
X166010001Y-71673001D03*
X166010001Y-74213001D03*
X166010001Y-76753001D03*
X166010001Y-79293001D03*
X166010001Y-81833001D03*
X166010001Y-84373001D03*
X166010001Y-86913001D03*
X166010001Y-89453001D03*
X166010001Y-91993001D03*
X166010001Y-94533001D03*
X166010001Y-97073001D03*
X166010001Y-99613001D03*
X166010001Y-102153001D03*
X166010001Y-104693001D03*
X166010001Y-107233001D03*
X166010001Y-109773001D03*
X166010001Y-112313001D03*
X166010001Y-114853001D03*
D11*
X172720000Y-93218000D03*
X172720000Y-95758000D03*
X172720000Y-98298000D03*
X172720000Y-100838000D03*
X172720000Y-103378000D03*
X172720000Y-105918000D03*
X172720000Y-108458000D03*
X172720000Y-110998000D03*
X172720000Y-113538000D03*
X147320000Y-103378000D03*
X147320000Y-100838000D03*
X147320000Y-98298000D03*
X147320000Y-95758000D03*
X147320000Y-93218000D03*
G04 #@! TA.AperFunction,ComponentPad*
G36*
G01*
X137326000Y-127217000D02*
X137326000Y-125767000D01*
G75*
G02*
X137576000Y-125517000I250000J0D01*
G01*
X138776000Y-125517000D01*
G75*
G02*
X139026000Y-125767000I0J-250000D01*
G01*
X139026000Y-127217000D01*
G75*
G02*
X138776000Y-127467000I-250000J0D01*
G01*
X137576000Y-127467000D01*
G75*
G02*
X137326000Y-127217000I0J250000D01*
G01*
G37*
G04 #@! TD.AperFunction*
D14*
X140676000Y-126492000D03*
X143176000Y-126492000D03*
D15*
X139192000Y-143002000D03*
D16*
X144272000Y-143002000D03*
X149352000Y-143002000D03*
D15*
X156464000Y-144780000D03*
D16*
X161544000Y-144780000D03*
D11*
X156210000Y-136652000D03*
X158750000Y-136652000D03*
X161290000Y-136652000D03*
X163830000Y-136652000D03*
X166370000Y-136652000D03*
X168910000Y-136652000D03*
X171450000Y-136652000D03*
X173990000Y-136652000D03*
X173990000Y-121412000D03*
X171450000Y-121412000D03*
X168910000Y-121412000D03*
X166370000Y-121412000D03*
X163830000Y-121412000D03*
X161290000Y-121412000D03*
X158750000Y-121412000D03*
X156210000Y-121412000D03*
D15*
X167640000Y-144780000D03*
D16*
X172720000Y-144780000D03*
D17*
X145796000Y-119380000D03*
D18*
X148336000Y-119380000D03*
X150876000Y-119380000D03*
X136652000Y-112522000D03*
X136652000Y-115062000D03*
D17*
X136652000Y-117602000D03*
X136575800Y-88188800D03*
D18*
X136575800Y-90728800D03*
X136575800Y-93268800D03*
X136575800Y-95808800D03*
X136575800Y-98348800D03*
X136575800Y-100888800D03*
D19*
X171450000Y-79248000D03*
X168910000Y-81788000D03*
X168910000Y-97028000D03*
X168910000Y-102108000D03*
X150952200Y-71526400D03*
X150952200Y-65252600D03*
X149021800Y-92329000D03*
X147853400Y-73787000D03*
X147574000Y-116230400D03*
X143713200Y-116230400D03*
D20*
X142990012Y-79452990D02*
X140610001Y-81833001D01*
X142990012Y-75094388D02*
X142990012Y-79452990D01*
X148183600Y-69900800D02*
X142990012Y-75094388D01*
X152044604Y-69900800D02*
X148183600Y-69900800D01*
X154192404Y-67753000D02*
X152044604Y-69900800D01*
X166672402Y-67753000D02*
X154192404Y-67753000D01*
X169910010Y-70990608D02*
X166672402Y-67753000D01*
X169910010Y-81772010D02*
X169910010Y-70990608D01*
X173736000Y-85598000D02*
X169910010Y-81772010D01*
X171450000Y-77724000D02*
X171450000Y-79248000D01*
X173736000Y-75438000D02*
X171450000Y-77724000D01*
X141990002Y-77913000D02*
X140610001Y-79293001D01*
X147269200Y-68351400D02*
X141990002Y-73630598D01*
X149729202Y-68351400D02*
X147269200Y-68351400D01*
X151327612Y-66752990D02*
X149729202Y-68351400D01*
X141990002Y-73630598D02*
X141990002Y-77913000D01*
X167590990Y-66752990D02*
X151327612Y-66752990D01*
X173736000Y-72898000D02*
X167590990Y-66752990D01*
X168910000Y-74573000D02*
X166010001Y-71673001D01*
X168910000Y-81788000D02*
X168910000Y-74573000D01*
X171357999Y-87180999D02*
X166010001Y-81833001D01*
X171357999Y-96935999D02*
X171357999Y-87180999D01*
X172720000Y-98298000D02*
X171357999Y-96935999D01*
X168910000Y-89813000D02*
X168910000Y-97028000D01*
X166010001Y-86913001D02*
X168910000Y-89813000D01*
X168910000Y-102108000D02*
X172720000Y-105918000D01*
X167390002Y-98048002D02*
X172720000Y-103378000D01*
X167390002Y-90833002D02*
X167390002Y-98048002D01*
X166010001Y-89453001D02*
X167390002Y-90833002D01*
X172315000Y-110998000D02*
X172720000Y-110998000D01*
X166010001Y-104693001D02*
X172315000Y-110998000D01*
X166415001Y-107233001D02*
X166010001Y-107233001D01*
X172720000Y-113538000D02*
X166415001Y-107233001D01*
X138176000Y-131826000D02*
X149352000Y-143002000D01*
X138176000Y-126492000D02*
X138176000Y-131826000D01*
X148336000Y-136652000D02*
X156210000Y-136652000D01*
X138176000Y-126492000D02*
X148336000Y-136652000D01*
D21*
X156464000Y-144018000D02*
X163830000Y-136652000D01*
X156464000Y-144780000D02*
X156464000Y-144018000D01*
X161544000Y-141478000D02*
X166370000Y-136652000D01*
X161544000Y-144780000D02*
X161544000Y-141478000D01*
D20*
X163338238Y-121412000D02*
X163830000Y-121412000D01*
X145957999Y-104031761D02*
X163338238Y-121412000D01*
X145957999Y-92260999D02*
X145957999Y-104031761D01*
X140610001Y-86913001D02*
X145957999Y-92260999D01*
X143990022Y-104112022D02*
X161290000Y-121412000D01*
X143990022Y-92833022D02*
X143990022Y-104112022D01*
X140610001Y-89453001D02*
X143990022Y-92833022D01*
X142990012Y-105652012D02*
X158750000Y-121412000D01*
X142990012Y-94373012D02*
X142990012Y-105652012D01*
X140610001Y-91993001D02*
X142990012Y-94373012D01*
X141990002Y-107192002D02*
X156210000Y-121412000D01*
X141990002Y-95913002D02*
X141990002Y-107192002D01*
X140610001Y-94533001D02*
X141990002Y-95913002D01*
D21*
X167640000Y-137922000D02*
X168910000Y-136652000D01*
X167640000Y-144780000D02*
X167640000Y-137922000D01*
X172720000Y-137922000D02*
X171450000Y-136652000D01*
X172720000Y-144780000D02*
X172720000Y-137922000D01*
D20*
X140401002Y-115062000D02*
X140610001Y-114853001D01*
X136652000Y-115062000D02*
X140401002Y-115062000D01*
X163629990Y-116131990D02*
X168910000Y-121412000D01*
X163629990Y-99453012D02*
X163629990Y-116131990D01*
X166010001Y-97073001D02*
X163629990Y-99453012D01*
X162629980Y-117671980D02*
X166370000Y-121412000D01*
X162629980Y-97913022D02*
X162629980Y-117671980D01*
X166010001Y-94533001D02*
X162629980Y-97913022D01*
X164630000Y-115515402D02*
X165700598Y-116586000D01*
X164630000Y-100993002D02*
X164630000Y-115515402D01*
X166010001Y-99613001D02*
X164630000Y-100993002D01*
X166624000Y-116586000D02*
X171450000Y-121412000D01*
X165700598Y-116586000D02*
X166624000Y-116586000D01*
X150952200Y-76935200D02*
X150952200Y-71526400D01*
X166010001Y-91993001D02*
X150952200Y-76935200D01*
X149107599Y-63407999D02*
X136490001Y-63407999D01*
X150952200Y-65252600D02*
X149107599Y-63407999D01*
X136490001Y-63407999D02*
X134693999Y-65204001D01*
X135373719Y-90728800D02*
X136575800Y-90728800D01*
X134693999Y-90049080D02*
X135373719Y-90728800D01*
X134693999Y-65204001D02*
X134693999Y-90049080D01*
X147853400Y-91160600D02*
X147853400Y-73787000D01*
X149021800Y-92329000D02*
X147853400Y-91160600D01*
X139345800Y-95808800D02*
X140610001Y-97073001D01*
X136575800Y-95808800D02*
X139345800Y-95808800D01*
X139345800Y-98348800D02*
X140610001Y-99613001D01*
X136575800Y-98348800D02*
X139345800Y-98348800D01*
X147574000Y-116230400D02*
X143713200Y-116230400D01*
D22*
G36*
X177140001Y-59657572D02*
G01*
X177140000Y-59657582D01*
X177140001Y-149319581D01*
X177140000Y-156058000D01*
X134264000Y-156058000D01*
X134264000Y-152179872D01*
X136195000Y-152179872D01*
X136195000Y-152620128D01*
X136280890Y-153051925D01*
X136449369Y-153458669D01*
X136693962Y-153824729D01*
X137005271Y-154136038D01*
X137371331Y-154380631D01*
X137778075Y-154549110D01*
X138209872Y-154635000D01*
X138650128Y-154635000D01*
X139081925Y-154549110D01*
X139488669Y-154380631D01*
X139854729Y-154136038D01*
X140166038Y-153824729D01*
X140410631Y-153458669D01*
X140579110Y-153051925D01*
X140651524Y-152687872D01*
X171247000Y-152687872D01*
X171247000Y-153128128D01*
X171332890Y-153559925D01*
X171501369Y-153966669D01*
X171745962Y-154332729D01*
X172057271Y-154644038D01*
X172423331Y-154888631D01*
X172830075Y-155057110D01*
X173261872Y-155143000D01*
X173702128Y-155143000D01*
X174133925Y-155057110D01*
X174540669Y-154888631D01*
X174906729Y-154644038D01*
X175218038Y-154332729D01*
X175462631Y-153966669D01*
X175631110Y-153559925D01*
X175717000Y-153128128D01*
X175717000Y-152687872D01*
X175631110Y-152256075D01*
X175462631Y-151849331D01*
X175218038Y-151483271D01*
X174906729Y-151171962D01*
X174540669Y-150927369D01*
X174133925Y-150758890D01*
X173702128Y-150673000D01*
X173261872Y-150673000D01*
X172830075Y-150758890D01*
X172423331Y-150927369D01*
X172057271Y-151171962D01*
X171745962Y-151483271D01*
X171501369Y-151849331D01*
X171332890Y-152256075D01*
X171247000Y-152687872D01*
X140651524Y-152687872D01*
X140665000Y-152620128D01*
X140665000Y-152179872D01*
X140579110Y-151748075D01*
X140410631Y-151341331D01*
X140166038Y-150975271D01*
X139854729Y-150663962D01*
X139488669Y-150419369D01*
X139081925Y-150250890D01*
X138650128Y-150165000D01*
X138209872Y-150165000D01*
X137778075Y-150250890D01*
X137371331Y-150419369D01*
X137005271Y-150663962D01*
X136693962Y-150975271D01*
X136449369Y-151341331D01*
X136280890Y-151748075D01*
X136195000Y-152179872D01*
X134264000Y-152179872D01*
X134264000Y-144502000D01*
X137053928Y-144502000D01*
X137066188Y-144626482D01*
X137102498Y-144746180D01*
X137161463Y-144856494D01*
X137240815Y-144953185D01*
X137337506Y-145032537D01*
X137447820Y-145091502D01*
X137567518Y-145127812D01*
X137692000Y-145140072D01*
X138906250Y-145137000D01*
X139065000Y-144978250D01*
X139065000Y-143129000D01*
X139319000Y-143129000D01*
X139319000Y-144978250D01*
X139477750Y-145137000D01*
X140692000Y-145140072D01*
X140816482Y-145127812D01*
X140936180Y-145091502D01*
X141046494Y-145032537D01*
X141143185Y-144953185D01*
X141222537Y-144856494D01*
X141281502Y-144746180D01*
X141317812Y-144626482D01*
X141330072Y-144502000D01*
X141327000Y-143287750D01*
X141168250Y-143129000D01*
X139319000Y-143129000D01*
X139065000Y-143129000D01*
X137215750Y-143129000D01*
X137057000Y-143287750D01*
X137053928Y-144502000D01*
X134264000Y-144502000D01*
X134264000Y-141502000D01*
X137053928Y-141502000D01*
X137057000Y-142716250D01*
X137215750Y-142875000D01*
X139065000Y-142875000D01*
X139065000Y-141025750D01*
X139319000Y-141025750D01*
X139319000Y-142875000D01*
X141168250Y-142875000D01*
X141251529Y-142791721D01*
X142137000Y-142791721D01*
X142137000Y-143212279D01*
X142219047Y-143624756D01*
X142379988Y-144013302D01*
X142613637Y-144362983D01*
X142911017Y-144660363D01*
X143260698Y-144894012D01*
X143649244Y-145054953D01*
X144061721Y-145137000D01*
X144482279Y-145137000D01*
X144894756Y-145054953D01*
X145283302Y-144894012D01*
X145632983Y-144660363D01*
X145930363Y-144362983D01*
X146164012Y-144013302D01*
X146324953Y-143624756D01*
X146407000Y-143212279D01*
X146407000Y-142791721D01*
X146324953Y-142379244D01*
X146164012Y-141990698D01*
X145930363Y-141641017D01*
X145632983Y-141343637D01*
X145283302Y-141109988D01*
X144894756Y-140949047D01*
X144482279Y-140867000D01*
X144061721Y-140867000D01*
X143649244Y-140949047D01*
X143260698Y-141109988D01*
X142911017Y-141343637D01*
X142613637Y-141641017D01*
X142379988Y-141990698D01*
X142219047Y-142379244D01*
X142137000Y-142791721D01*
X141251529Y-142791721D01*
X141327000Y-142716250D01*
X141330072Y-141502000D01*
X141317812Y-141377518D01*
X141281502Y-141257820D01*
X141222537Y-141147506D01*
X141143185Y-141050815D01*
X141046494Y-140971463D01*
X140936180Y-140912498D01*
X140816482Y-140876188D01*
X140692000Y-140863928D01*
X139477750Y-140867000D01*
X139319000Y-141025750D01*
X139065000Y-141025750D01*
X138906250Y-140867000D01*
X137692000Y-140863928D01*
X137567518Y-140876188D01*
X137447820Y-140912498D01*
X137337506Y-140971463D01*
X137240815Y-141050815D01*
X137161463Y-141147506D01*
X137102498Y-141257820D01*
X137066188Y-141377518D01*
X137053928Y-141502000D01*
X134264000Y-141502000D01*
X134264000Y-125767000D01*
X136687928Y-125767000D01*
X136687928Y-127217000D01*
X136704992Y-127390254D01*
X136755528Y-127556850D01*
X136837595Y-127710386D01*
X136948038Y-127844962D01*
X137082614Y-127955405D01*
X137141000Y-127986613D01*
X137141001Y-131775162D01*
X137135994Y-131826000D01*
X137155977Y-132028895D01*
X137215160Y-132223993D01*
X137311266Y-132403797D01*
X137408197Y-132521907D01*
X137440605Y-132561396D01*
X137480093Y-132593803D01*
X147293487Y-142407198D01*
X147217000Y-142791721D01*
X147217000Y-143212279D01*
X147299047Y-143624756D01*
X147459988Y-144013302D01*
X147693637Y-144362983D01*
X147991017Y-144660363D01*
X148340698Y-144894012D01*
X148729244Y-145054953D01*
X149141721Y-145137000D01*
X149562279Y-145137000D01*
X149974756Y-145054953D01*
X150363302Y-144894012D01*
X150712983Y-144660363D01*
X151010363Y-144362983D01*
X151244012Y-144013302D01*
X151404953Y-143624756D01*
X151473529Y-143280000D01*
X154325928Y-143280000D01*
X154325928Y-146280000D01*
X154338188Y-146404482D01*
X154374498Y-146524180D01*
X154433463Y-146634494D01*
X154512815Y-146731185D01*
X154609506Y-146810537D01*
X154719820Y-146869502D01*
X154839518Y-146905812D01*
X154964000Y-146918072D01*
X157964000Y-146918072D01*
X158088482Y-146905812D01*
X158208180Y-146869502D01*
X158318494Y-146810537D01*
X158415185Y-146731185D01*
X158494537Y-146634494D01*
X158553502Y-146524180D01*
X158589812Y-146404482D01*
X158602072Y-146280000D01*
X158602072Y-143485059D01*
X160409001Y-141678131D01*
X160409001Y-142970640D01*
X160183017Y-143121637D01*
X159885637Y-143419017D01*
X159651988Y-143768698D01*
X159491047Y-144157244D01*
X159409000Y-144569721D01*
X159409000Y-144990279D01*
X159491047Y-145402756D01*
X159651988Y-145791302D01*
X159885637Y-146140983D01*
X160183017Y-146438363D01*
X160532698Y-146672012D01*
X160921244Y-146832953D01*
X161333721Y-146915000D01*
X161754279Y-146915000D01*
X162166756Y-146832953D01*
X162555302Y-146672012D01*
X162904983Y-146438363D01*
X163202363Y-146140983D01*
X163436012Y-145791302D01*
X163596953Y-145402756D01*
X163679000Y-144990279D01*
X163679000Y-144569721D01*
X163596953Y-144157244D01*
X163436012Y-143768698D01*
X163202363Y-143419017D01*
X162904983Y-143121637D01*
X162679000Y-142970640D01*
X162679000Y-141948131D01*
X166505001Y-138122132D01*
X166505000Y-142641928D01*
X166140000Y-142641928D01*
X166015518Y-142654188D01*
X165895820Y-142690498D01*
X165785506Y-142749463D01*
X165688815Y-142828815D01*
X165609463Y-142925506D01*
X165550498Y-143035820D01*
X165514188Y-143155518D01*
X165501928Y-143280000D01*
X165501928Y-146280000D01*
X165514188Y-146404482D01*
X165550498Y-146524180D01*
X165609463Y-146634494D01*
X165688815Y-146731185D01*
X165785506Y-146810537D01*
X165895820Y-146869502D01*
X166015518Y-146905812D01*
X166140000Y-146918072D01*
X169140000Y-146918072D01*
X169264482Y-146905812D01*
X169384180Y-146869502D01*
X169494494Y-146810537D01*
X169591185Y-146731185D01*
X169670537Y-146634494D01*
X169729502Y-146524180D01*
X169765812Y-146404482D01*
X169778072Y-146280000D01*
X169778072Y-143280000D01*
X169765812Y-143155518D01*
X169729502Y-143035820D01*
X169670537Y-142925506D01*
X169591185Y-142828815D01*
X169494494Y-142749463D01*
X169384180Y-142690498D01*
X169264482Y-142654188D01*
X169140000Y-142641928D01*
X168775000Y-142641928D01*
X168775000Y-138392131D01*
X169135647Y-138031485D01*
X169317490Y-137995314D01*
X169571727Y-137890005D01*
X169800535Y-137737120D01*
X169995120Y-137542535D01*
X170148005Y-137313727D01*
X170180000Y-137236485D01*
X170211995Y-137313727D01*
X170364880Y-137542535D01*
X170559465Y-137737120D01*
X170788273Y-137890005D01*
X171042510Y-137995314D01*
X171224353Y-138031485D01*
X171585001Y-138392133D01*
X171585000Y-142970640D01*
X171359017Y-143121637D01*
X171061637Y-143419017D01*
X170827988Y-143768698D01*
X170667047Y-144157244D01*
X170585000Y-144569721D01*
X170585000Y-144990279D01*
X170667047Y-145402756D01*
X170827988Y-145791302D01*
X171061637Y-146140983D01*
X171359017Y-146438363D01*
X171708698Y-146672012D01*
X172097244Y-146832953D01*
X172509721Y-146915000D01*
X172930279Y-146915000D01*
X173342756Y-146832953D01*
X173731302Y-146672012D01*
X174080983Y-146438363D01*
X174378363Y-146140983D01*
X174612012Y-145791302D01*
X174772953Y-145402756D01*
X174855000Y-144990279D01*
X174855000Y-144569721D01*
X174772953Y-144157244D01*
X174612012Y-143768698D01*
X174378363Y-143419017D01*
X174080983Y-143121637D01*
X173855000Y-142970640D01*
X173855000Y-138044205D01*
X174062017Y-138053910D01*
X174334133Y-138012922D01*
X174593023Y-137919636D01*
X174708980Y-137857656D01*
X174775960Y-137617565D01*
X173990000Y-136831605D01*
X173975858Y-136845748D01*
X173796253Y-136666143D01*
X173810395Y-136652000D01*
X174169605Y-136652000D01*
X174955565Y-137437960D01*
X175195656Y-137370980D01*
X175312756Y-137121952D01*
X175379023Y-136854865D01*
X175391910Y-136579983D01*
X175350922Y-136307867D01*
X175257636Y-136048977D01*
X175195656Y-135933020D01*
X174955565Y-135866040D01*
X174169605Y-136652000D01*
X173810395Y-136652000D01*
X173024435Y-135866040D01*
X172784344Y-135933020D01*
X172720515Y-136068760D01*
X172688005Y-135990273D01*
X172535120Y-135761465D01*
X172460090Y-135686435D01*
X173204040Y-135686435D01*
X173990000Y-136472395D01*
X174775960Y-135686435D01*
X174708980Y-135446344D01*
X174459952Y-135329244D01*
X174192865Y-135262977D01*
X173917983Y-135250090D01*
X173645867Y-135291078D01*
X173386977Y-135384364D01*
X173271020Y-135446344D01*
X173204040Y-135686435D01*
X172460090Y-135686435D01*
X172340535Y-135566880D01*
X172111727Y-135413995D01*
X171857490Y-135308686D01*
X171587592Y-135255000D01*
X171312408Y-135255000D01*
X171042510Y-135308686D01*
X170788273Y-135413995D01*
X170559465Y-135566880D01*
X170364880Y-135761465D01*
X170211995Y-135990273D01*
X170180000Y-136067515D01*
X170148005Y-135990273D01*
X169995120Y-135761465D01*
X169800535Y-135566880D01*
X169571727Y-135413995D01*
X169317490Y-135308686D01*
X169047592Y-135255000D01*
X168772408Y-135255000D01*
X168502510Y-135308686D01*
X168248273Y-135413995D01*
X168019465Y-135566880D01*
X167824880Y-135761465D01*
X167671995Y-135990273D01*
X167640000Y-136067515D01*
X167608005Y-135990273D01*
X167455120Y-135761465D01*
X167260535Y-135566880D01*
X167031727Y-135413995D01*
X166777490Y-135308686D01*
X166507592Y-135255000D01*
X166232408Y-135255000D01*
X165962510Y-135308686D01*
X165708273Y-135413995D01*
X165479465Y-135566880D01*
X165284880Y-135761465D01*
X165131995Y-135990273D01*
X165100000Y-136067515D01*
X165068005Y-135990273D01*
X164915120Y-135761465D01*
X164720535Y-135566880D01*
X164491727Y-135413995D01*
X164237490Y-135308686D01*
X163967592Y-135255000D01*
X163692408Y-135255000D01*
X163422510Y-135308686D01*
X163168273Y-135413995D01*
X162939465Y-135566880D01*
X162744880Y-135761465D01*
X162591995Y-135990273D01*
X162562308Y-136061943D01*
X162557636Y-136048977D01*
X162495656Y-135933020D01*
X162255565Y-135866040D01*
X161469605Y-136652000D01*
X161483748Y-136666143D01*
X161304143Y-136845748D01*
X161290000Y-136831605D01*
X160504040Y-137617565D01*
X160571020Y-137857656D01*
X160820048Y-137974756D01*
X160885799Y-137991069D01*
X156234941Y-142641928D01*
X154964000Y-142641928D01*
X154839518Y-142654188D01*
X154719820Y-142690498D01*
X154609506Y-142749463D01*
X154512815Y-142828815D01*
X154433463Y-142925506D01*
X154374498Y-143035820D01*
X154338188Y-143155518D01*
X154325928Y-143280000D01*
X151473529Y-143280000D01*
X151487000Y-143212279D01*
X151487000Y-142791721D01*
X151404953Y-142379244D01*
X151244012Y-141990698D01*
X151010363Y-141641017D01*
X150712983Y-141343637D01*
X150363302Y-141109988D01*
X149974756Y-140949047D01*
X149562279Y-140867000D01*
X149141721Y-140867000D01*
X148757198Y-140943487D01*
X139211000Y-131397290D01*
X139211000Y-128990710D01*
X147568197Y-137347908D01*
X147600604Y-137387396D01*
X147640092Y-137419803D01*
X147758202Y-137516734D01*
X147806473Y-137542535D01*
X147938007Y-137612841D01*
X148133105Y-137672024D01*
X148285162Y-137687000D01*
X148285165Y-137687000D01*
X148336000Y-137692007D01*
X148386835Y-137687000D01*
X155269345Y-137687000D01*
X155319465Y-137737120D01*
X155548273Y-137890005D01*
X155802510Y-137995314D01*
X156072408Y-138049000D01*
X156347592Y-138049000D01*
X156617490Y-137995314D01*
X156871727Y-137890005D01*
X157100535Y-137737120D01*
X157295120Y-137542535D01*
X157448005Y-137313727D01*
X157480000Y-137236485D01*
X157511995Y-137313727D01*
X157664880Y-137542535D01*
X157859465Y-137737120D01*
X158088273Y-137890005D01*
X158342510Y-137995314D01*
X158612408Y-138049000D01*
X158887592Y-138049000D01*
X159157490Y-137995314D01*
X159411727Y-137890005D01*
X159640535Y-137737120D01*
X159835120Y-137542535D01*
X159988005Y-137313727D01*
X160017692Y-137242057D01*
X160022364Y-137255023D01*
X160084344Y-137370980D01*
X160324435Y-137437960D01*
X161110395Y-136652000D01*
X160324435Y-135866040D01*
X160084344Y-135933020D01*
X160020515Y-136068760D01*
X159988005Y-135990273D01*
X159835120Y-135761465D01*
X159760090Y-135686435D01*
X160504040Y-135686435D01*
X161290000Y-136472395D01*
X162075960Y-135686435D01*
X162008980Y-135446344D01*
X161759952Y-135329244D01*
X161492865Y-135262977D01*
X161217983Y-135250090D01*
X160945867Y-135291078D01*
X160686977Y-135384364D01*
X160571020Y-135446344D01*
X160504040Y-135686435D01*
X159760090Y-135686435D01*
X159640535Y-135566880D01*
X159411727Y-135413995D01*
X159157490Y-135308686D01*
X158887592Y-135255000D01*
X158612408Y-135255000D01*
X158342510Y-135308686D01*
X158088273Y-135413995D01*
X157859465Y-135566880D01*
X157664880Y-135761465D01*
X157511995Y-135990273D01*
X157480000Y-136067515D01*
X157448005Y-135990273D01*
X157295120Y-135761465D01*
X157100535Y-135566880D01*
X156871727Y-135413995D01*
X156617490Y-135308686D01*
X156347592Y-135255000D01*
X156072408Y-135255000D01*
X155802510Y-135308686D01*
X155548273Y-135413995D01*
X155319465Y-135566880D01*
X155269345Y-135617000D01*
X148764711Y-135617000D01*
X141167451Y-128019740D01*
X141247034Y-127995599D01*
X141505014Y-127857706D01*
X141731134Y-127672134D01*
X141916706Y-127446014D01*
X141930462Y-127420278D01*
X142086951Y-127626429D01*
X142304807Y-127819496D01*
X142556142Y-127966352D01*
X142819110Y-128058476D01*
X143049000Y-127937155D01*
X143049000Y-126619000D01*
X143303000Y-126619000D01*
X143303000Y-127937155D01*
X143532890Y-128058476D01*
X143795858Y-127966352D01*
X144047193Y-127819496D01*
X144265049Y-127626429D01*
X144441053Y-127394570D01*
X144568442Y-127132830D01*
X144642320Y-126851267D01*
X144502165Y-126619000D01*
X143303000Y-126619000D01*
X143049000Y-126619000D01*
X143029000Y-126619000D01*
X143029000Y-126365000D01*
X143049000Y-126365000D01*
X143049000Y-125046845D01*
X143303000Y-125046845D01*
X143303000Y-126365000D01*
X144502165Y-126365000D01*
X144642320Y-126132733D01*
X144568442Y-125851170D01*
X144441053Y-125589430D01*
X144265049Y-125357571D01*
X144047193Y-125164504D01*
X143795858Y-125017648D01*
X143532890Y-124925524D01*
X143303000Y-125046845D01*
X143049000Y-125046845D01*
X142819110Y-124925524D01*
X142556142Y-125017648D01*
X142304807Y-125164504D01*
X142086951Y-125357571D01*
X141930462Y-125563722D01*
X141916706Y-125537986D01*
X141731134Y-125311866D01*
X141505013Y-125126294D01*
X141247033Y-124988401D01*
X140967110Y-124903487D01*
X140676000Y-124874815D01*
X140384889Y-124903487D01*
X140104966Y-124988401D01*
X139846986Y-125126294D01*
X139620866Y-125311866D01*
X139568777Y-125375337D01*
X139514405Y-125273614D01*
X139403962Y-125139038D01*
X139269386Y-125028595D01*
X139115850Y-124946528D01*
X138949254Y-124895992D01*
X138776000Y-124878928D01*
X137576000Y-124878928D01*
X137402746Y-124895992D01*
X137236150Y-124946528D01*
X137082614Y-125028595D01*
X136948038Y-125139038D01*
X136837595Y-125273614D01*
X136755528Y-125427150D01*
X136704992Y-125593746D01*
X136687928Y-125767000D01*
X134264000Y-125767000D01*
X134264000Y-91082791D01*
X134605912Y-91424703D01*
X134638323Y-91464196D01*
X134712490Y-91525063D01*
X134795921Y-91593534D01*
X134869930Y-91633092D01*
X134975726Y-91689641D01*
X135170824Y-91748824D01*
X135322881Y-91763800D01*
X135322890Y-91763800D01*
X135373718Y-91768806D01*
X135424546Y-91763800D01*
X135510693Y-91763800D01*
X135629168Y-91882275D01*
X135803560Y-91998800D01*
X135629168Y-92115325D01*
X135422325Y-92322168D01*
X135259810Y-92565389D01*
X135147868Y-92835642D01*
X135090800Y-93122540D01*
X135090800Y-93415060D01*
X135147868Y-93701958D01*
X135259810Y-93972211D01*
X135422325Y-94215432D01*
X135629168Y-94422275D01*
X135803560Y-94538800D01*
X135629168Y-94655325D01*
X135422325Y-94862168D01*
X135259810Y-95105389D01*
X135147868Y-95375642D01*
X135090800Y-95662540D01*
X135090800Y-95955060D01*
X135147868Y-96241958D01*
X135259810Y-96512211D01*
X135422325Y-96755432D01*
X135629168Y-96962275D01*
X135803560Y-97078800D01*
X135629168Y-97195325D01*
X135422325Y-97402168D01*
X135259810Y-97645389D01*
X135147868Y-97915642D01*
X135090800Y-98202540D01*
X135090800Y-98495060D01*
X135147868Y-98781958D01*
X135259810Y-99052211D01*
X135422325Y-99295432D01*
X135629168Y-99502275D01*
X135803560Y-99618800D01*
X135629168Y-99735325D01*
X135422325Y-99942168D01*
X135259810Y-100185389D01*
X135147868Y-100455642D01*
X135090800Y-100742540D01*
X135090800Y-101035060D01*
X135147868Y-101321958D01*
X135259810Y-101592211D01*
X135422325Y-101835432D01*
X135629168Y-102042275D01*
X135872389Y-102204790D01*
X136142642Y-102316732D01*
X136429540Y-102373800D01*
X136722060Y-102373800D01*
X137008958Y-102316732D01*
X137232099Y-102224304D01*
X139189944Y-102224304D01*
X139231141Y-102499973D01*
X139325326Y-102762309D01*
X139389652Y-102882656D01*
X139631580Y-102951817D01*
X140430396Y-102153001D01*
X139631580Y-101354185D01*
X139389652Y-101423346D01*
X139270753Y-101675444D01*
X139203320Y-101945895D01*
X139189944Y-102224304D01*
X137232099Y-102224304D01*
X137279211Y-102204790D01*
X137522432Y-102042275D01*
X137729275Y-101835432D01*
X137891790Y-101592211D01*
X138003732Y-101321958D01*
X138060800Y-101035060D01*
X138060800Y-100742540D01*
X138003732Y-100455642D01*
X137891790Y-100185389D01*
X137729275Y-99942168D01*
X137522432Y-99735325D01*
X137348040Y-99618800D01*
X137522432Y-99502275D01*
X137640907Y-99383800D01*
X138917090Y-99383800D01*
X139195001Y-99661711D01*
X139195001Y-99752366D01*
X139249378Y-100025741D01*
X139356044Y-100283255D01*
X139510898Y-100515011D01*
X139707991Y-100712104D01*
X139939747Y-100866958D01*
X139975526Y-100881778D01*
X139880346Y-100932652D01*
X139811185Y-101174580D01*
X140610001Y-101973396D01*
X140624144Y-101959254D01*
X140803749Y-102138859D01*
X140789606Y-102153001D01*
X140803749Y-102167144D01*
X140624144Y-102346749D01*
X140610001Y-102332606D01*
X139811185Y-103131422D01*
X139880346Y-103373350D01*
X139982280Y-103421426D01*
X139939747Y-103439044D01*
X139707991Y-103593898D01*
X139510898Y-103790991D01*
X139356044Y-104022747D01*
X139249378Y-104280261D01*
X139195001Y-104553636D01*
X139195001Y-104832366D01*
X139249378Y-105105741D01*
X139356044Y-105363255D01*
X139510898Y-105595011D01*
X139707991Y-105792104D01*
X139939747Y-105946958D01*
X139978478Y-105963001D01*
X139939747Y-105979044D01*
X139707991Y-106133898D01*
X139510898Y-106330991D01*
X139356044Y-106562747D01*
X139249378Y-106820261D01*
X139195001Y-107093636D01*
X139195001Y-107372366D01*
X139249378Y-107645741D01*
X139356044Y-107903255D01*
X139510898Y-108135011D01*
X139707991Y-108332104D01*
X139939747Y-108486958D01*
X139978478Y-108503001D01*
X139939747Y-108519044D01*
X139707991Y-108673898D01*
X139510898Y-108870991D01*
X139356044Y-109102747D01*
X139249378Y-109360261D01*
X139195001Y-109633636D01*
X139195001Y-109912366D01*
X139249378Y-110185741D01*
X139356044Y-110443255D01*
X139510898Y-110675011D01*
X139707991Y-110872104D01*
X139939747Y-111026958D01*
X139978478Y-111043001D01*
X139939747Y-111059044D01*
X139707991Y-111213898D01*
X139510898Y-111410991D01*
X139356044Y-111642747D01*
X139249378Y-111900261D01*
X139195001Y-112173636D01*
X139195001Y-112452366D01*
X139249378Y-112725741D01*
X139356044Y-112983255D01*
X139510898Y-113215011D01*
X139707991Y-113412104D01*
X139939747Y-113566958D01*
X139978478Y-113583001D01*
X139939747Y-113599044D01*
X139707991Y-113753898D01*
X139510898Y-113950991D01*
X139460111Y-114027000D01*
X137717107Y-114027000D01*
X137598632Y-113908525D01*
X137424240Y-113792000D01*
X137598632Y-113675475D01*
X137805475Y-113468632D01*
X137967990Y-113225411D01*
X138079932Y-112955158D01*
X138137000Y-112668260D01*
X138137000Y-112375740D01*
X138079932Y-112088842D01*
X137967990Y-111818589D01*
X137805475Y-111575368D01*
X137598632Y-111368525D01*
X137355411Y-111206010D01*
X137085158Y-111094068D01*
X136798260Y-111037000D01*
X136505740Y-111037000D01*
X136218842Y-111094068D01*
X135948589Y-111206010D01*
X135705368Y-111368525D01*
X135498525Y-111575368D01*
X135336010Y-111818589D01*
X135224068Y-112088842D01*
X135167000Y-112375740D01*
X135167000Y-112668260D01*
X135224068Y-112955158D01*
X135336010Y-113225411D01*
X135498525Y-113468632D01*
X135705368Y-113675475D01*
X135879760Y-113792000D01*
X135705368Y-113908525D01*
X135498525Y-114115368D01*
X135336010Y-114358589D01*
X135224068Y-114628842D01*
X135167000Y-114915740D01*
X135167000Y-115208260D01*
X135224068Y-115495158D01*
X135336010Y-115765411D01*
X135498525Y-116008632D01*
X135630380Y-116140487D01*
X135557820Y-116162498D01*
X135447506Y-116221463D01*
X135350815Y-116300815D01*
X135271463Y-116397506D01*
X135212498Y-116507820D01*
X135176188Y-116627518D01*
X135163928Y-116752000D01*
X135163928Y-118452000D01*
X135176188Y-118576482D01*
X135212498Y-118696180D01*
X135271463Y-118806494D01*
X135350815Y-118903185D01*
X135447506Y-118982537D01*
X135557820Y-119041502D01*
X135677518Y-119077812D01*
X135802000Y-119090072D01*
X137502000Y-119090072D01*
X137626482Y-119077812D01*
X137746180Y-119041502D01*
X137856494Y-118982537D01*
X137953185Y-118903185D01*
X138032537Y-118806494D01*
X138091502Y-118696180D01*
X138127812Y-118576482D01*
X138132389Y-118530000D01*
X144307928Y-118530000D01*
X144307928Y-120230000D01*
X144320188Y-120354482D01*
X144356498Y-120474180D01*
X144415463Y-120584494D01*
X144494815Y-120681185D01*
X144591506Y-120760537D01*
X144701820Y-120819502D01*
X144821518Y-120855812D01*
X144946000Y-120868072D01*
X146646000Y-120868072D01*
X146770482Y-120855812D01*
X146890180Y-120819502D01*
X147000494Y-120760537D01*
X147097185Y-120681185D01*
X147176537Y-120584494D01*
X147235502Y-120474180D01*
X147257513Y-120401620D01*
X147389368Y-120533475D01*
X147632589Y-120695990D01*
X147902842Y-120807932D01*
X148189740Y-120865000D01*
X148482260Y-120865000D01*
X148769158Y-120807932D01*
X149039411Y-120695990D01*
X149282632Y-120533475D01*
X149489475Y-120326632D01*
X149611195Y-120144466D01*
X149680822Y-120261355D01*
X149875731Y-120477588D01*
X150109080Y-120651641D01*
X150371901Y-120776825D01*
X150519110Y-120821476D01*
X150749000Y-120700155D01*
X150749000Y-119507000D01*
X151003000Y-119507000D01*
X151003000Y-120700155D01*
X151232890Y-120821476D01*
X151380099Y-120776825D01*
X151642920Y-120651641D01*
X151876269Y-120477588D01*
X152071178Y-120261355D01*
X152220157Y-120011252D01*
X152317481Y-119736891D01*
X152196814Y-119507000D01*
X151003000Y-119507000D01*
X150749000Y-119507000D01*
X150729000Y-119507000D01*
X150729000Y-119253000D01*
X150749000Y-119253000D01*
X150749000Y-118059845D01*
X150519110Y-117938524D01*
X150371901Y-117983175D01*
X150109080Y-118108359D01*
X149875731Y-118282412D01*
X149680822Y-118498645D01*
X149611195Y-118615534D01*
X149489475Y-118433368D01*
X149282632Y-118226525D01*
X149039411Y-118064010D01*
X148769158Y-117952068D01*
X148482260Y-117895000D01*
X148189740Y-117895000D01*
X147902842Y-117952068D01*
X147632589Y-118064010D01*
X147389368Y-118226525D01*
X147257513Y-118358380D01*
X147235502Y-118285820D01*
X147176537Y-118175506D01*
X147097185Y-118078815D01*
X147000494Y-117999463D01*
X146890180Y-117940498D01*
X146770482Y-117904188D01*
X146646000Y-117891928D01*
X144946000Y-117891928D01*
X144821518Y-117904188D01*
X144701820Y-117940498D01*
X144591506Y-117999463D01*
X144494815Y-118078815D01*
X144415463Y-118175506D01*
X144356498Y-118285820D01*
X144320188Y-118405518D01*
X144307928Y-118530000D01*
X138132389Y-118530000D01*
X138140072Y-118452000D01*
X138140072Y-116752000D01*
X138127812Y-116627518D01*
X138091502Y-116507820D01*
X138032537Y-116397506D01*
X137953185Y-116300815D01*
X137856494Y-116221463D01*
X137746180Y-116162498D01*
X137673620Y-116140487D01*
X137717107Y-116097000D01*
X139924844Y-116097000D01*
X139939747Y-116106958D01*
X140197261Y-116213624D01*
X140470636Y-116268001D01*
X140749366Y-116268001D01*
X140938401Y-116230400D01*
X142673193Y-116230400D01*
X142678200Y-116281238D01*
X142678200Y-116332339D01*
X142688169Y-116382457D01*
X142693176Y-116433295D01*
X142708004Y-116482177D01*
X142717974Y-116532298D01*
X142737531Y-116579513D01*
X142752359Y-116628393D01*
X142776438Y-116673442D01*
X142795995Y-116720656D01*
X142824386Y-116763146D01*
X142848466Y-116808197D01*
X142880872Y-116847684D01*
X142909263Y-116890174D01*
X142945397Y-116926308D01*
X142977804Y-116965796D01*
X143017292Y-116998203D01*
X143053426Y-117034337D01*
X143095916Y-117062728D01*
X143135403Y-117095134D01*
X143180454Y-117119214D01*
X143222944Y-117147605D01*
X143270158Y-117167162D01*
X143315207Y-117191241D01*
X143364087Y-117206069D01*
X143411302Y-117225626D01*
X143461423Y-117235596D01*
X143510305Y-117250424D01*
X143561143Y-117255431D01*
X143611261Y-117265400D01*
X147675939Y-117265400D01*
X147726057Y-117255431D01*
X147776895Y-117250424D01*
X147825777Y-117235596D01*
X147875898Y-117225626D01*
X147923113Y-117206069D01*
X147971993Y-117191241D01*
X148017042Y-117167162D01*
X148064256Y-117147605D01*
X148106746Y-117119214D01*
X148151797Y-117095134D01*
X148191284Y-117062728D01*
X148233774Y-117034337D01*
X148269908Y-116998203D01*
X148309396Y-116965796D01*
X148341803Y-116926308D01*
X148377937Y-116890174D01*
X148406328Y-116847684D01*
X148438734Y-116808197D01*
X148462814Y-116763146D01*
X148491205Y-116720656D01*
X148510762Y-116673442D01*
X148534841Y-116628393D01*
X148549669Y-116579513D01*
X148569226Y-116532298D01*
X148579196Y-116482177D01*
X148594024Y-116433295D01*
X148599031Y-116382457D01*
X148609000Y-116332339D01*
X148609000Y-116281238D01*
X148614007Y-116230400D01*
X148609000Y-116179562D01*
X148609000Y-116128461D01*
X148599031Y-116078343D01*
X148594024Y-116027505D01*
X148579196Y-115978623D01*
X148569226Y-115928502D01*
X148549669Y-115881287D01*
X148534841Y-115832407D01*
X148510762Y-115787358D01*
X148491205Y-115740144D01*
X148462814Y-115697654D01*
X148438734Y-115652603D01*
X148406328Y-115613116D01*
X148377937Y-115570626D01*
X148341803Y-115534492D01*
X148309396Y-115495004D01*
X148269908Y-115462597D01*
X148233774Y-115426463D01*
X148191284Y-115398072D01*
X148151797Y-115365666D01*
X148106746Y-115341586D01*
X148064256Y-115313195D01*
X148017042Y-115293638D01*
X147971993Y-115269559D01*
X147923113Y-115254731D01*
X147875898Y-115235174D01*
X147825777Y-115225204D01*
X147776895Y-115210376D01*
X147726057Y-115205369D01*
X147675939Y-115195400D01*
X143611261Y-115195400D01*
X143561143Y-115205369D01*
X143510305Y-115210376D01*
X143461423Y-115225204D01*
X143411302Y-115235174D01*
X143364087Y-115254731D01*
X143315207Y-115269559D01*
X143270158Y-115293638D01*
X143222944Y-115313195D01*
X143180454Y-115341586D01*
X143135403Y-115365666D01*
X143095916Y-115398072D01*
X143053426Y-115426463D01*
X143017292Y-115462597D01*
X142977804Y-115495004D01*
X142945397Y-115534492D01*
X142909263Y-115570626D01*
X142880872Y-115613116D01*
X142848466Y-115652603D01*
X142824386Y-115697654D01*
X142795995Y-115740144D01*
X142776438Y-115787358D01*
X142752359Y-115832407D01*
X142737531Y-115881287D01*
X142717974Y-115928502D01*
X142708004Y-115978623D01*
X142693176Y-116027505D01*
X142688169Y-116078343D01*
X142678200Y-116128461D01*
X142678200Y-116179562D01*
X142673193Y-116230400D01*
X140938401Y-116230400D01*
X141022741Y-116213624D01*
X141280255Y-116106958D01*
X141512011Y-115952104D01*
X141709104Y-115755011D01*
X141863958Y-115523255D01*
X141970624Y-115265741D01*
X142025001Y-114992366D01*
X142025001Y-114713636D01*
X141970624Y-114440261D01*
X141863958Y-114182747D01*
X141709104Y-113950991D01*
X141512011Y-113753898D01*
X141280255Y-113599044D01*
X141241524Y-113583001D01*
X141280255Y-113566958D01*
X141512011Y-113412104D01*
X141709104Y-113215011D01*
X141863958Y-112983255D01*
X141970624Y-112725741D01*
X142025001Y-112452366D01*
X142025001Y-112173636D01*
X141970624Y-111900261D01*
X141863958Y-111642747D01*
X141709104Y-111410991D01*
X141512011Y-111213898D01*
X141280255Y-111059044D01*
X141241524Y-111043001D01*
X141280255Y-111026958D01*
X141512011Y-110872104D01*
X141709104Y-110675011D01*
X141863958Y-110443255D01*
X141970624Y-110185741D01*
X142025001Y-109912366D01*
X142025001Y-109633636D01*
X141970624Y-109360261D01*
X141863958Y-109102747D01*
X141709104Y-108870991D01*
X141512011Y-108673898D01*
X141280255Y-108519044D01*
X141241524Y-108503001D01*
X141280255Y-108486958D01*
X141512011Y-108332104D01*
X141589202Y-108254913D01*
X151290195Y-117955906D01*
X151232890Y-117938524D01*
X151003000Y-118059845D01*
X151003000Y-119253000D01*
X152196814Y-119253000D01*
X152317481Y-119023109D01*
X152295537Y-118961248D01*
X154813000Y-121478711D01*
X154813000Y-121549592D01*
X154866686Y-121819490D01*
X154971995Y-122073727D01*
X155124880Y-122302535D01*
X155319465Y-122497120D01*
X155548273Y-122650005D01*
X155802510Y-122755314D01*
X156072408Y-122809000D01*
X156347592Y-122809000D01*
X156617490Y-122755314D01*
X156871727Y-122650005D01*
X157100535Y-122497120D01*
X157295120Y-122302535D01*
X157448005Y-122073727D01*
X157480000Y-121996485D01*
X157511995Y-122073727D01*
X157664880Y-122302535D01*
X157859465Y-122497120D01*
X158088273Y-122650005D01*
X158342510Y-122755314D01*
X158612408Y-122809000D01*
X158887592Y-122809000D01*
X159157490Y-122755314D01*
X159411727Y-122650005D01*
X159640535Y-122497120D01*
X159835120Y-122302535D01*
X159988005Y-122073727D01*
X160020000Y-121996485D01*
X160051995Y-122073727D01*
X160204880Y-122302535D01*
X160399465Y-122497120D01*
X160628273Y-122650005D01*
X160882510Y-122755314D01*
X161152408Y-122809000D01*
X161427592Y-122809000D01*
X161697490Y-122755314D01*
X161951727Y-122650005D01*
X162180535Y-122497120D01*
X162375120Y-122302535D01*
X162528005Y-122073727D01*
X162530421Y-122067894D01*
X162570435Y-122107908D01*
X162602842Y-122147396D01*
X162642330Y-122179803D01*
X162687816Y-122217132D01*
X162744880Y-122302535D01*
X162939465Y-122497120D01*
X163168273Y-122650005D01*
X163422510Y-122755314D01*
X163692408Y-122809000D01*
X163967592Y-122809000D01*
X164237490Y-122755314D01*
X164491727Y-122650005D01*
X164720535Y-122497120D01*
X164915120Y-122302535D01*
X165068005Y-122073727D01*
X165100000Y-121996485D01*
X165131995Y-122073727D01*
X165284880Y-122302535D01*
X165479465Y-122497120D01*
X165708273Y-122650005D01*
X165962510Y-122755314D01*
X166232408Y-122809000D01*
X166507592Y-122809000D01*
X166777490Y-122755314D01*
X167031727Y-122650005D01*
X167260535Y-122497120D01*
X167455120Y-122302535D01*
X167608005Y-122073727D01*
X167640000Y-121996485D01*
X167671995Y-122073727D01*
X167824880Y-122302535D01*
X168019465Y-122497120D01*
X168248273Y-122650005D01*
X168502510Y-122755314D01*
X168772408Y-122809000D01*
X169047592Y-122809000D01*
X169317490Y-122755314D01*
X169571727Y-122650005D01*
X169800535Y-122497120D01*
X169995120Y-122302535D01*
X170148005Y-122073727D01*
X170180000Y-121996485D01*
X170211995Y-122073727D01*
X170364880Y-122302535D01*
X170559465Y-122497120D01*
X170788273Y-122650005D01*
X171042510Y-122755314D01*
X171312408Y-122809000D01*
X171587592Y-122809000D01*
X171857490Y-122755314D01*
X172111727Y-122650005D01*
X172340535Y-122497120D01*
X172460090Y-122377565D01*
X173204040Y-122377565D01*
X173271020Y-122617656D01*
X173520048Y-122734756D01*
X173787135Y-122801023D01*
X174062017Y-122813910D01*
X174334133Y-122772922D01*
X174593023Y-122679636D01*
X174708980Y-122617656D01*
X174775960Y-122377565D01*
X173990000Y-121591605D01*
X173204040Y-122377565D01*
X172460090Y-122377565D01*
X172535120Y-122302535D01*
X172688005Y-122073727D01*
X172717692Y-122002057D01*
X172722364Y-122015023D01*
X172784344Y-122130980D01*
X173024435Y-122197960D01*
X173810395Y-121412000D01*
X174169605Y-121412000D01*
X174955565Y-122197960D01*
X175195656Y-122130980D01*
X175312756Y-121881952D01*
X175379023Y-121614865D01*
X175391910Y-121339983D01*
X175350922Y-121067867D01*
X175257636Y-120808977D01*
X175195656Y-120693020D01*
X174955565Y-120626040D01*
X174169605Y-121412000D01*
X173810395Y-121412000D01*
X173024435Y-120626040D01*
X172784344Y-120693020D01*
X172720515Y-120828760D01*
X172688005Y-120750273D01*
X172535120Y-120521465D01*
X172460090Y-120446435D01*
X173204040Y-120446435D01*
X173990000Y-121232395D01*
X174775960Y-120446435D01*
X174708980Y-120206344D01*
X174459952Y-120089244D01*
X174192865Y-120022977D01*
X173917983Y-120010090D01*
X173645867Y-120051078D01*
X173386977Y-120144364D01*
X173271020Y-120206344D01*
X173204040Y-120446435D01*
X172460090Y-120446435D01*
X172340535Y-120326880D01*
X172111727Y-120173995D01*
X171857490Y-120068686D01*
X171587592Y-120015000D01*
X171516711Y-120015000D01*
X167391807Y-115890097D01*
X167359396Y-115850604D01*
X167201797Y-115721266D01*
X167150111Y-115693639D01*
X167263958Y-115523255D01*
X167370624Y-115265741D01*
X167425001Y-114992366D01*
X167425001Y-114713636D01*
X167370624Y-114440261D01*
X167263958Y-114182747D01*
X167109104Y-113950991D01*
X166912011Y-113753898D01*
X166680255Y-113599044D01*
X166641524Y-113583001D01*
X166680255Y-113566958D01*
X166912011Y-113412104D01*
X167109104Y-113215011D01*
X167263958Y-112983255D01*
X167370624Y-112725741D01*
X167425001Y-112452366D01*
X167425001Y-112173636D01*
X167370624Y-111900261D01*
X167263958Y-111642747D01*
X167109104Y-111410991D01*
X166912011Y-111213898D01*
X166680255Y-111059044D01*
X166641524Y-111043001D01*
X166680255Y-111026958D01*
X166912011Y-110872104D01*
X167109104Y-110675011D01*
X167263958Y-110443255D01*
X167370624Y-110185741D01*
X167425001Y-109912366D01*
X167425001Y-109706711D01*
X171323000Y-113604711D01*
X171323000Y-113675592D01*
X171376686Y-113945490D01*
X171481995Y-114199727D01*
X171634880Y-114428535D01*
X171829465Y-114623120D01*
X172058273Y-114776005D01*
X172312510Y-114881314D01*
X172582408Y-114935000D01*
X172857592Y-114935000D01*
X173127490Y-114881314D01*
X173381727Y-114776005D01*
X173610535Y-114623120D01*
X173805120Y-114428535D01*
X173958005Y-114199727D01*
X174063314Y-113945490D01*
X174117000Y-113675592D01*
X174117000Y-113400408D01*
X174063314Y-113130510D01*
X173958005Y-112876273D01*
X173805120Y-112647465D01*
X173610535Y-112452880D01*
X173381727Y-112299995D01*
X173304485Y-112268000D01*
X173381727Y-112236005D01*
X173610535Y-112083120D01*
X173805120Y-111888535D01*
X173958005Y-111659727D01*
X174063314Y-111405490D01*
X174117000Y-111135592D01*
X174117000Y-110860408D01*
X174063314Y-110590510D01*
X173958005Y-110336273D01*
X173805120Y-110107465D01*
X173610535Y-109912880D01*
X173381727Y-109759995D01*
X173304485Y-109728000D01*
X173381727Y-109696005D01*
X173610535Y-109543120D01*
X173805120Y-109348535D01*
X173958005Y-109119727D01*
X174063314Y-108865490D01*
X174117000Y-108595592D01*
X174117000Y-108320408D01*
X174063314Y-108050510D01*
X173958005Y-107796273D01*
X173805120Y-107567465D01*
X173610535Y-107372880D01*
X173381727Y-107219995D01*
X173304485Y-107188000D01*
X173381727Y-107156005D01*
X173610535Y-107003120D01*
X173805120Y-106808535D01*
X173958005Y-106579727D01*
X174063314Y-106325490D01*
X174117000Y-106055592D01*
X174117000Y-105780408D01*
X174063314Y-105510510D01*
X173958005Y-105256273D01*
X173805120Y-105027465D01*
X173610535Y-104832880D01*
X173381727Y-104679995D01*
X173304485Y-104648000D01*
X173381727Y-104616005D01*
X173610535Y-104463120D01*
X173805120Y-104268535D01*
X173958005Y-104039727D01*
X174063314Y-103785490D01*
X174117000Y-103515592D01*
X174117000Y-103240408D01*
X174063314Y-102970510D01*
X173958005Y-102716273D01*
X173805120Y-102487465D01*
X173610535Y-102292880D01*
X173381727Y-102139995D01*
X173304485Y-102108000D01*
X173381727Y-102076005D01*
X173610535Y-101923120D01*
X173805120Y-101728535D01*
X173958005Y-101499727D01*
X174063314Y-101245490D01*
X174117000Y-100975592D01*
X174117000Y-100700408D01*
X174063314Y-100430510D01*
X173958005Y-100176273D01*
X173805120Y-99947465D01*
X173610535Y-99752880D01*
X173381727Y-99599995D01*
X173304485Y-99568000D01*
X173381727Y-99536005D01*
X173610535Y-99383120D01*
X173805120Y-99188535D01*
X173958005Y-98959727D01*
X174063314Y-98705490D01*
X174117000Y-98435592D01*
X174117000Y-98160408D01*
X174063314Y-97890510D01*
X173958005Y-97636273D01*
X173805120Y-97407465D01*
X173610535Y-97212880D01*
X173381727Y-97059995D01*
X173310057Y-97030308D01*
X173323023Y-97025636D01*
X173438980Y-96963656D01*
X173505960Y-96723565D01*
X172720000Y-95937605D01*
X172705858Y-95951748D01*
X172526253Y-95772143D01*
X172540395Y-95758000D01*
X172899605Y-95758000D01*
X173685565Y-96543960D01*
X173925656Y-96476980D01*
X174042756Y-96227952D01*
X174109023Y-95960865D01*
X174121910Y-95685983D01*
X174080922Y-95413867D01*
X173987636Y-95154977D01*
X173925656Y-95039020D01*
X173685565Y-94972040D01*
X172899605Y-95758000D01*
X172540395Y-95758000D01*
X172526253Y-95743858D01*
X172705858Y-95564253D01*
X172720000Y-95578395D01*
X173505960Y-94792435D01*
X173438980Y-94552344D01*
X173303240Y-94488515D01*
X173381727Y-94456005D01*
X173610535Y-94303120D01*
X173805120Y-94108535D01*
X173958005Y-93879727D01*
X174063314Y-93625490D01*
X174117000Y-93355592D01*
X174117000Y-93080408D01*
X174063314Y-92810510D01*
X173958005Y-92556273D01*
X173805120Y-92327465D01*
X173610535Y-92132880D01*
X173381727Y-91979995D01*
X173127490Y-91874686D01*
X172857592Y-91821000D01*
X172582408Y-91821000D01*
X172392999Y-91858676D01*
X172392999Y-87231826D01*
X172398005Y-87180998D01*
X172392999Y-87130170D01*
X172392999Y-87130161D01*
X172378023Y-86978104D01*
X172318840Y-86783006D01*
X172230655Y-86618023D01*
X172222733Y-86603201D01*
X172125802Y-86485091D01*
X172093395Y-86445603D01*
X172053907Y-86413196D01*
X167425001Y-81784291D01*
X167425001Y-81693636D01*
X167370624Y-81420261D01*
X167263958Y-81162747D01*
X167109104Y-80930991D01*
X166912011Y-80733898D01*
X166680255Y-80579044D01*
X166641524Y-80563001D01*
X166680255Y-80546958D01*
X166912011Y-80392104D01*
X167109104Y-80195011D01*
X167263958Y-79963255D01*
X167370624Y-79705741D01*
X167425001Y-79432366D01*
X167425001Y-79153636D01*
X167370624Y-78880261D01*
X167263958Y-78622747D01*
X167109104Y-78390991D01*
X166912011Y-78193898D01*
X166680255Y-78039044D01*
X166641524Y-78023001D01*
X166680255Y-78006958D01*
X166912011Y-77852104D01*
X167109104Y-77655011D01*
X167263958Y-77423255D01*
X167370624Y-77165741D01*
X167425001Y-76892366D01*
X167425001Y-76613636D01*
X167370624Y-76340261D01*
X167263958Y-76082747D01*
X167109104Y-75850991D01*
X166912011Y-75653898D01*
X166680255Y-75499044D01*
X166641524Y-75483001D01*
X166680255Y-75466958D01*
X166912011Y-75312104D01*
X167109104Y-75115011D01*
X167263958Y-74883255D01*
X167370624Y-74625741D01*
X167391928Y-74518638D01*
X167875001Y-75001712D01*
X167875000Y-81686061D01*
X167875000Y-81889939D01*
X167884969Y-81940058D01*
X167889976Y-81990894D01*
X167904804Y-82039774D01*
X167914774Y-82089898D01*
X167934332Y-82137116D01*
X167949159Y-82185992D01*
X167973237Y-82231039D01*
X167992795Y-82278256D01*
X168021186Y-82320747D01*
X168045266Y-82365797D01*
X168077672Y-82405284D01*
X168106063Y-82447774D01*
X168142197Y-82483908D01*
X168174604Y-82523396D01*
X168214092Y-82555803D01*
X168250226Y-82591937D01*
X168292716Y-82620328D01*
X168332203Y-82652734D01*
X168377254Y-82676814D01*
X168419744Y-82705205D01*
X168466958Y-82724762D01*
X168512007Y-82748841D01*
X168560887Y-82763669D01*
X168608102Y-82783226D01*
X168658223Y-82793196D01*
X168707105Y-82808024D01*
X168757943Y-82813031D01*
X168808061Y-82823000D01*
X168859162Y-82823000D01*
X168910000Y-82828007D01*
X168960838Y-82823000D01*
X169011939Y-82823000D01*
X169062058Y-82813031D01*
X169112894Y-82808024D01*
X169161774Y-82793196D01*
X169211898Y-82783226D01*
X169259116Y-82763668D01*
X169307992Y-82748841D01*
X169353039Y-82724763D01*
X169385576Y-82711286D01*
X172339000Y-85664711D01*
X172339000Y-85735592D01*
X172392686Y-86005490D01*
X172497995Y-86259727D01*
X172650880Y-86488535D01*
X172845465Y-86683120D01*
X173074273Y-86836005D01*
X173328510Y-86941314D01*
X173598408Y-86995000D01*
X173873592Y-86995000D01*
X174143490Y-86941314D01*
X174397727Y-86836005D01*
X174626535Y-86683120D01*
X174821120Y-86488535D01*
X174974005Y-86259727D01*
X175079314Y-86005490D01*
X175133000Y-85735592D01*
X175133000Y-85460408D01*
X175079314Y-85190510D01*
X174974005Y-84936273D01*
X174821120Y-84707465D01*
X174626535Y-84512880D01*
X174397727Y-84359995D01*
X174320485Y-84328000D01*
X174397727Y-84296005D01*
X174626535Y-84143120D01*
X174821120Y-83948535D01*
X174974005Y-83719727D01*
X175079314Y-83465490D01*
X175133000Y-83195592D01*
X175133000Y-82920408D01*
X175079314Y-82650510D01*
X174974005Y-82396273D01*
X174821120Y-82167465D01*
X174626535Y-81972880D01*
X174397727Y-81819995D01*
X174326057Y-81790308D01*
X174339023Y-81785636D01*
X174454980Y-81723656D01*
X174521960Y-81483565D01*
X173736000Y-80697605D01*
X172950040Y-81483565D01*
X173017020Y-81723656D01*
X173152760Y-81787485D01*
X173074273Y-81819995D01*
X172845465Y-81972880D01*
X172650880Y-82167465D01*
X172497995Y-82396273D01*
X172392686Y-82650510D01*
X172369381Y-82767671D01*
X170945010Y-81343300D01*
X170945010Y-80590017D01*
X172334090Y-80590017D01*
X172375078Y-80862133D01*
X172468364Y-81121023D01*
X172530344Y-81236980D01*
X172770435Y-81303960D01*
X173556395Y-80518000D01*
X173915605Y-80518000D01*
X174701565Y-81303960D01*
X174941656Y-81236980D01*
X175058756Y-80987952D01*
X175125023Y-80720865D01*
X175137910Y-80445983D01*
X175096922Y-80173867D01*
X175003636Y-79914977D01*
X174941656Y-79799020D01*
X174701565Y-79732040D01*
X173915605Y-80518000D01*
X173556395Y-80518000D01*
X172770435Y-79732040D01*
X172530344Y-79799020D01*
X172413244Y-80048048D01*
X172346977Y-80315135D01*
X172334090Y-80590017D01*
X170945010Y-80590017D01*
X170945010Y-80155360D01*
X170959744Y-80165205D01*
X171006962Y-80184763D01*
X171052008Y-80208841D01*
X171100884Y-80223668D01*
X171148102Y-80243226D01*
X171198226Y-80253196D01*
X171247106Y-80268024D01*
X171297942Y-80273031D01*
X171348061Y-80283000D01*
X171399162Y-80283000D01*
X171450000Y-80288007D01*
X171500838Y-80283000D01*
X171551939Y-80283000D01*
X171602057Y-80273031D01*
X171652895Y-80268024D01*
X171701777Y-80253196D01*
X171751898Y-80243226D01*
X171799113Y-80223669D01*
X171847993Y-80208841D01*
X171893042Y-80184762D01*
X171940256Y-80165205D01*
X171982746Y-80136814D01*
X172027797Y-80112734D01*
X172067284Y-80080328D01*
X172109774Y-80051937D01*
X172145908Y-80015803D01*
X172185396Y-79983396D01*
X172217803Y-79943908D01*
X172253937Y-79907774D01*
X172282328Y-79865284D01*
X172314734Y-79825797D01*
X172338814Y-79780746D01*
X172367205Y-79738256D01*
X172386762Y-79691042D01*
X172410841Y-79645993D01*
X172425669Y-79597113D01*
X172445226Y-79549898D01*
X172455196Y-79499777D01*
X172470024Y-79450895D01*
X172475031Y-79400057D01*
X172485000Y-79349939D01*
X172485000Y-78608354D01*
X172497995Y-78639727D01*
X172650880Y-78868535D01*
X172845465Y-79063120D01*
X173074273Y-79216005D01*
X173145943Y-79245692D01*
X173132977Y-79250364D01*
X173017020Y-79312344D01*
X172950040Y-79552435D01*
X173736000Y-80338395D01*
X174521960Y-79552435D01*
X174454980Y-79312344D01*
X174319240Y-79248515D01*
X174397727Y-79216005D01*
X174626535Y-79063120D01*
X174821120Y-78868535D01*
X174974005Y-78639727D01*
X175079314Y-78385490D01*
X175133000Y-78115592D01*
X175133000Y-77840408D01*
X175079314Y-77570510D01*
X174974005Y-77316273D01*
X174821120Y-77087465D01*
X174626535Y-76892880D01*
X174397727Y-76739995D01*
X174320485Y-76708000D01*
X174397727Y-76676005D01*
X174626535Y-76523120D01*
X174821120Y-76328535D01*
X174974005Y-76099727D01*
X175079314Y-75845490D01*
X175133000Y-75575592D01*
X175133000Y-75300408D01*
X175079314Y-75030510D01*
X174974005Y-74776273D01*
X174821120Y-74547465D01*
X174626535Y-74352880D01*
X174397727Y-74199995D01*
X174320485Y-74168000D01*
X174397727Y-74136005D01*
X174626535Y-73983120D01*
X174821120Y-73788535D01*
X174974005Y-73559727D01*
X175079314Y-73305490D01*
X175133000Y-73035592D01*
X175133000Y-72760408D01*
X175079314Y-72490510D01*
X174974005Y-72236273D01*
X174821120Y-72007465D01*
X174626535Y-71812880D01*
X174397727Y-71659995D01*
X174320485Y-71628000D01*
X174397727Y-71596005D01*
X174626535Y-71443120D01*
X174821120Y-71248535D01*
X174974005Y-71019727D01*
X175079314Y-70765490D01*
X175133000Y-70495592D01*
X175133000Y-70220408D01*
X175079314Y-69950510D01*
X174974005Y-69696273D01*
X174821120Y-69467465D01*
X174626535Y-69272880D01*
X174397727Y-69119995D01*
X174320485Y-69088000D01*
X174397727Y-69056005D01*
X174626535Y-68903120D01*
X174821120Y-68708535D01*
X174974005Y-68479727D01*
X175079314Y-68225490D01*
X175133000Y-67955592D01*
X175133000Y-67680408D01*
X175079314Y-67410510D01*
X174974005Y-67156273D01*
X174821120Y-66927465D01*
X174626535Y-66732880D01*
X174397727Y-66579995D01*
X174320485Y-66548000D01*
X174397727Y-66516005D01*
X174626535Y-66363120D01*
X174821120Y-66168535D01*
X174974005Y-65939727D01*
X175079314Y-65685490D01*
X175133000Y-65415592D01*
X175133000Y-65140408D01*
X175079314Y-64870510D01*
X174974005Y-64616273D01*
X174821120Y-64387465D01*
X174626535Y-64192880D01*
X174397727Y-64039995D01*
X174143490Y-63934686D01*
X173873592Y-63881000D01*
X173598408Y-63881000D01*
X173328510Y-63934686D01*
X173074273Y-64039995D01*
X172845465Y-64192880D01*
X172650880Y-64387465D01*
X172497995Y-64616273D01*
X172392686Y-64870510D01*
X172339000Y-65140408D01*
X172339000Y-65415592D01*
X172392686Y-65685490D01*
X172497995Y-65939727D01*
X172650880Y-66168535D01*
X172845465Y-66363120D01*
X173074273Y-66516005D01*
X173151515Y-66548000D01*
X173074273Y-66579995D01*
X172845465Y-66732880D01*
X172650880Y-66927465D01*
X172497995Y-67156273D01*
X172392686Y-67410510D01*
X172339000Y-67680408D01*
X172339000Y-67955592D01*
X172392686Y-68225490D01*
X172497995Y-68479727D01*
X172650880Y-68708535D01*
X172845465Y-68903120D01*
X173074273Y-69056005D01*
X173151515Y-69088000D01*
X173074273Y-69119995D01*
X172845465Y-69272880D01*
X172650880Y-69467465D01*
X172497995Y-69696273D01*
X172392686Y-69950510D01*
X172369381Y-70067671D01*
X168358797Y-66057087D01*
X168326386Y-66017594D01*
X168168787Y-65888256D01*
X167988983Y-65792149D01*
X167793885Y-65732966D01*
X167641828Y-65717990D01*
X167641818Y-65717990D01*
X167590990Y-65712984D01*
X167540162Y-65717990D01*
X151879705Y-65717990D01*
X151888964Y-65695636D01*
X151913040Y-65650593D01*
X151927865Y-65601722D01*
X151947426Y-65554498D01*
X151957397Y-65504368D01*
X151972223Y-65455495D01*
X151977230Y-65404664D01*
X151987200Y-65354539D01*
X151987200Y-65303435D01*
X151992207Y-65252600D01*
X151987200Y-65201765D01*
X151987200Y-65150661D01*
X151977230Y-65100536D01*
X151972223Y-65049705D01*
X151957397Y-65000832D01*
X151947426Y-64950702D01*
X151927866Y-64903480D01*
X151913040Y-64854606D01*
X151888962Y-64809559D01*
X151869405Y-64762344D01*
X151841016Y-64719856D01*
X151816934Y-64674802D01*
X151784525Y-64635312D01*
X151756137Y-64592826D01*
X151611974Y-64448663D01*
X149875406Y-62712096D01*
X149842995Y-62672603D01*
X149685396Y-62543265D01*
X149505592Y-62447158D01*
X149310494Y-62387975D01*
X149158437Y-62372999D01*
X149158427Y-62372999D01*
X149107599Y-62367993D01*
X149056771Y-62372999D01*
X136540828Y-62372999D01*
X136490000Y-62367993D01*
X136439172Y-62372999D01*
X136439163Y-62372999D01*
X136287106Y-62387975D01*
X136092008Y-62447158D01*
X136008310Y-62491895D01*
X135912203Y-62543265D01*
X135794093Y-62640196D01*
X135754605Y-62672603D01*
X135722198Y-62712091D01*
X134264000Y-64170290D01*
X134264000Y-57945872D01*
X136195000Y-57945872D01*
X136195000Y-58386128D01*
X136280890Y-58817925D01*
X136449369Y-59224669D01*
X136693962Y-59590729D01*
X137005271Y-59902038D01*
X137371331Y-60146631D01*
X137778075Y-60315110D01*
X138209872Y-60401000D01*
X138650128Y-60401000D01*
X139081925Y-60315110D01*
X139488669Y-60146631D01*
X139854729Y-59902038D01*
X140166038Y-59590729D01*
X140410631Y-59224669D01*
X140579110Y-58817925D01*
X140665000Y-58386128D01*
X140665000Y-57945872D01*
X171247000Y-57945872D01*
X171247000Y-58386128D01*
X171332890Y-58817925D01*
X171501369Y-59224669D01*
X171745962Y-59590729D01*
X172057271Y-59902038D01*
X172423331Y-60146631D01*
X172830075Y-60315110D01*
X173261872Y-60401000D01*
X173702128Y-60401000D01*
X174133925Y-60315110D01*
X174540669Y-60146631D01*
X174906729Y-59902038D01*
X175218038Y-59590729D01*
X175462631Y-59224669D01*
X175631110Y-58817925D01*
X175717000Y-58386128D01*
X175717000Y-57945872D01*
X175631110Y-57514075D01*
X175462631Y-57107331D01*
X175218038Y-56741271D01*
X174906729Y-56429962D01*
X174540669Y-56185369D01*
X174133925Y-56016890D01*
X173702128Y-55931000D01*
X173261872Y-55931000D01*
X172830075Y-56016890D01*
X172423331Y-56185369D01*
X172057271Y-56429962D01*
X171745962Y-56741271D01*
X171501369Y-57107331D01*
X171332890Y-57514075D01*
X171247000Y-57945872D01*
X140665000Y-57945872D01*
X140579110Y-57514075D01*
X140410631Y-57107331D01*
X140166038Y-56741271D01*
X139854729Y-56429962D01*
X139488669Y-56185369D01*
X139081925Y-56016890D01*
X138650128Y-55931000D01*
X138209872Y-55931000D01*
X137778075Y-56016890D01*
X137371331Y-56185369D01*
X137005271Y-56429962D01*
X136693962Y-56741271D01*
X136449369Y-57107331D01*
X136280890Y-57514075D01*
X136195000Y-57945872D01*
X134264000Y-57945872D01*
X134264000Y-55016000D01*
X177140000Y-55016000D01*
X177140001Y-59657572D01*
G37*
X177140001Y-59657572D02*
X177140000Y-59657582D01*
X177140001Y-149319581D01*
X177140000Y-156058000D01*
X134264000Y-156058000D01*
X134264000Y-152179872D01*
X136195000Y-152179872D01*
X136195000Y-152620128D01*
X136280890Y-153051925D01*
X136449369Y-153458669D01*
X136693962Y-153824729D01*
X137005271Y-154136038D01*
X137371331Y-154380631D01*
X137778075Y-154549110D01*
X138209872Y-154635000D01*
X138650128Y-154635000D01*
X139081925Y-154549110D01*
X139488669Y-154380631D01*
X139854729Y-154136038D01*
X140166038Y-153824729D01*
X140410631Y-153458669D01*
X140579110Y-153051925D01*
X140651524Y-152687872D01*
X171247000Y-152687872D01*
X171247000Y-153128128D01*
X171332890Y-153559925D01*
X171501369Y-153966669D01*
X171745962Y-154332729D01*
X172057271Y-154644038D01*
X172423331Y-154888631D01*
X172830075Y-155057110D01*
X173261872Y-155143000D01*
X173702128Y-155143000D01*
X174133925Y-155057110D01*
X174540669Y-154888631D01*
X174906729Y-154644038D01*
X175218038Y-154332729D01*
X175462631Y-153966669D01*
X175631110Y-153559925D01*
X175717000Y-153128128D01*
X175717000Y-152687872D01*
X175631110Y-152256075D01*
X175462631Y-151849331D01*
X175218038Y-151483271D01*
X174906729Y-151171962D01*
X174540669Y-150927369D01*
X174133925Y-150758890D01*
X173702128Y-150673000D01*
X173261872Y-150673000D01*
X172830075Y-150758890D01*
X172423331Y-150927369D01*
X172057271Y-151171962D01*
X171745962Y-151483271D01*
X171501369Y-151849331D01*
X171332890Y-152256075D01*
X171247000Y-152687872D01*
X140651524Y-152687872D01*
X140665000Y-152620128D01*
X140665000Y-152179872D01*
X140579110Y-151748075D01*
X140410631Y-151341331D01*
X140166038Y-150975271D01*
X139854729Y-150663962D01*
X139488669Y-150419369D01*
X139081925Y-150250890D01*
X138650128Y-150165000D01*
X138209872Y-150165000D01*
X137778075Y-150250890D01*
X137371331Y-150419369D01*
X137005271Y-150663962D01*
X136693962Y-150975271D01*
X136449369Y-151341331D01*
X136280890Y-151748075D01*
X136195000Y-152179872D01*
X134264000Y-152179872D01*
X134264000Y-144502000D01*
X137053928Y-144502000D01*
X137066188Y-144626482D01*
X137102498Y-144746180D01*
X137161463Y-144856494D01*
X137240815Y-144953185D01*
X137337506Y-145032537D01*
X137447820Y-145091502D01*
X137567518Y-145127812D01*
X137692000Y-145140072D01*
X138906250Y-145137000D01*
X139065000Y-144978250D01*
X139065000Y-143129000D01*
X139319000Y-143129000D01*
X139319000Y-144978250D01*
X139477750Y-145137000D01*
X140692000Y-145140072D01*
X140816482Y-145127812D01*
X140936180Y-145091502D01*
X141046494Y-145032537D01*
X141143185Y-144953185D01*
X141222537Y-144856494D01*
X141281502Y-144746180D01*
X141317812Y-144626482D01*
X141330072Y-144502000D01*
X141327000Y-143287750D01*
X141168250Y-143129000D01*
X139319000Y-143129000D01*
X139065000Y-143129000D01*
X137215750Y-143129000D01*
X137057000Y-143287750D01*
X137053928Y-144502000D01*
X134264000Y-144502000D01*
X134264000Y-141502000D01*
X137053928Y-141502000D01*
X137057000Y-142716250D01*
X137215750Y-142875000D01*
X139065000Y-142875000D01*
X139065000Y-141025750D01*
X139319000Y-141025750D01*
X139319000Y-142875000D01*
X141168250Y-142875000D01*
X141251529Y-142791721D01*
X142137000Y-142791721D01*
X142137000Y-143212279D01*
X142219047Y-143624756D01*
X142379988Y-144013302D01*
X142613637Y-144362983D01*
X142911017Y-144660363D01*
X143260698Y-144894012D01*
X143649244Y-145054953D01*
X144061721Y-145137000D01*
X144482279Y-145137000D01*
X144894756Y-145054953D01*
X145283302Y-144894012D01*
X145632983Y-144660363D01*
X145930363Y-144362983D01*
X146164012Y-144013302D01*
X146324953Y-143624756D01*
X146407000Y-143212279D01*
X146407000Y-142791721D01*
X146324953Y-142379244D01*
X146164012Y-141990698D01*
X145930363Y-141641017D01*
X145632983Y-141343637D01*
X145283302Y-141109988D01*
X144894756Y-140949047D01*
X144482279Y-140867000D01*
X144061721Y-140867000D01*
X143649244Y-140949047D01*
X143260698Y-141109988D01*
X142911017Y-141343637D01*
X142613637Y-141641017D01*
X142379988Y-141990698D01*
X142219047Y-142379244D01*
X142137000Y-142791721D01*
X141251529Y-142791721D01*
X141327000Y-142716250D01*
X141330072Y-141502000D01*
X141317812Y-141377518D01*
X141281502Y-141257820D01*
X141222537Y-141147506D01*
X141143185Y-141050815D01*
X141046494Y-140971463D01*
X140936180Y-140912498D01*
X140816482Y-140876188D01*
X140692000Y-140863928D01*
X139477750Y-140867000D01*
X139319000Y-141025750D01*
X139065000Y-141025750D01*
X138906250Y-140867000D01*
X137692000Y-140863928D01*
X137567518Y-140876188D01*
X137447820Y-140912498D01*
X137337506Y-140971463D01*
X137240815Y-141050815D01*
X137161463Y-141147506D01*
X137102498Y-141257820D01*
X137066188Y-141377518D01*
X137053928Y-141502000D01*
X134264000Y-141502000D01*
X134264000Y-125767000D01*
X136687928Y-125767000D01*
X136687928Y-127217000D01*
X136704992Y-127390254D01*
X136755528Y-127556850D01*
X136837595Y-127710386D01*
X136948038Y-127844962D01*
X137082614Y-127955405D01*
X137141000Y-127986613D01*
X137141001Y-131775162D01*
X137135994Y-131826000D01*
X137155977Y-132028895D01*
X137215160Y-132223993D01*
X137311266Y-132403797D01*
X137408197Y-132521907D01*
X137440605Y-132561396D01*
X137480093Y-132593803D01*
X147293487Y-142407198D01*
X147217000Y-142791721D01*
X147217000Y-143212279D01*
X147299047Y-143624756D01*
X147459988Y-144013302D01*
X147693637Y-144362983D01*
X147991017Y-144660363D01*
X148340698Y-144894012D01*
X148729244Y-145054953D01*
X149141721Y-145137000D01*
X149562279Y-145137000D01*
X149974756Y-145054953D01*
X150363302Y-144894012D01*
X150712983Y-144660363D01*
X151010363Y-144362983D01*
X151244012Y-144013302D01*
X151404953Y-143624756D01*
X151473529Y-143280000D01*
X154325928Y-143280000D01*
X154325928Y-146280000D01*
X154338188Y-146404482D01*
X154374498Y-146524180D01*
X154433463Y-146634494D01*
X154512815Y-146731185D01*
X154609506Y-146810537D01*
X154719820Y-146869502D01*
X154839518Y-146905812D01*
X154964000Y-146918072D01*
X157964000Y-146918072D01*
X158088482Y-146905812D01*
X158208180Y-146869502D01*
X158318494Y-146810537D01*
X158415185Y-146731185D01*
X158494537Y-146634494D01*
X158553502Y-146524180D01*
X158589812Y-146404482D01*
X158602072Y-146280000D01*
X158602072Y-143485059D01*
X160409001Y-141678131D01*
X160409001Y-142970640D01*
X160183017Y-143121637D01*
X159885637Y-143419017D01*
X159651988Y-143768698D01*
X159491047Y-144157244D01*
X159409000Y-144569721D01*
X159409000Y-144990279D01*
X159491047Y-145402756D01*
X159651988Y-145791302D01*
X159885637Y-146140983D01*
X160183017Y-146438363D01*
X160532698Y-146672012D01*
X160921244Y-146832953D01*
X161333721Y-146915000D01*
X161754279Y-146915000D01*
X162166756Y-146832953D01*
X162555302Y-146672012D01*
X162904983Y-146438363D01*
X163202363Y-146140983D01*
X163436012Y-145791302D01*
X163596953Y-145402756D01*
X163679000Y-144990279D01*
X163679000Y-144569721D01*
X163596953Y-144157244D01*
X163436012Y-143768698D01*
X163202363Y-143419017D01*
X162904983Y-143121637D01*
X162679000Y-142970640D01*
X162679000Y-141948131D01*
X166505001Y-138122132D01*
X166505000Y-142641928D01*
X166140000Y-142641928D01*
X166015518Y-142654188D01*
X165895820Y-142690498D01*
X165785506Y-142749463D01*
X165688815Y-142828815D01*
X165609463Y-142925506D01*
X165550498Y-143035820D01*
X165514188Y-143155518D01*
X165501928Y-143280000D01*
X165501928Y-146280000D01*
X165514188Y-146404482D01*
X165550498Y-146524180D01*
X165609463Y-146634494D01*
X165688815Y-146731185D01*
X165785506Y-146810537D01*
X165895820Y-146869502D01*
X166015518Y-146905812D01*
X166140000Y-146918072D01*
X169140000Y-146918072D01*
X169264482Y-146905812D01*
X169384180Y-146869502D01*
X169494494Y-146810537D01*
X169591185Y-146731185D01*
X169670537Y-146634494D01*
X169729502Y-146524180D01*
X169765812Y-146404482D01*
X169778072Y-146280000D01*
X169778072Y-143280000D01*
X169765812Y-143155518D01*
X169729502Y-143035820D01*
X169670537Y-142925506D01*
X169591185Y-142828815D01*
X169494494Y-142749463D01*
X169384180Y-142690498D01*
X169264482Y-142654188D01*
X169140000Y-142641928D01*
X168775000Y-142641928D01*
X168775000Y-138392131D01*
X169135647Y-138031485D01*
X169317490Y-137995314D01*
X169571727Y-137890005D01*
X169800535Y-137737120D01*
X169995120Y-137542535D01*
X170148005Y-137313727D01*
X170180000Y-137236485D01*
X170211995Y-137313727D01*
X170364880Y-137542535D01*
X170559465Y-137737120D01*
X170788273Y-137890005D01*
X171042510Y-137995314D01*
X171224353Y-138031485D01*
X171585001Y-138392133D01*
X171585000Y-142970640D01*
X171359017Y-143121637D01*
X171061637Y-143419017D01*
X170827988Y-143768698D01*
X170667047Y-144157244D01*
X170585000Y-144569721D01*
X170585000Y-144990279D01*
X170667047Y-145402756D01*
X170827988Y-145791302D01*
X171061637Y-146140983D01*
X171359017Y-146438363D01*
X171708698Y-146672012D01*
X172097244Y-146832953D01*
X172509721Y-146915000D01*
X172930279Y-146915000D01*
X173342756Y-146832953D01*
X173731302Y-146672012D01*
X174080983Y-146438363D01*
X174378363Y-146140983D01*
X174612012Y-145791302D01*
X174772953Y-145402756D01*
X174855000Y-144990279D01*
X174855000Y-144569721D01*
X174772953Y-144157244D01*
X174612012Y-143768698D01*
X174378363Y-143419017D01*
X174080983Y-143121637D01*
X173855000Y-142970640D01*
X173855000Y-138044205D01*
X174062017Y-138053910D01*
X174334133Y-138012922D01*
X174593023Y-137919636D01*
X174708980Y-137857656D01*
X174775960Y-137617565D01*
X173990000Y-136831605D01*
X173975858Y-136845748D01*
X173796253Y-136666143D01*
X173810395Y-136652000D01*
X174169605Y-136652000D01*
X174955565Y-137437960D01*
X175195656Y-137370980D01*
X175312756Y-137121952D01*
X175379023Y-136854865D01*
X175391910Y-136579983D01*
X175350922Y-136307867D01*
X175257636Y-136048977D01*
X175195656Y-135933020D01*
X174955565Y-135866040D01*
X174169605Y-136652000D01*
X173810395Y-136652000D01*
X173024435Y-135866040D01*
X172784344Y-135933020D01*
X172720515Y-136068760D01*
X172688005Y-135990273D01*
X172535120Y-135761465D01*
X172460090Y-135686435D01*
X173204040Y-135686435D01*
X173990000Y-136472395D01*
X174775960Y-135686435D01*
X174708980Y-135446344D01*
X174459952Y-135329244D01*
X174192865Y-135262977D01*
X173917983Y-135250090D01*
X173645867Y-135291078D01*
X173386977Y-135384364D01*
X173271020Y-135446344D01*
X173204040Y-135686435D01*
X172460090Y-135686435D01*
X172340535Y-135566880D01*
X172111727Y-135413995D01*
X171857490Y-135308686D01*
X171587592Y-135255000D01*
X171312408Y-135255000D01*
X171042510Y-135308686D01*
X170788273Y-135413995D01*
X170559465Y-135566880D01*
X170364880Y-135761465D01*
X170211995Y-135990273D01*
X170180000Y-136067515D01*
X170148005Y-135990273D01*
X169995120Y-135761465D01*
X169800535Y-135566880D01*
X169571727Y-135413995D01*
X169317490Y-135308686D01*
X169047592Y-135255000D01*
X168772408Y-135255000D01*
X168502510Y-135308686D01*
X168248273Y-135413995D01*
X168019465Y-135566880D01*
X167824880Y-135761465D01*
X167671995Y-135990273D01*
X167640000Y-136067515D01*
X167608005Y-135990273D01*
X167455120Y-135761465D01*
X167260535Y-135566880D01*
X167031727Y-135413995D01*
X166777490Y-135308686D01*
X166507592Y-135255000D01*
X166232408Y-135255000D01*
X165962510Y-135308686D01*
X165708273Y-135413995D01*
X165479465Y-135566880D01*
X165284880Y-135761465D01*
X165131995Y-135990273D01*
X165100000Y-136067515D01*
X165068005Y-135990273D01*
X164915120Y-135761465D01*
X164720535Y-135566880D01*
X164491727Y-135413995D01*
X164237490Y-135308686D01*
X163967592Y-135255000D01*
X163692408Y-135255000D01*
X163422510Y-135308686D01*
X163168273Y-135413995D01*
X162939465Y-135566880D01*
X162744880Y-135761465D01*
X162591995Y-135990273D01*
X162562308Y-136061943D01*
X162557636Y-136048977D01*
X162495656Y-135933020D01*
X162255565Y-135866040D01*
X161469605Y-136652000D01*
X161483748Y-136666143D01*
X161304143Y-136845748D01*
X161290000Y-136831605D01*
X160504040Y-137617565D01*
X160571020Y-137857656D01*
X160820048Y-137974756D01*
X160885799Y-137991069D01*
X156234941Y-142641928D01*
X154964000Y-142641928D01*
X154839518Y-142654188D01*
X154719820Y-142690498D01*
X154609506Y-142749463D01*
X154512815Y-142828815D01*
X154433463Y-142925506D01*
X154374498Y-143035820D01*
X154338188Y-143155518D01*
X154325928Y-143280000D01*
X151473529Y-143280000D01*
X151487000Y-143212279D01*
X151487000Y-142791721D01*
X151404953Y-142379244D01*
X151244012Y-141990698D01*
X151010363Y-141641017D01*
X150712983Y-141343637D01*
X150363302Y-141109988D01*
X149974756Y-140949047D01*
X149562279Y-140867000D01*
X149141721Y-140867000D01*
X148757198Y-140943487D01*
X139211000Y-131397290D01*
X139211000Y-128990710D01*
X147568197Y-137347908D01*
X147600604Y-137387396D01*
X147640092Y-137419803D01*
X147758202Y-137516734D01*
X147806473Y-137542535D01*
X147938007Y-137612841D01*
X148133105Y-137672024D01*
X148285162Y-137687000D01*
X148285165Y-137687000D01*
X148336000Y-137692007D01*
X148386835Y-137687000D01*
X155269345Y-137687000D01*
X155319465Y-137737120D01*
X155548273Y-137890005D01*
X155802510Y-137995314D01*
X156072408Y-138049000D01*
X156347592Y-138049000D01*
X156617490Y-137995314D01*
X156871727Y-137890005D01*
X157100535Y-137737120D01*
X157295120Y-137542535D01*
X157448005Y-137313727D01*
X157480000Y-137236485D01*
X157511995Y-137313727D01*
X157664880Y-137542535D01*
X157859465Y-137737120D01*
X158088273Y-137890005D01*
X158342510Y-137995314D01*
X158612408Y-138049000D01*
X158887592Y-138049000D01*
X159157490Y-137995314D01*
X159411727Y-137890005D01*
X159640535Y-137737120D01*
X159835120Y-137542535D01*
X159988005Y-137313727D01*
X160017692Y-137242057D01*
X160022364Y-137255023D01*
X160084344Y-137370980D01*
X160324435Y-137437960D01*
X161110395Y-136652000D01*
X160324435Y-135866040D01*
X160084344Y-135933020D01*
X160020515Y-136068760D01*
X159988005Y-135990273D01*
X159835120Y-135761465D01*
X159760090Y-135686435D01*
X160504040Y-135686435D01*
X161290000Y-136472395D01*
X162075960Y-135686435D01*
X162008980Y-135446344D01*
X161759952Y-135329244D01*
X161492865Y-135262977D01*
X161217983Y-135250090D01*
X160945867Y-135291078D01*
X160686977Y-135384364D01*
X160571020Y-135446344D01*
X160504040Y-135686435D01*
X159760090Y-135686435D01*
X159640535Y-135566880D01*
X159411727Y-135413995D01*
X159157490Y-135308686D01*
X158887592Y-135255000D01*
X158612408Y-135255000D01*
X158342510Y-135308686D01*
X158088273Y-135413995D01*
X157859465Y-135566880D01*
X157664880Y-135761465D01*
X157511995Y-135990273D01*
X157480000Y-136067515D01*
X157448005Y-135990273D01*
X157295120Y-135761465D01*
X157100535Y-135566880D01*
X156871727Y-135413995D01*
X156617490Y-135308686D01*
X156347592Y-135255000D01*
X156072408Y-135255000D01*
X155802510Y-135308686D01*
X155548273Y-135413995D01*
X155319465Y-135566880D01*
X155269345Y-135617000D01*
X148764711Y-135617000D01*
X141167451Y-128019740D01*
X141247034Y-127995599D01*
X141505014Y-127857706D01*
X141731134Y-127672134D01*
X141916706Y-127446014D01*
X141930462Y-127420278D01*
X142086951Y-127626429D01*
X142304807Y-127819496D01*
X142556142Y-127966352D01*
X142819110Y-128058476D01*
X143049000Y-127937155D01*
X143049000Y-126619000D01*
X143303000Y-126619000D01*
X143303000Y-127937155D01*
X143532890Y-128058476D01*
X143795858Y-127966352D01*
X144047193Y-127819496D01*
X144265049Y-127626429D01*
X144441053Y-127394570D01*
X144568442Y-127132830D01*
X144642320Y-126851267D01*
X144502165Y-126619000D01*
X143303000Y-126619000D01*
X143049000Y-126619000D01*
X143029000Y-126619000D01*
X143029000Y-126365000D01*
X143049000Y-126365000D01*
X143049000Y-125046845D01*
X143303000Y-125046845D01*
X143303000Y-126365000D01*
X144502165Y-126365000D01*
X144642320Y-126132733D01*
X144568442Y-125851170D01*
X144441053Y-125589430D01*
X144265049Y-125357571D01*
X144047193Y-125164504D01*
X143795858Y-125017648D01*
X143532890Y-124925524D01*
X143303000Y-125046845D01*
X143049000Y-125046845D01*
X142819110Y-124925524D01*
X142556142Y-125017648D01*
X142304807Y-125164504D01*
X142086951Y-125357571D01*
X141930462Y-125563722D01*
X141916706Y-125537986D01*
X141731134Y-125311866D01*
X141505013Y-125126294D01*
X141247033Y-124988401D01*
X140967110Y-124903487D01*
X140676000Y-124874815D01*
X140384889Y-124903487D01*
X140104966Y-124988401D01*
X139846986Y-125126294D01*
X139620866Y-125311866D01*
X139568777Y-125375337D01*
X139514405Y-125273614D01*
X139403962Y-125139038D01*
X139269386Y-125028595D01*
X139115850Y-124946528D01*
X138949254Y-124895992D01*
X138776000Y-124878928D01*
X137576000Y-124878928D01*
X137402746Y-124895992D01*
X137236150Y-124946528D01*
X137082614Y-125028595D01*
X136948038Y-125139038D01*
X136837595Y-125273614D01*
X136755528Y-125427150D01*
X136704992Y-125593746D01*
X136687928Y-125767000D01*
X134264000Y-125767000D01*
X134264000Y-91082791D01*
X134605912Y-91424703D01*
X134638323Y-91464196D01*
X134712490Y-91525063D01*
X134795921Y-91593534D01*
X134869930Y-91633092D01*
X134975726Y-91689641D01*
X135170824Y-91748824D01*
X135322881Y-91763800D01*
X135322890Y-91763800D01*
X135373718Y-91768806D01*
X135424546Y-91763800D01*
X135510693Y-91763800D01*
X135629168Y-91882275D01*
X135803560Y-91998800D01*
X135629168Y-92115325D01*
X135422325Y-92322168D01*
X135259810Y-92565389D01*
X135147868Y-92835642D01*
X135090800Y-93122540D01*
X135090800Y-93415060D01*
X135147868Y-93701958D01*
X135259810Y-93972211D01*
X135422325Y-94215432D01*
X135629168Y-94422275D01*
X135803560Y-94538800D01*
X135629168Y-94655325D01*
X135422325Y-94862168D01*
X135259810Y-95105389D01*
X135147868Y-95375642D01*
X135090800Y-95662540D01*
X135090800Y-95955060D01*
X135147868Y-96241958D01*
X135259810Y-96512211D01*
X135422325Y-96755432D01*
X135629168Y-96962275D01*
X135803560Y-97078800D01*
X135629168Y-97195325D01*
X135422325Y-97402168D01*
X135259810Y-97645389D01*
X135147868Y-97915642D01*
X135090800Y-98202540D01*
X135090800Y-98495060D01*
X135147868Y-98781958D01*
X135259810Y-99052211D01*
X135422325Y-99295432D01*
X135629168Y-99502275D01*
X135803560Y-99618800D01*
X135629168Y-99735325D01*
X135422325Y-99942168D01*
X135259810Y-100185389D01*
X135147868Y-100455642D01*
X135090800Y-100742540D01*
X135090800Y-101035060D01*
X135147868Y-101321958D01*
X135259810Y-101592211D01*
X135422325Y-101835432D01*
X135629168Y-102042275D01*
X135872389Y-102204790D01*
X136142642Y-102316732D01*
X136429540Y-102373800D01*
X136722060Y-102373800D01*
X137008958Y-102316732D01*
X137232099Y-102224304D01*
X139189944Y-102224304D01*
X139231141Y-102499973D01*
X139325326Y-102762309D01*
X139389652Y-102882656D01*
X139631580Y-102951817D01*
X140430396Y-102153001D01*
X139631580Y-101354185D01*
X139389652Y-101423346D01*
X139270753Y-101675444D01*
X139203320Y-101945895D01*
X139189944Y-102224304D01*
X137232099Y-102224304D01*
X137279211Y-102204790D01*
X137522432Y-102042275D01*
X137729275Y-101835432D01*
X137891790Y-101592211D01*
X138003732Y-101321958D01*
X138060800Y-101035060D01*
X138060800Y-100742540D01*
X138003732Y-100455642D01*
X137891790Y-100185389D01*
X137729275Y-99942168D01*
X137522432Y-99735325D01*
X137348040Y-99618800D01*
X137522432Y-99502275D01*
X137640907Y-99383800D01*
X138917090Y-99383800D01*
X139195001Y-99661711D01*
X139195001Y-99752366D01*
X139249378Y-100025741D01*
X139356044Y-100283255D01*
X139510898Y-100515011D01*
X139707991Y-100712104D01*
X139939747Y-100866958D01*
X139975526Y-100881778D01*
X139880346Y-100932652D01*
X139811185Y-101174580D01*
X140610001Y-101973396D01*
X140624144Y-101959254D01*
X140803749Y-102138859D01*
X140789606Y-102153001D01*
X140803749Y-102167144D01*
X140624144Y-102346749D01*
X140610001Y-102332606D01*
X139811185Y-103131422D01*
X139880346Y-103373350D01*
X139982280Y-103421426D01*
X139939747Y-103439044D01*
X139707991Y-103593898D01*
X139510898Y-103790991D01*
X139356044Y-104022747D01*
X139249378Y-104280261D01*
X139195001Y-104553636D01*
X139195001Y-104832366D01*
X139249378Y-105105741D01*
X139356044Y-105363255D01*
X139510898Y-105595011D01*
X139707991Y-105792104D01*
X139939747Y-105946958D01*
X139978478Y-105963001D01*
X139939747Y-105979044D01*
X139707991Y-106133898D01*
X139510898Y-106330991D01*
X139356044Y-106562747D01*
X139249378Y-106820261D01*
X139195001Y-107093636D01*
X139195001Y-107372366D01*
X139249378Y-107645741D01*
X139356044Y-107903255D01*
X139510898Y-108135011D01*
X139707991Y-108332104D01*
X139939747Y-108486958D01*
X139978478Y-108503001D01*
X139939747Y-108519044D01*
X139707991Y-108673898D01*
X139510898Y-108870991D01*
X139356044Y-109102747D01*
X139249378Y-109360261D01*
X139195001Y-109633636D01*
X139195001Y-109912366D01*
X139249378Y-110185741D01*
X139356044Y-110443255D01*
X139510898Y-110675011D01*
X139707991Y-110872104D01*
X139939747Y-111026958D01*
X139978478Y-111043001D01*
X139939747Y-111059044D01*
X139707991Y-111213898D01*
X139510898Y-111410991D01*
X139356044Y-111642747D01*
X139249378Y-111900261D01*
X139195001Y-112173636D01*
X139195001Y-112452366D01*
X139249378Y-112725741D01*
X139356044Y-112983255D01*
X139510898Y-113215011D01*
X139707991Y-113412104D01*
X139939747Y-113566958D01*
X139978478Y-113583001D01*
X139939747Y-113599044D01*
X139707991Y-113753898D01*
X139510898Y-113950991D01*
X139460111Y-114027000D01*
X137717107Y-114027000D01*
X137598632Y-113908525D01*
X137424240Y-113792000D01*
X137598632Y-113675475D01*
X137805475Y-113468632D01*
X137967990Y-113225411D01*
X138079932Y-112955158D01*
X138137000Y-112668260D01*
X138137000Y-112375740D01*
X138079932Y-112088842D01*
X137967990Y-111818589D01*
X137805475Y-111575368D01*
X137598632Y-111368525D01*
X137355411Y-111206010D01*
X137085158Y-111094068D01*
X136798260Y-111037000D01*
X136505740Y-111037000D01*
X136218842Y-111094068D01*
X135948589Y-111206010D01*
X135705368Y-111368525D01*
X135498525Y-111575368D01*
X135336010Y-111818589D01*
X135224068Y-112088842D01*
X135167000Y-112375740D01*
X135167000Y-112668260D01*
X135224068Y-112955158D01*
X135336010Y-113225411D01*
X135498525Y-113468632D01*
X135705368Y-113675475D01*
X135879760Y-113792000D01*
X135705368Y-113908525D01*
X135498525Y-114115368D01*
X135336010Y-114358589D01*
X135224068Y-114628842D01*
X135167000Y-114915740D01*
X135167000Y-115208260D01*
X135224068Y-115495158D01*
X135336010Y-115765411D01*
X135498525Y-116008632D01*
X135630380Y-116140487D01*
X135557820Y-116162498D01*
X135447506Y-116221463D01*
X135350815Y-116300815D01*
X135271463Y-116397506D01*
X135212498Y-116507820D01*
X135176188Y-116627518D01*
X135163928Y-116752000D01*
X135163928Y-118452000D01*
X135176188Y-118576482D01*
X135212498Y-118696180D01*
X135271463Y-118806494D01*
X135350815Y-118903185D01*
X135447506Y-118982537D01*
X135557820Y-119041502D01*
X135677518Y-119077812D01*
X135802000Y-119090072D01*
X137502000Y-119090072D01*
X137626482Y-119077812D01*
X137746180Y-119041502D01*
X137856494Y-118982537D01*
X137953185Y-118903185D01*
X138032537Y-118806494D01*
X138091502Y-118696180D01*
X138127812Y-118576482D01*
X138132389Y-118530000D01*
X144307928Y-118530000D01*
X144307928Y-120230000D01*
X144320188Y-120354482D01*
X144356498Y-120474180D01*
X144415463Y-120584494D01*
X144494815Y-120681185D01*
X144591506Y-120760537D01*
X144701820Y-120819502D01*
X144821518Y-120855812D01*
X144946000Y-120868072D01*
X146646000Y-120868072D01*
X146770482Y-120855812D01*
X146890180Y-120819502D01*
X147000494Y-120760537D01*
X147097185Y-120681185D01*
X147176537Y-120584494D01*
X147235502Y-120474180D01*
X147257513Y-120401620D01*
X147389368Y-120533475D01*
X147632589Y-120695990D01*
X147902842Y-120807932D01*
X148189740Y-120865000D01*
X148482260Y-120865000D01*
X148769158Y-120807932D01*
X149039411Y-120695990D01*
X149282632Y-120533475D01*
X149489475Y-120326632D01*
X149611195Y-120144466D01*
X149680822Y-120261355D01*
X149875731Y-120477588D01*
X150109080Y-120651641D01*
X150371901Y-120776825D01*
X150519110Y-120821476D01*
X150749000Y-120700155D01*
X150749000Y-119507000D01*
X151003000Y-119507000D01*
X151003000Y-120700155D01*
X151232890Y-120821476D01*
X151380099Y-120776825D01*
X151642920Y-120651641D01*
X151876269Y-120477588D01*
X152071178Y-120261355D01*
X152220157Y-120011252D01*
X152317481Y-119736891D01*
X152196814Y-119507000D01*
X151003000Y-119507000D01*
X150749000Y-119507000D01*
X150729000Y-119507000D01*
X150729000Y-119253000D01*
X150749000Y-119253000D01*
X150749000Y-118059845D01*
X150519110Y-117938524D01*
X150371901Y-117983175D01*
X150109080Y-118108359D01*
X149875731Y-118282412D01*
X149680822Y-118498645D01*
X149611195Y-118615534D01*
X149489475Y-118433368D01*
X149282632Y-118226525D01*
X149039411Y-118064010D01*
X148769158Y-117952068D01*
X148482260Y-117895000D01*
X148189740Y-117895000D01*
X147902842Y-117952068D01*
X147632589Y-118064010D01*
X147389368Y-118226525D01*
X147257513Y-118358380D01*
X147235502Y-118285820D01*
X147176537Y-118175506D01*
X147097185Y-118078815D01*
X147000494Y-117999463D01*
X146890180Y-117940498D01*
X146770482Y-117904188D01*
X146646000Y-117891928D01*
X144946000Y-117891928D01*
X144821518Y-117904188D01*
X144701820Y-117940498D01*
X144591506Y-117999463D01*
X144494815Y-118078815D01*
X144415463Y-118175506D01*
X144356498Y-118285820D01*
X144320188Y-118405518D01*
X144307928Y-118530000D01*
X138132389Y-118530000D01*
X138140072Y-118452000D01*
X138140072Y-116752000D01*
X138127812Y-116627518D01*
X138091502Y-116507820D01*
X138032537Y-116397506D01*
X137953185Y-116300815D01*
X137856494Y-116221463D01*
X137746180Y-116162498D01*
X137673620Y-116140487D01*
X137717107Y-116097000D01*
X139924844Y-116097000D01*
X139939747Y-116106958D01*
X140197261Y-116213624D01*
X140470636Y-116268001D01*
X140749366Y-116268001D01*
X140938401Y-116230400D01*
X142673193Y-116230400D01*
X142678200Y-116281238D01*
X142678200Y-116332339D01*
X142688169Y-116382457D01*
X142693176Y-116433295D01*
X142708004Y-116482177D01*
X142717974Y-116532298D01*
X142737531Y-116579513D01*
X142752359Y-116628393D01*
X142776438Y-116673442D01*
X142795995Y-116720656D01*
X142824386Y-116763146D01*
X142848466Y-116808197D01*
X142880872Y-116847684D01*
X142909263Y-116890174D01*
X142945397Y-116926308D01*
X142977804Y-116965796D01*
X143017292Y-116998203D01*
X143053426Y-117034337D01*
X143095916Y-117062728D01*
X143135403Y-117095134D01*
X143180454Y-117119214D01*
X143222944Y-117147605D01*
X143270158Y-117167162D01*
X143315207Y-117191241D01*
X143364087Y-117206069D01*
X143411302Y-117225626D01*
X143461423Y-117235596D01*
X143510305Y-117250424D01*
X143561143Y-117255431D01*
X143611261Y-117265400D01*
X147675939Y-117265400D01*
X147726057Y-117255431D01*
X147776895Y-117250424D01*
X147825777Y-117235596D01*
X147875898Y-117225626D01*
X147923113Y-117206069D01*
X147971993Y-117191241D01*
X148017042Y-117167162D01*
X148064256Y-117147605D01*
X148106746Y-117119214D01*
X148151797Y-117095134D01*
X148191284Y-117062728D01*
X148233774Y-117034337D01*
X148269908Y-116998203D01*
X148309396Y-116965796D01*
X148341803Y-116926308D01*
X148377937Y-116890174D01*
X148406328Y-116847684D01*
X148438734Y-116808197D01*
X148462814Y-116763146D01*
X148491205Y-116720656D01*
X148510762Y-116673442D01*
X148534841Y-116628393D01*
X148549669Y-116579513D01*
X148569226Y-116532298D01*
X148579196Y-116482177D01*
X148594024Y-116433295D01*
X148599031Y-116382457D01*
X148609000Y-116332339D01*
X148609000Y-116281238D01*
X148614007Y-116230400D01*
X148609000Y-116179562D01*
X148609000Y-116128461D01*
X148599031Y-116078343D01*
X148594024Y-116027505D01*
X148579196Y-115978623D01*
X148569226Y-115928502D01*
X148549669Y-115881287D01*
X148534841Y-115832407D01*
X148510762Y-115787358D01*
X148491205Y-115740144D01*
X148462814Y-115697654D01*
X148438734Y-115652603D01*
X148406328Y-115613116D01*
X148377937Y-115570626D01*
X148341803Y-115534492D01*
X148309396Y-115495004D01*
X148269908Y-115462597D01*
X148233774Y-115426463D01*
X148191284Y-115398072D01*
X148151797Y-115365666D01*
X148106746Y-115341586D01*
X148064256Y-115313195D01*
X148017042Y-115293638D01*
X147971993Y-115269559D01*
X147923113Y-115254731D01*
X147875898Y-115235174D01*
X147825777Y-115225204D01*
X147776895Y-115210376D01*
X147726057Y-115205369D01*
X147675939Y-115195400D01*
X143611261Y-115195400D01*
X143561143Y-115205369D01*
X143510305Y-115210376D01*
X143461423Y-115225204D01*
X143411302Y-115235174D01*
X143364087Y-115254731D01*
X143315207Y-115269559D01*
X143270158Y-115293638D01*
X143222944Y-115313195D01*
X143180454Y-115341586D01*
X143135403Y-115365666D01*
X143095916Y-115398072D01*
X143053426Y-115426463D01*
X143017292Y-115462597D01*
X142977804Y-115495004D01*
X142945397Y-115534492D01*
X142909263Y-115570626D01*
X142880872Y-115613116D01*
X142848466Y-115652603D01*
X142824386Y-115697654D01*
X142795995Y-115740144D01*
X142776438Y-115787358D01*
X142752359Y-115832407D01*
X142737531Y-115881287D01*
X142717974Y-115928502D01*
X142708004Y-115978623D01*
X142693176Y-116027505D01*
X142688169Y-116078343D01*
X142678200Y-116128461D01*
X142678200Y-116179562D01*
X142673193Y-116230400D01*
X140938401Y-116230400D01*
X141022741Y-116213624D01*
X141280255Y-116106958D01*
X141512011Y-115952104D01*
X141709104Y-115755011D01*
X141863958Y-115523255D01*
X141970624Y-115265741D01*
X142025001Y-114992366D01*
X142025001Y-114713636D01*
X141970624Y-114440261D01*
X141863958Y-114182747D01*
X141709104Y-113950991D01*
X141512011Y-113753898D01*
X141280255Y-113599044D01*
X141241524Y-113583001D01*
X141280255Y-113566958D01*
X141512011Y-113412104D01*
X141709104Y-113215011D01*
X141863958Y-112983255D01*
X141970624Y-112725741D01*
X142025001Y-112452366D01*
X142025001Y-112173636D01*
X141970624Y-111900261D01*
X141863958Y-111642747D01*
X141709104Y-111410991D01*
X141512011Y-111213898D01*
X141280255Y-111059044D01*
X141241524Y-111043001D01*
X141280255Y-111026958D01*
X141512011Y-110872104D01*
X141709104Y-110675011D01*
X141863958Y-110443255D01*
X141970624Y-110185741D01*
X142025001Y-109912366D01*
X142025001Y-109633636D01*
X141970624Y-109360261D01*
X141863958Y-109102747D01*
X141709104Y-108870991D01*
X141512011Y-108673898D01*
X141280255Y-108519044D01*
X141241524Y-108503001D01*
X141280255Y-108486958D01*
X141512011Y-108332104D01*
X141589202Y-108254913D01*
X151290195Y-117955906D01*
X151232890Y-117938524D01*
X151003000Y-118059845D01*
X151003000Y-119253000D01*
X152196814Y-119253000D01*
X152317481Y-119023109D01*
X152295537Y-118961248D01*
X154813000Y-121478711D01*
X154813000Y-121549592D01*
X154866686Y-121819490D01*
X154971995Y-122073727D01*
X155124880Y-122302535D01*
X155319465Y-122497120D01*
X155548273Y-122650005D01*
X155802510Y-122755314D01*
X156072408Y-122809000D01*
X156347592Y-122809000D01*
X156617490Y-122755314D01*
X156871727Y-122650005D01*
X157100535Y-122497120D01*
X157295120Y-122302535D01*
X157448005Y-122073727D01*
X157480000Y-121996485D01*
X157511995Y-122073727D01*
X157664880Y-122302535D01*
X157859465Y-122497120D01*
X158088273Y-122650005D01*
X158342510Y-122755314D01*
X158612408Y-122809000D01*
X158887592Y-122809000D01*
X159157490Y-122755314D01*
X159411727Y-122650005D01*
X159640535Y-122497120D01*
X159835120Y-122302535D01*
X159988005Y-122073727D01*
X160020000Y-121996485D01*
X160051995Y-122073727D01*
X160204880Y-122302535D01*
X160399465Y-122497120D01*
X160628273Y-122650005D01*
X160882510Y-122755314D01*
X161152408Y-122809000D01*
X161427592Y-122809000D01*
X161697490Y-122755314D01*
X161951727Y-122650005D01*
X162180535Y-122497120D01*
X162375120Y-122302535D01*
X162528005Y-122073727D01*
X162530421Y-122067894D01*
X162570435Y-122107908D01*
X162602842Y-122147396D01*
X162642330Y-122179803D01*
X162687816Y-122217132D01*
X162744880Y-122302535D01*
X162939465Y-122497120D01*
X163168273Y-122650005D01*
X163422510Y-122755314D01*
X163692408Y-122809000D01*
X163967592Y-122809000D01*
X164237490Y-122755314D01*
X164491727Y-122650005D01*
X164720535Y-122497120D01*
X164915120Y-122302535D01*
X165068005Y-122073727D01*
X165100000Y-121996485D01*
X165131995Y-122073727D01*
X165284880Y-122302535D01*
X165479465Y-122497120D01*
X165708273Y-122650005D01*
X165962510Y-122755314D01*
X166232408Y-122809000D01*
X166507592Y-122809000D01*
X166777490Y-122755314D01*
X167031727Y-122650005D01*
X167260535Y-122497120D01*
X167455120Y-122302535D01*
X167608005Y-122073727D01*
X167640000Y-121996485D01*
X167671995Y-122073727D01*
X167824880Y-122302535D01*
X168019465Y-122497120D01*
X168248273Y-122650005D01*
X168502510Y-122755314D01*
X168772408Y-122809000D01*
X169047592Y-122809000D01*
X169317490Y-122755314D01*
X169571727Y-122650005D01*
X169800535Y-122497120D01*
X169995120Y-122302535D01*
X170148005Y-122073727D01*
X170180000Y-121996485D01*
X170211995Y-122073727D01*
X170364880Y-122302535D01*
X170559465Y-122497120D01*
X170788273Y-122650005D01*
X171042510Y-122755314D01*
X171312408Y-122809000D01*
X171587592Y-122809000D01*
X171857490Y-122755314D01*
X172111727Y-122650005D01*
X172340535Y-122497120D01*
X172460090Y-122377565D01*
X173204040Y-122377565D01*
X173271020Y-122617656D01*
X173520048Y-122734756D01*
X173787135Y-122801023D01*
X174062017Y-122813910D01*
X174334133Y-122772922D01*
X174593023Y-122679636D01*
X174708980Y-122617656D01*
X174775960Y-122377565D01*
X173990000Y-121591605D01*
X173204040Y-122377565D01*
X172460090Y-122377565D01*
X172535120Y-122302535D01*
X172688005Y-122073727D01*
X172717692Y-122002057D01*
X172722364Y-122015023D01*
X172784344Y-122130980D01*
X173024435Y-122197960D01*
X173810395Y-121412000D01*
X174169605Y-121412000D01*
X174955565Y-122197960D01*
X175195656Y-122130980D01*
X175312756Y-121881952D01*
X175379023Y-121614865D01*
X175391910Y-121339983D01*
X175350922Y-121067867D01*
X175257636Y-120808977D01*
X175195656Y-120693020D01*
X174955565Y-120626040D01*
X174169605Y-121412000D01*
X173810395Y-121412000D01*
X173024435Y-120626040D01*
X172784344Y-120693020D01*
X172720515Y-120828760D01*
X172688005Y-120750273D01*
X172535120Y-120521465D01*
X172460090Y-120446435D01*
X173204040Y-120446435D01*
X173990000Y-121232395D01*
X174775960Y-120446435D01*
X174708980Y-120206344D01*
X174459952Y-120089244D01*
X174192865Y-120022977D01*
X173917983Y-120010090D01*
X173645867Y-120051078D01*
X173386977Y-120144364D01*
X173271020Y-120206344D01*
X173204040Y-120446435D01*
X172460090Y-120446435D01*
X172340535Y-120326880D01*
X172111727Y-120173995D01*
X171857490Y-120068686D01*
X171587592Y-120015000D01*
X171516711Y-120015000D01*
X167391807Y-115890097D01*
X167359396Y-115850604D01*
X167201797Y-115721266D01*
X167150111Y-115693639D01*
X167263958Y-115523255D01*
X167370624Y-115265741D01*
X167425001Y-114992366D01*
X167425001Y-114713636D01*
X167370624Y-114440261D01*
X167263958Y-114182747D01*
X167109104Y-113950991D01*
X166912011Y-113753898D01*
X166680255Y-113599044D01*
X166641524Y-113583001D01*
X166680255Y-113566958D01*
X166912011Y-113412104D01*
X167109104Y-113215011D01*
X167263958Y-112983255D01*
X167370624Y-112725741D01*
X167425001Y-112452366D01*
X167425001Y-112173636D01*
X167370624Y-111900261D01*
X167263958Y-111642747D01*
X167109104Y-111410991D01*
X166912011Y-111213898D01*
X166680255Y-111059044D01*
X166641524Y-111043001D01*
X166680255Y-111026958D01*
X166912011Y-110872104D01*
X167109104Y-110675011D01*
X167263958Y-110443255D01*
X167370624Y-110185741D01*
X167425001Y-109912366D01*
X167425001Y-109706711D01*
X171323000Y-113604711D01*
X171323000Y-113675592D01*
X171376686Y-113945490D01*
X171481995Y-114199727D01*
X171634880Y-114428535D01*
X171829465Y-114623120D01*
X172058273Y-114776005D01*
X172312510Y-114881314D01*
X172582408Y-114935000D01*
X172857592Y-114935000D01*
X173127490Y-114881314D01*
X173381727Y-114776005D01*
X173610535Y-114623120D01*
X173805120Y-114428535D01*
X173958005Y-114199727D01*
X174063314Y-113945490D01*
X174117000Y-113675592D01*
X174117000Y-113400408D01*
X174063314Y-113130510D01*
X173958005Y-112876273D01*
X173805120Y-112647465D01*
X173610535Y-112452880D01*
X173381727Y-112299995D01*
X173304485Y-112268000D01*
X173381727Y-112236005D01*
X173610535Y-112083120D01*
X173805120Y-111888535D01*
X173958005Y-111659727D01*
X174063314Y-111405490D01*
X174117000Y-111135592D01*
X174117000Y-110860408D01*
X174063314Y-110590510D01*
X173958005Y-110336273D01*
X173805120Y-110107465D01*
X173610535Y-109912880D01*
X173381727Y-109759995D01*
X173304485Y-109728000D01*
X173381727Y-109696005D01*
X173610535Y-109543120D01*
X173805120Y-109348535D01*
X173958005Y-109119727D01*
X174063314Y-108865490D01*
X174117000Y-108595592D01*
X174117000Y-108320408D01*
X174063314Y-108050510D01*
X173958005Y-107796273D01*
X173805120Y-107567465D01*
X173610535Y-107372880D01*
X173381727Y-107219995D01*
X173304485Y-107188000D01*
X173381727Y-107156005D01*
X173610535Y-107003120D01*
X173805120Y-106808535D01*
X173958005Y-106579727D01*
X174063314Y-106325490D01*
X174117000Y-106055592D01*
X174117000Y-105780408D01*
X174063314Y-105510510D01*
X173958005Y-105256273D01*
X173805120Y-105027465D01*
X173610535Y-104832880D01*
X173381727Y-104679995D01*
X173304485Y-104648000D01*
X173381727Y-104616005D01*
X173610535Y-104463120D01*
X173805120Y-104268535D01*
X173958005Y-104039727D01*
X174063314Y-103785490D01*
X174117000Y-103515592D01*
X174117000Y-103240408D01*
X174063314Y-102970510D01*
X173958005Y-102716273D01*
X173805120Y-102487465D01*
X173610535Y-102292880D01*
X173381727Y-102139995D01*
X173304485Y-102108000D01*
X173381727Y-102076005D01*
X173610535Y-101923120D01*
X173805120Y-101728535D01*
X173958005Y-101499727D01*
X174063314Y-101245490D01*
X174117000Y-100975592D01*
X174117000Y-100700408D01*
X174063314Y-100430510D01*
X173958005Y-100176273D01*
X173805120Y-99947465D01*
X173610535Y-99752880D01*
X173381727Y-99599995D01*
X173304485Y-99568000D01*
X173381727Y-99536005D01*
X173610535Y-99383120D01*
X173805120Y-99188535D01*
X173958005Y-98959727D01*
X174063314Y-98705490D01*
X174117000Y-98435592D01*
X174117000Y-98160408D01*
X174063314Y-97890510D01*
X173958005Y-97636273D01*
X173805120Y-97407465D01*
X173610535Y-97212880D01*
X173381727Y-97059995D01*
X173310057Y-97030308D01*
X173323023Y-97025636D01*
X173438980Y-96963656D01*
X173505960Y-96723565D01*
X172720000Y-95937605D01*
X172705858Y-95951748D01*
X172526253Y-95772143D01*
X172540395Y-95758000D01*
X172899605Y-95758000D01*
X173685565Y-96543960D01*
X173925656Y-96476980D01*
X174042756Y-96227952D01*
X174109023Y-95960865D01*
X174121910Y-95685983D01*
X174080922Y-95413867D01*
X173987636Y-95154977D01*
X173925656Y-95039020D01*
X173685565Y-94972040D01*
X172899605Y-95758000D01*
X172540395Y-95758000D01*
X172526253Y-95743858D01*
X172705858Y-95564253D01*
X172720000Y-95578395D01*
X173505960Y-94792435D01*
X173438980Y-94552344D01*
X173303240Y-94488515D01*
X173381727Y-94456005D01*
X173610535Y-94303120D01*
X173805120Y-94108535D01*
X173958005Y-93879727D01*
X174063314Y-93625490D01*
X174117000Y-93355592D01*
X174117000Y-93080408D01*
X174063314Y-92810510D01*
X173958005Y-92556273D01*
X173805120Y-92327465D01*
X173610535Y-92132880D01*
X173381727Y-91979995D01*
X173127490Y-91874686D01*
X172857592Y-91821000D01*
X172582408Y-91821000D01*
X172392999Y-91858676D01*
X172392999Y-87231826D01*
X172398005Y-87180998D01*
X172392999Y-87130170D01*
X172392999Y-87130161D01*
X172378023Y-86978104D01*
X172318840Y-86783006D01*
X172230655Y-86618023D01*
X172222733Y-86603201D01*
X172125802Y-86485091D01*
X172093395Y-86445603D01*
X172053907Y-86413196D01*
X167425001Y-81784291D01*
X167425001Y-81693636D01*
X167370624Y-81420261D01*
X167263958Y-81162747D01*
X167109104Y-80930991D01*
X166912011Y-80733898D01*
X166680255Y-80579044D01*
X166641524Y-80563001D01*
X166680255Y-80546958D01*
X166912011Y-80392104D01*
X167109104Y-80195011D01*
X167263958Y-79963255D01*
X167370624Y-79705741D01*
X167425001Y-79432366D01*
X167425001Y-79153636D01*
X167370624Y-78880261D01*
X167263958Y-78622747D01*
X167109104Y-78390991D01*
X166912011Y-78193898D01*
X166680255Y-78039044D01*
X166641524Y-78023001D01*
X166680255Y-78006958D01*
X166912011Y-77852104D01*
X167109104Y-77655011D01*
X167263958Y-77423255D01*
X167370624Y-77165741D01*
X167425001Y-76892366D01*
X167425001Y-76613636D01*
X167370624Y-76340261D01*
X167263958Y-76082747D01*
X167109104Y-75850991D01*
X166912011Y-75653898D01*
X166680255Y-75499044D01*
X166641524Y-75483001D01*
X166680255Y-75466958D01*
X166912011Y-75312104D01*
X167109104Y-75115011D01*
X167263958Y-74883255D01*
X167370624Y-74625741D01*
X167391928Y-74518638D01*
X167875001Y-75001712D01*
X167875000Y-81686061D01*
X167875000Y-81889939D01*
X167884969Y-81940058D01*
X167889976Y-81990894D01*
X167904804Y-82039774D01*
X167914774Y-82089898D01*
X167934332Y-82137116D01*
X167949159Y-82185992D01*
X167973237Y-82231039D01*
X167992795Y-82278256D01*
X168021186Y-82320747D01*
X168045266Y-82365797D01*
X168077672Y-82405284D01*
X168106063Y-82447774D01*
X168142197Y-82483908D01*
X168174604Y-82523396D01*
X168214092Y-82555803D01*
X168250226Y-82591937D01*
X168292716Y-82620328D01*
X168332203Y-82652734D01*
X168377254Y-82676814D01*
X168419744Y-82705205D01*
X168466958Y-82724762D01*
X168512007Y-82748841D01*
X168560887Y-82763669D01*
X168608102Y-82783226D01*
X168658223Y-82793196D01*
X168707105Y-82808024D01*
X168757943Y-82813031D01*
X168808061Y-82823000D01*
X168859162Y-82823000D01*
X168910000Y-82828007D01*
X168960838Y-82823000D01*
X169011939Y-82823000D01*
X169062058Y-82813031D01*
X169112894Y-82808024D01*
X169161774Y-82793196D01*
X169211898Y-82783226D01*
X169259116Y-82763668D01*
X169307992Y-82748841D01*
X169353039Y-82724763D01*
X169385576Y-82711286D01*
X172339000Y-85664711D01*
X172339000Y-85735592D01*
X172392686Y-86005490D01*
X172497995Y-86259727D01*
X172650880Y-86488535D01*
X172845465Y-86683120D01*
X173074273Y-86836005D01*
X173328510Y-86941314D01*
X173598408Y-86995000D01*
X173873592Y-86995000D01*
X174143490Y-86941314D01*
X174397727Y-86836005D01*
X174626535Y-86683120D01*
X174821120Y-86488535D01*
X174974005Y-86259727D01*
X175079314Y-86005490D01*
X175133000Y-85735592D01*
X175133000Y-85460408D01*
X175079314Y-85190510D01*
X174974005Y-84936273D01*
X174821120Y-84707465D01*
X174626535Y-84512880D01*
X174397727Y-84359995D01*
X174320485Y-84328000D01*
X174397727Y-84296005D01*
X174626535Y-84143120D01*
X174821120Y-83948535D01*
X174974005Y-83719727D01*
X175079314Y-83465490D01*
X175133000Y-83195592D01*
X175133000Y-82920408D01*
X175079314Y-82650510D01*
X174974005Y-82396273D01*
X174821120Y-82167465D01*
X174626535Y-81972880D01*
X174397727Y-81819995D01*
X174326057Y-81790308D01*
X174339023Y-81785636D01*
X174454980Y-81723656D01*
X174521960Y-81483565D01*
X173736000Y-80697605D01*
X172950040Y-81483565D01*
X173017020Y-81723656D01*
X173152760Y-81787485D01*
X173074273Y-81819995D01*
X172845465Y-81972880D01*
X172650880Y-82167465D01*
X172497995Y-82396273D01*
X172392686Y-82650510D01*
X172369381Y-82767671D01*
X170945010Y-81343300D01*
X170945010Y-80590017D01*
X172334090Y-80590017D01*
X172375078Y-80862133D01*
X172468364Y-81121023D01*
X172530344Y-81236980D01*
X172770435Y-81303960D01*
X173556395Y-80518000D01*
X173915605Y-80518000D01*
X174701565Y-81303960D01*
X174941656Y-81236980D01*
X175058756Y-80987952D01*
X175125023Y-80720865D01*
X175137910Y-80445983D01*
X175096922Y-80173867D01*
X175003636Y-79914977D01*
X174941656Y-79799020D01*
X174701565Y-79732040D01*
X173915605Y-80518000D01*
X173556395Y-80518000D01*
X172770435Y-79732040D01*
X172530344Y-79799020D01*
X172413244Y-80048048D01*
X172346977Y-80315135D01*
X172334090Y-80590017D01*
X170945010Y-80590017D01*
X170945010Y-80155360D01*
X170959744Y-80165205D01*
X171006962Y-80184763D01*
X171052008Y-80208841D01*
X171100884Y-80223668D01*
X171148102Y-80243226D01*
X171198226Y-80253196D01*
X171247106Y-80268024D01*
X171297942Y-80273031D01*
X171348061Y-80283000D01*
X171399162Y-80283000D01*
X171450000Y-80288007D01*
X171500838Y-80283000D01*
X171551939Y-80283000D01*
X171602057Y-80273031D01*
X171652895Y-80268024D01*
X171701777Y-80253196D01*
X171751898Y-80243226D01*
X171799113Y-80223669D01*
X171847993Y-80208841D01*
X171893042Y-80184762D01*
X171940256Y-80165205D01*
X171982746Y-80136814D01*
X172027797Y-80112734D01*
X172067284Y-80080328D01*
X172109774Y-80051937D01*
X172145908Y-80015803D01*
X172185396Y-79983396D01*
X172217803Y-79943908D01*
X172253937Y-79907774D01*
X172282328Y-79865284D01*
X172314734Y-79825797D01*
X172338814Y-79780746D01*
X172367205Y-79738256D01*
X172386762Y-79691042D01*
X172410841Y-79645993D01*
X172425669Y-79597113D01*
X172445226Y-79549898D01*
X172455196Y-79499777D01*
X172470024Y-79450895D01*
X172475031Y-79400057D01*
X172485000Y-79349939D01*
X172485000Y-78608354D01*
X172497995Y-78639727D01*
X172650880Y-78868535D01*
X172845465Y-79063120D01*
X173074273Y-79216005D01*
X173145943Y-79245692D01*
X173132977Y-79250364D01*
X173017020Y-79312344D01*
X172950040Y-79552435D01*
X173736000Y-80338395D01*
X174521960Y-79552435D01*
X174454980Y-79312344D01*
X174319240Y-79248515D01*
X174397727Y-79216005D01*
X174626535Y-79063120D01*
X174821120Y-78868535D01*
X174974005Y-78639727D01*
X175079314Y-78385490D01*
X175133000Y-78115592D01*
X175133000Y-77840408D01*
X175079314Y-77570510D01*
X174974005Y-77316273D01*
X174821120Y-77087465D01*
X174626535Y-76892880D01*
X174397727Y-76739995D01*
X174320485Y-76708000D01*
X174397727Y-76676005D01*
X174626535Y-76523120D01*
X174821120Y-76328535D01*
X174974005Y-76099727D01*
X175079314Y-75845490D01*
X175133000Y-75575592D01*
X175133000Y-75300408D01*
X175079314Y-75030510D01*
X174974005Y-74776273D01*
X174821120Y-74547465D01*
X174626535Y-74352880D01*
X174397727Y-74199995D01*
X174320485Y-74168000D01*
X174397727Y-74136005D01*
X174626535Y-73983120D01*
X174821120Y-73788535D01*
X174974005Y-73559727D01*
X175079314Y-73305490D01*
X175133000Y-73035592D01*
X175133000Y-72760408D01*
X175079314Y-72490510D01*
X174974005Y-72236273D01*
X174821120Y-72007465D01*
X174626535Y-71812880D01*
X174397727Y-71659995D01*
X174320485Y-71628000D01*
X174397727Y-71596005D01*
X174626535Y-71443120D01*
X174821120Y-71248535D01*
X174974005Y-71019727D01*
X175079314Y-70765490D01*
X175133000Y-70495592D01*
X175133000Y-70220408D01*
X175079314Y-69950510D01*
X174974005Y-69696273D01*
X174821120Y-69467465D01*
X174626535Y-69272880D01*
X174397727Y-69119995D01*
X174320485Y-69088000D01*
X174397727Y-69056005D01*
X174626535Y-68903120D01*
X174821120Y-68708535D01*
X174974005Y-68479727D01*
X175079314Y-68225490D01*
X175133000Y-67955592D01*
X175133000Y-67680408D01*
X175079314Y-67410510D01*
X174974005Y-67156273D01*
X174821120Y-66927465D01*
X174626535Y-66732880D01*
X174397727Y-66579995D01*
X174320485Y-66548000D01*
X174397727Y-66516005D01*
X174626535Y-66363120D01*
X174821120Y-66168535D01*
X174974005Y-65939727D01*
X175079314Y-65685490D01*
X175133000Y-65415592D01*
X175133000Y-65140408D01*
X175079314Y-64870510D01*
X174974005Y-64616273D01*
X174821120Y-64387465D01*
X174626535Y-64192880D01*
X174397727Y-64039995D01*
X174143490Y-63934686D01*
X173873592Y-63881000D01*
X173598408Y-63881000D01*
X173328510Y-63934686D01*
X173074273Y-64039995D01*
X172845465Y-64192880D01*
X172650880Y-64387465D01*
X172497995Y-64616273D01*
X172392686Y-64870510D01*
X172339000Y-65140408D01*
X172339000Y-65415592D01*
X172392686Y-65685490D01*
X172497995Y-65939727D01*
X172650880Y-66168535D01*
X172845465Y-66363120D01*
X173074273Y-66516005D01*
X173151515Y-66548000D01*
X173074273Y-66579995D01*
X172845465Y-66732880D01*
X172650880Y-66927465D01*
X172497995Y-67156273D01*
X172392686Y-67410510D01*
X172339000Y-67680408D01*
X172339000Y-67955592D01*
X172392686Y-68225490D01*
X172497995Y-68479727D01*
X172650880Y-68708535D01*
X172845465Y-68903120D01*
X173074273Y-69056005D01*
X173151515Y-69088000D01*
X173074273Y-69119995D01*
X172845465Y-69272880D01*
X172650880Y-69467465D01*
X172497995Y-69696273D01*
X172392686Y-69950510D01*
X172369381Y-70067671D01*
X168358797Y-66057087D01*
X168326386Y-66017594D01*
X168168787Y-65888256D01*
X167988983Y-65792149D01*
X167793885Y-65732966D01*
X167641828Y-65717990D01*
X167641818Y-65717990D01*
X167590990Y-65712984D01*
X167540162Y-65717990D01*
X151879705Y-65717990D01*
X151888964Y-65695636D01*
X151913040Y-65650593D01*
X151927865Y-65601722D01*
X151947426Y-65554498D01*
X151957397Y-65504368D01*
X151972223Y-65455495D01*
X151977230Y-65404664D01*
X151987200Y-65354539D01*
X151987200Y-65303435D01*
X151992207Y-65252600D01*
X151987200Y-65201765D01*
X151987200Y-65150661D01*
X151977230Y-65100536D01*
X151972223Y-65049705D01*
X151957397Y-65000832D01*
X151947426Y-64950702D01*
X151927866Y-64903480D01*
X151913040Y-64854606D01*
X151888962Y-64809559D01*
X151869405Y-64762344D01*
X151841016Y-64719856D01*
X151816934Y-64674802D01*
X151784525Y-64635312D01*
X151756137Y-64592826D01*
X151611974Y-64448663D01*
X149875406Y-62712096D01*
X149842995Y-62672603D01*
X149685396Y-62543265D01*
X149505592Y-62447158D01*
X149310494Y-62387975D01*
X149158437Y-62372999D01*
X149158427Y-62372999D01*
X149107599Y-62367993D01*
X149056771Y-62372999D01*
X136540828Y-62372999D01*
X136490000Y-62367993D01*
X136439172Y-62372999D01*
X136439163Y-62372999D01*
X136287106Y-62387975D01*
X136092008Y-62447158D01*
X136008310Y-62491895D01*
X135912203Y-62543265D01*
X135794093Y-62640196D01*
X135754605Y-62672603D01*
X135722198Y-62712091D01*
X134264000Y-64170290D01*
X134264000Y-57945872D01*
X136195000Y-57945872D01*
X136195000Y-58386128D01*
X136280890Y-58817925D01*
X136449369Y-59224669D01*
X136693962Y-59590729D01*
X137005271Y-59902038D01*
X137371331Y-60146631D01*
X137778075Y-60315110D01*
X138209872Y-60401000D01*
X138650128Y-60401000D01*
X139081925Y-60315110D01*
X139488669Y-60146631D01*
X139854729Y-59902038D01*
X140166038Y-59590729D01*
X140410631Y-59224669D01*
X140579110Y-58817925D01*
X140665000Y-58386128D01*
X140665000Y-57945872D01*
X171247000Y-57945872D01*
X171247000Y-58386128D01*
X171332890Y-58817925D01*
X171501369Y-59224669D01*
X171745962Y-59590729D01*
X172057271Y-59902038D01*
X172423331Y-60146631D01*
X172830075Y-60315110D01*
X173261872Y-60401000D01*
X173702128Y-60401000D01*
X174133925Y-60315110D01*
X174540669Y-60146631D01*
X174906729Y-59902038D01*
X175218038Y-59590729D01*
X175462631Y-59224669D01*
X175631110Y-58817925D01*
X175717000Y-58386128D01*
X175717000Y-57945872D01*
X175631110Y-57514075D01*
X175462631Y-57107331D01*
X175218038Y-56741271D01*
X174906729Y-56429962D01*
X174540669Y-56185369D01*
X174133925Y-56016890D01*
X173702128Y-55931000D01*
X173261872Y-55931000D01*
X172830075Y-56016890D01*
X172423331Y-56185369D01*
X172057271Y-56429962D01*
X171745962Y-56741271D01*
X171501369Y-57107331D01*
X171332890Y-57514075D01*
X171247000Y-57945872D01*
X140665000Y-57945872D01*
X140579110Y-57514075D01*
X140410631Y-57107331D01*
X140166038Y-56741271D01*
X139854729Y-56429962D01*
X139488669Y-56185369D01*
X139081925Y-56016890D01*
X138650128Y-55931000D01*
X138209872Y-55931000D01*
X137778075Y-56016890D01*
X137371331Y-56185369D01*
X137005271Y-56429962D01*
X136693962Y-56741271D01*
X136449369Y-57107331D01*
X136280890Y-57514075D01*
X136195000Y-57945872D01*
X134264000Y-57945872D01*
X134264000Y-55016000D01*
X177140000Y-55016000D01*
X177140001Y-59657572D01*
G36*
X164603320Y-68925895D02*
G01*
X164589944Y-69204304D01*
X164631141Y-69479973D01*
X164725326Y-69742309D01*
X164789652Y-69862656D01*
X165031580Y-69931817D01*
X165830396Y-69133001D01*
X165816254Y-69118859D01*
X165995859Y-68939254D01*
X166010001Y-68953396D01*
X166024144Y-68939254D01*
X166203749Y-69118859D01*
X166189606Y-69133001D01*
X166988422Y-69931817D01*
X167230350Y-69862656D01*
X167258552Y-69802860D01*
X168875011Y-71419320D01*
X168875011Y-73074300D01*
X167425001Y-71624291D01*
X167425001Y-71533636D01*
X167370624Y-71260261D01*
X167263958Y-71002747D01*
X167109104Y-70770991D01*
X166912011Y-70573898D01*
X166680255Y-70419044D01*
X166644476Y-70404224D01*
X166739656Y-70353350D01*
X166808817Y-70111422D01*
X166010001Y-69312606D01*
X165211185Y-70111422D01*
X165280346Y-70353350D01*
X165382280Y-70401426D01*
X165339747Y-70419044D01*
X165107991Y-70573898D01*
X164910898Y-70770991D01*
X164756044Y-71002747D01*
X164649378Y-71260261D01*
X164595001Y-71533636D01*
X164595001Y-71812366D01*
X164649378Y-72085741D01*
X164756044Y-72343255D01*
X164910898Y-72575011D01*
X165107991Y-72772104D01*
X165339747Y-72926958D01*
X165378478Y-72943001D01*
X165339747Y-72959044D01*
X165107991Y-73113898D01*
X164910898Y-73310991D01*
X164756044Y-73542747D01*
X164649378Y-73800261D01*
X164595001Y-74073636D01*
X164595001Y-74352366D01*
X164649378Y-74625741D01*
X164756044Y-74883255D01*
X164910898Y-75115011D01*
X165107991Y-75312104D01*
X165339747Y-75466958D01*
X165378478Y-75483001D01*
X165339747Y-75499044D01*
X165107991Y-75653898D01*
X164910898Y-75850991D01*
X164756044Y-76082747D01*
X164649378Y-76340261D01*
X164595001Y-76613636D01*
X164595001Y-76892366D01*
X164649378Y-77165741D01*
X164756044Y-77423255D01*
X164910898Y-77655011D01*
X165107991Y-77852104D01*
X165339747Y-78006958D01*
X165378478Y-78023001D01*
X165339747Y-78039044D01*
X165107991Y-78193898D01*
X164910898Y-78390991D01*
X164756044Y-78622747D01*
X164649378Y-78880261D01*
X164595001Y-79153636D01*
X164595001Y-79432366D01*
X164649378Y-79705741D01*
X164756044Y-79963255D01*
X164910898Y-80195011D01*
X165107991Y-80392104D01*
X165339747Y-80546958D01*
X165378478Y-80563001D01*
X165339747Y-80579044D01*
X165107991Y-80733898D01*
X164910898Y-80930991D01*
X164756044Y-81162747D01*
X164649378Y-81420261D01*
X164595001Y-81693636D01*
X164595001Y-81972366D01*
X164649378Y-82245741D01*
X164756044Y-82503255D01*
X164910898Y-82735011D01*
X165107991Y-82932104D01*
X165339747Y-83086958D01*
X165375526Y-83101778D01*
X165280346Y-83152652D01*
X165211185Y-83394580D01*
X166010001Y-84193396D01*
X166024144Y-84179254D01*
X166203749Y-84358859D01*
X166189606Y-84373001D01*
X166988422Y-85171817D01*
X167230350Y-85102656D01*
X167349249Y-84850558D01*
X167392077Y-84678788D01*
X170323000Y-87609711D01*
X170322999Y-96885171D01*
X170317993Y-96935999D01*
X170322999Y-96986827D01*
X170322999Y-96986836D01*
X170337975Y-97138893D01*
X170397158Y-97333991D01*
X170493265Y-97513796D01*
X170622603Y-97671395D01*
X170662096Y-97703806D01*
X171323000Y-98364711D01*
X171323000Y-98435592D01*
X171376686Y-98705490D01*
X171481995Y-98959727D01*
X171634880Y-99188535D01*
X171829465Y-99383120D01*
X172058273Y-99536005D01*
X172135515Y-99568000D01*
X172058273Y-99599995D01*
X171829465Y-99752880D01*
X171634880Y-99947465D01*
X171481995Y-100176273D01*
X171376686Y-100430510D01*
X171353381Y-100547671D01*
X168869753Y-98064043D01*
X168910000Y-98068007D01*
X168960838Y-98063000D01*
X169011939Y-98063000D01*
X169062057Y-98053031D01*
X169112895Y-98048024D01*
X169161777Y-98033196D01*
X169211898Y-98023226D01*
X169259113Y-98003669D01*
X169307993Y-97988841D01*
X169353042Y-97964762D01*
X169400256Y-97945205D01*
X169442746Y-97916814D01*
X169487797Y-97892734D01*
X169527284Y-97860328D01*
X169569774Y-97831937D01*
X169605908Y-97795803D01*
X169645396Y-97763396D01*
X169677803Y-97723908D01*
X169713937Y-97687774D01*
X169742328Y-97645284D01*
X169774734Y-97605797D01*
X169798814Y-97560746D01*
X169827205Y-97518256D01*
X169846762Y-97471042D01*
X169870841Y-97425993D01*
X169885669Y-97377113D01*
X169905226Y-97329898D01*
X169915196Y-97279777D01*
X169930024Y-97230895D01*
X169935031Y-97180057D01*
X169945000Y-97129939D01*
X169945000Y-89863835D01*
X169950007Y-89813000D01*
X169938267Y-89693800D01*
X169930024Y-89610105D01*
X169870841Y-89415007D01*
X169809833Y-89300868D01*
X169774734Y-89235202D01*
X169677803Y-89117092D01*
X169645396Y-89077604D01*
X169605908Y-89045197D01*
X167425001Y-86864291D01*
X167425001Y-86773636D01*
X167370624Y-86500261D01*
X167263958Y-86242747D01*
X167109104Y-86010991D01*
X166912011Y-85813898D01*
X166680255Y-85659044D01*
X166644476Y-85644224D01*
X166739656Y-85593350D01*
X166808817Y-85351422D01*
X166010001Y-84552606D01*
X165211185Y-85351422D01*
X165280346Y-85593350D01*
X165382280Y-85641426D01*
X165339747Y-85659044D01*
X165107991Y-85813898D01*
X164910898Y-86010991D01*
X164756044Y-86242747D01*
X164649378Y-86500261D01*
X164595001Y-86773636D01*
X164595001Y-87052366D01*
X164649378Y-87325741D01*
X164756044Y-87583255D01*
X164910898Y-87815011D01*
X165107991Y-88012104D01*
X165339747Y-88166958D01*
X165378478Y-88183001D01*
X165339747Y-88199044D01*
X165107991Y-88353898D01*
X164910898Y-88550991D01*
X164756044Y-88782747D01*
X164649378Y-89040261D01*
X164628074Y-89147363D01*
X159925015Y-84444304D01*
X164589944Y-84444304D01*
X164631141Y-84719973D01*
X164725326Y-84982309D01*
X164789652Y-85102656D01*
X165031580Y-85171817D01*
X165830396Y-84373001D01*
X165031580Y-83574185D01*
X164789652Y-83643346D01*
X164670753Y-83895444D01*
X164603320Y-84165895D01*
X164589944Y-84444304D01*
X159925015Y-84444304D01*
X151987200Y-76506490D01*
X151987200Y-71424461D01*
X151977231Y-71374343D01*
X151972224Y-71323505D01*
X151957396Y-71274623D01*
X151947426Y-71224502D01*
X151927869Y-71177287D01*
X151913041Y-71128407D01*
X151888962Y-71083358D01*
X151869405Y-71036144D01*
X151841014Y-70993654D01*
X151816934Y-70948603D01*
X151806427Y-70935800D01*
X151993776Y-70935800D01*
X152044604Y-70940806D01*
X152095432Y-70935800D01*
X152095442Y-70935800D01*
X152247499Y-70920824D01*
X152442597Y-70861641D01*
X152622401Y-70765534D01*
X152780000Y-70636196D01*
X152812411Y-70596703D01*
X154621115Y-68788000D01*
X164637702Y-68788000D01*
X164603320Y-68925895D01*
G37*
X164603320Y-68925895D02*
X164589944Y-69204304D01*
X164631141Y-69479973D01*
X164725326Y-69742309D01*
X164789652Y-69862656D01*
X165031580Y-69931817D01*
X165830396Y-69133001D01*
X165816254Y-69118859D01*
X165995859Y-68939254D01*
X166010001Y-68953396D01*
X166024144Y-68939254D01*
X166203749Y-69118859D01*
X166189606Y-69133001D01*
X166988422Y-69931817D01*
X167230350Y-69862656D01*
X167258552Y-69802860D01*
X168875011Y-71419320D01*
X168875011Y-73074300D01*
X167425001Y-71624291D01*
X167425001Y-71533636D01*
X167370624Y-71260261D01*
X167263958Y-71002747D01*
X167109104Y-70770991D01*
X166912011Y-70573898D01*
X166680255Y-70419044D01*
X166644476Y-70404224D01*
X166739656Y-70353350D01*
X166808817Y-70111422D01*
X166010001Y-69312606D01*
X165211185Y-70111422D01*
X165280346Y-70353350D01*
X165382280Y-70401426D01*
X165339747Y-70419044D01*
X165107991Y-70573898D01*
X164910898Y-70770991D01*
X164756044Y-71002747D01*
X164649378Y-71260261D01*
X164595001Y-71533636D01*
X164595001Y-71812366D01*
X164649378Y-72085741D01*
X164756044Y-72343255D01*
X164910898Y-72575011D01*
X165107991Y-72772104D01*
X165339747Y-72926958D01*
X165378478Y-72943001D01*
X165339747Y-72959044D01*
X165107991Y-73113898D01*
X164910898Y-73310991D01*
X164756044Y-73542747D01*
X164649378Y-73800261D01*
X164595001Y-74073636D01*
X164595001Y-74352366D01*
X164649378Y-74625741D01*
X164756044Y-74883255D01*
X164910898Y-75115011D01*
X165107991Y-75312104D01*
X165339747Y-75466958D01*
X165378478Y-75483001D01*
X165339747Y-75499044D01*
X165107991Y-75653898D01*
X164910898Y-75850991D01*
X164756044Y-76082747D01*
X164649378Y-76340261D01*
X164595001Y-76613636D01*
X164595001Y-76892366D01*
X164649378Y-77165741D01*
X164756044Y-77423255D01*
X164910898Y-77655011D01*
X165107991Y-77852104D01*
X165339747Y-78006958D01*
X165378478Y-78023001D01*
X165339747Y-78039044D01*
X165107991Y-78193898D01*
X164910898Y-78390991D01*
X164756044Y-78622747D01*
X164649378Y-78880261D01*
X164595001Y-79153636D01*
X164595001Y-79432366D01*
X164649378Y-79705741D01*
X164756044Y-79963255D01*
X164910898Y-80195011D01*
X165107991Y-80392104D01*
X165339747Y-80546958D01*
X165378478Y-80563001D01*
X165339747Y-80579044D01*
X165107991Y-80733898D01*
X164910898Y-80930991D01*
X164756044Y-81162747D01*
X164649378Y-81420261D01*
X164595001Y-81693636D01*
X164595001Y-81972366D01*
X164649378Y-82245741D01*
X164756044Y-82503255D01*
X164910898Y-82735011D01*
X165107991Y-82932104D01*
X165339747Y-83086958D01*
X165375526Y-83101778D01*
X165280346Y-83152652D01*
X165211185Y-83394580D01*
X166010001Y-84193396D01*
X166024144Y-84179254D01*
X166203749Y-84358859D01*
X166189606Y-84373001D01*
X166988422Y-85171817D01*
X167230350Y-85102656D01*
X167349249Y-84850558D01*
X167392077Y-84678788D01*
X170323000Y-87609711D01*
X170322999Y-96885171D01*
X170317993Y-96935999D01*
X170322999Y-96986827D01*
X170322999Y-96986836D01*
X170337975Y-97138893D01*
X170397158Y-97333991D01*
X170493265Y-97513796D01*
X170622603Y-97671395D01*
X170662096Y-97703806D01*
X171323000Y-98364711D01*
X171323000Y-98435592D01*
X171376686Y-98705490D01*
X171481995Y-98959727D01*
X171634880Y-99188535D01*
X171829465Y-99383120D01*
X172058273Y-99536005D01*
X172135515Y-99568000D01*
X172058273Y-99599995D01*
X171829465Y-99752880D01*
X171634880Y-99947465D01*
X171481995Y-100176273D01*
X171376686Y-100430510D01*
X171353381Y-100547671D01*
X168869753Y-98064043D01*
X168910000Y-98068007D01*
X168960838Y-98063000D01*
X169011939Y-98063000D01*
X169062057Y-98053031D01*
X169112895Y-98048024D01*
X169161777Y-98033196D01*
X169211898Y-98023226D01*
X169259113Y-98003669D01*
X169307993Y-97988841D01*
X169353042Y-97964762D01*
X169400256Y-97945205D01*
X169442746Y-97916814D01*
X169487797Y-97892734D01*
X169527284Y-97860328D01*
X169569774Y-97831937D01*
X169605908Y-97795803D01*
X169645396Y-97763396D01*
X169677803Y-97723908D01*
X169713937Y-97687774D01*
X169742328Y-97645284D01*
X169774734Y-97605797D01*
X169798814Y-97560746D01*
X169827205Y-97518256D01*
X169846762Y-97471042D01*
X169870841Y-97425993D01*
X169885669Y-97377113D01*
X169905226Y-97329898D01*
X169915196Y-97279777D01*
X169930024Y-97230895D01*
X169935031Y-97180057D01*
X169945000Y-97129939D01*
X169945000Y-89863835D01*
X169950007Y-89813000D01*
X169938267Y-89693800D01*
X169930024Y-89610105D01*
X169870841Y-89415007D01*
X169809833Y-89300868D01*
X169774734Y-89235202D01*
X169677803Y-89117092D01*
X169645396Y-89077604D01*
X169605908Y-89045197D01*
X167425001Y-86864291D01*
X167425001Y-86773636D01*
X167370624Y-86500261D01*
X167263958Y-86242747D01*
X167109104Y-86010991D01*
X166912011Y-85813898D01*
X166680255Y-85659044D01*
X166644476Y-85644224D01*
X166739656Y-85593350D01*
X166808817Y-85351422D01*
X166010001Y-84552606D01*
X165211185Y-85351422D01*
X165280346Y-85593350D01*
X165382280Y-85641426D01*
X165339747Y-85659044D01*
X165107991Y-85813898D01*
X164910898Y-86010991D01*
X164756044Y-86242747D01*
X164649378Y-86500261D01*
X164595001Y-86773636D01*
X164595001Y-87052366D01*
X164649378Y-87325741D01*
X164756044Y-87583255D01*
X164910898Y-87815011D01*
X165107991Y-88012104D01*
X165339747Y-88166958D01*
X165378478Y-88183001D01*
X165339747Y-88199044D01*
X165107991Y-88353898D01*
X164910898Y-88550991D01*
X164756044Y-88782747D01*
X164649378Y-89040261D01*
X164628074Y-89147363D01*
X159925015Y-84444304D01*
X164589944Y-84444304D01*
X164631141Y-84719973D01*
X164725326Y-84982309D01*
X164789652Y-85102656D01*
X165031580Y-85171817D01*
X165830396Y-84373001D01*
X165031580Y-83574185D01*
X164789652Y-83643346D01*
X164670753Y-83895444D01*
X164603320Y-84165895D01*
X164589944Y-84444304D01*
X159925015Y-84444304D01*
X151987200Y-76506490D01*
X151987200Y-71424461D01*
X151977231Y-71374343D01*
X151972224Y-71323505D01*
X151957396Y-71274623D01*
X151947426Y-71224502D01*
X151927869Y-71177287D01*
X151913041Y-71128407D01*
X151888962Y-71083358D01*
X151869405Y-71036144D01*
X151841014Y-70993654D01*
X151816934Y-70948603D01*
X151806427Y-70935800D01*
X151993776Y-70935800D01*
X152044604Y-70940806D01*
X152095432Y-70935800D01*
X152095442Y-70935800D01*
X152247499Y-70920824D01*
X152442597Y-70861641D01*
X152622401Y-70765534D01*
X152780000Y-70636196D01*
X152812411Y-70596703D01*
X154621115Y-68788000D01*
X164637702Y-68788000D01*
X164603320Y-68925895D01*
G36*
X142440209Y-64722332D02*
G01*
X142367000Y-65090374D01*
X142367000Y-65465626D01*
X142440209Y-65833668D01*
X142583811Y-66180356D01*
X142792290Y-66492366D01*
X143057634Y-66757710D01*
X143369644Y-66966189D01*
X143716332Y-67109791D01*
X144084374Y-67183000D01*
X144459626Y-67183000D01*
X144827668Y-67109791D01*
X145174356Y-66966189D01*
X145486366Y-66757710D01*
X145751710Y-66492366D01*
X145960189Y-66180356D01*
X146103791Y-65833668D01*
X146177000Y-65465626D01*
X146177000Y-65090374D01*
X146103791Y-64722332D01*
X145988088Y-64442999D01*
X148678889Y-64442999D01*
X150148263Y-65912374D01*
X150292426Y-66056537D01*
X150334912Y-66084925D01*
X150374402Y-66117334D01*
X150419456Y-66141416D01*
X150453037Y-66163854D01*
X149300492Y-67316400D01*
X147320027Y-67316400D01*
X147269199Y-67311394D01*
X147218371Y-67316400D01*
X147218362Y-67316400D01*
X147066305Y-67331376D01*
X146871207Y-67390559D01*
X146787509Y-67435296D01*
X146691402Y-67486666D01*
X146614102Y-67550105D01*
X146533804Y-67616004D01*
X146501397Y-67655492D01*
X141899542Y-72257348D01*
X141970624Y-72085741D01*
X142025001Y-71812366D01*
X142025001Y-71533636D01*
X141970624Y-71260261D01*
X141863958Y-71002747D01*
X141709104Y-70770991D01*
X141512011Y-70573898D01*
X141466565Y-70543532D01*
X141514483Y-70538813D01*
X141634181Y-70502503D01*
X141744495Y-70443538D01*
X141841186Y-70364186D01*
X141920538Y-70267495D01*
X141979503Y-70157181D01*
X142015813Y-70037483D01*
X142028073Y-69913001D01*
X142028073Y-68353001D01*
X142015813Y-68228519D01*
X141979503Y-68108821D01*
X141920538Y-67998507D01*
X141841186Y-67901816D01*
X141744495Y-67822464D01*
X141634181Y-67763499D01*
X141514483Y-67727189D01*
X141390001Y-67714929D01*
X139830001Y-67714929D01*
X139705519Y-67727189D01*
X139585821Y-67763499D01*
X139475507Y-67822464D01*
X139378816Y-67901816D01*
X139299464Y-67998507D01*
X139240499Y-68108821D01*
X139204189Y-68228519D01*
X139191929Y-68353001D01*
X139191929Y-69913001D01*
X139204189Y-70037483D01*
X139240499Y-70157181D01*
X139299464Y-70267495D01*
X139378816Y-70364186D01*
X139475507Y-70443538D01*
X139585821Y-70502503D01*
X139705519Y-70538813D01*
X139753437Y-70543532D01*
X139707991Y-70573898D01*
X139510898Y-70770991D01*
X139356044Y-71002747D01*
X139249378Y-71260261D01*
X139195001Y-71533636D01*
X139195001Y-71812366D01*
X139249378Y-72085741D01*
X139356044Y-72343255D01*
X139510898Y-72575011D01*
X139707991Y-72772104D01*
X139939747Y-72926958D01*
X139978478Y-72943001D01*
X139939747Y-72959044D01*
X139707991Y-73113898D01*
X139510898Y-73310991D01*
X139356044Y-73542747D01*
X139249378Y-73800261D01*
X139195001Y-74073636D01*
X139195001Y-74352366D01*
X139249378Y-74625741D01*
X139356044Y-74883255D01*
X139510898Y-75115011D01*
X139707991Y-75312104D01*
X139939747Y-75466958D01*
X139978478Y-75483001D01*
X139939747Y-75499044D01*
X139707991Y-75653898D01*
X139510898Y-75850991D01*
X139356044Y-76082747D01*
X139249378Y-76340261D01*
X139195001Y-76613636D01*
X139195001Y-76892366D01*
X139249378Y-77165741D01*
X139356044Y-77423255D01*
X139510898Y-77655011D01*
X139707991Y-77852104D01*
X139939747Y-78006958D01*
X139978478Y-78023001D01*
X139939747Y-78039044D01*
X139707991Y-78193898D01*
X139510898Y-78390991D01*
X139356044Y-78622747D01*
X139249378Y-78880261D01*
X139195001Y-79153636D01*
X139195001Y-79432366D01*
X139249378Y-79705741D01*
X139356044Y-79963255D01*
X139510898Y-80195011D01*
X139707991Y-80392104D01*
X139939747Y-80546958D01*
X139978478Y-80563001D01*
X139939747Y-80579044D01*
X139707991Y-80733898D01*
X139510898Y-80930991D01*
X139356044Y-81162747D01*
X139249378Y-81420261D01*
X139195001Y-81693636D01*
X139195001Y-81972366D01*
X139249378Y-82245741D01*
X139356044Y-82503255D01*
X139510898Y-82735011D01*
X139707991Y-82932104D01*
X139939747Y-83086958D01*
X139978478Y-83103001D01*
X139939747Y-83119044D01*
X139707991Y-83273898D01*
X139510898Y-83470991D01*
X139356044Y-83702747D01*
X139249378Y-83960261D01*
X139195001Y-84233636D01*
X139195001Y-84512366D01*
X139249378Y-84785741D01*
X139356044Y-85043255D01*
X139510898Y-85275011D01*
X139707991Y-85472104D01*
X139939747Y-85626958D01*
X139978478Y-85643001D01*
X139939747Y-85659044D01*
X139707991Y-85813898D01*
X139510898Y-86010991D01*
X139356044Y-86242747D01*
X139249378Y-86500261D01*
X139195001Y-86773636D01*
X139195001Y-87052366D01*
X139249378Y-87325741D01*
X139356044Y-87583255D01*
X139510898Y-87815011D01*
X139707991Y-88012104D01*
X139939747Y-88166958D01*
X139978478Y-88183001D01*
X139939747Y-88199044D01*
X139707991Y-88353898D01*
X139510898Y-88550991D01*
X139356044Y-88782747D01*
X139249378Y-89040261D01*
X139195001Y-89313636D01*
X139195001Y-89592366D01*
X139249378Y-89865741D01*
X139356044Y-90123255D01*
X139510898Y-90355011D01*
X139707991Y-90552104D01*
X139939747Y-90706958D01*
X139978478Y-90723001D01*
X139939747Y-90739044D01*
X139707991Y-90893898D01*
X139510898Y-91090991D01*
X139356044Y-91322747D01*
X139249378Y-91580261D01*
X139195001Y-91853636D01*
X139195001Y-92132366D01*
X139249378Y-92405741D01*
X139356044Y-92663255D01*
X139510898Y-92895011D01*
X139707991Y-93092104D01*
X139939747Y-93246958D01*
X139978478Y-93263001D01*
X139939747Y-93279044D01*
X139707991Y-93433898D01*
X139510898Y-93630991D01*
X139356044Y-93862747D01*
X139249378Y-94120261D01*
X139195001Y-94393636D01*
X139195001Y-94672366D01*
X139215177Y-94773800D01*
X137640907Y-94773800D01*
X137522432Y-94655325D01*
X137348040Y-94538800D01*
X137522432Y-94422275D01*
X137729275Y-94215432D01*
X137891790Y-93972211D01*
X138003732Y-93701958D01*
X138060800Y-93415060D01*
X138060800Y-93122540D01*
X138003732Y-92835642D01*
X137891790Y-92565389D01*
X137729275Y-92322168D01*
X137522432Y-92115325D01*
X137348040Y-91998800D01*
X137522432Y-91882275D01*
X137729275Y-91675432D01*
X137891790Y-91432211D01*
X138003732Y-91161958D01*
X138060800Y-90875060D01*
X138060800Y-90582540D01*
X138003732Y-90295642D01*
X137891790Y-90025389D01*
X137729275Y-89782168D01*
X137597420Y-89650313D01*
X137669980Y-89628302D01*
X137780294Y-89569337D01*
X137876985Y-89489985D01*
X137956337Y-89393294D01*
X138015302Y-89282980D01*
X138051612Y-89163282D01*
X138063872Y-89038800D01*
X138060800Y-88474550D01*
X137902050Y-88315800D01*
X136702800Y-88315800D01*
X136702800Y-88335800D01*
X136448800Y-88335800D01*
X136448800Y-88315800D01*
X136428800Y-88315800D01*
X136428800Y-88061800D01*
X136448800Y-88061800D01*
X136448800Y-86862550D01*
X136702800Y-86862550D01*
X136702800Y-88061800D01*
X137902050Y-88061800D01*
X138060800Y-87903050D01*
X138063872Y-87338800D01*
X138051612Y-87214318D01*
X138015302Y-87094620D01*
X137956337Y-86984306D01*
X137876985Y-86887615D01*
X137780294Y-86808263D01*
X137669980Y-86749298D01*
X137550282Y-86712988D01*
X137425800Y-86700728D01*
X136861550Y-86703800D01*
X136702800Y-86862550D01*
X136448800Y-86862550D01*
X136290050Y-86703800D01*
X135728999Y-86700745D01*
X135728999Y-65632711D01*
X136918712Y-64442999D01*
X142555912Y-64442999D01*
X142440209Y-64722332D01*
G37*
X142440209Y-64722332D02*
X142367000Y-65090374D01*
X142367000Y-65465626D01*
X142440209Y-65833668D01*
X142583811Y-66180356D01*
X142792290Y-66492366D01*
X143057634Y-66757710D01*
X143369644Y-66966189D01*
X143716332Y-67109791D01*
X144084374Y-67183000D01*
X144459626Y-67183000D01*
X144827668Y-67109791D01*
X145174356Y-66966189D01*
X145486366Y-66757710D01*
X145751710Y-66492366D01*
X145960189Y-66180356D01*
X146103791Y-65833668D01*
X146177000Y-65465626D01*
X146177000Y-65090374D01*
X146103791Y-64722332D01*
X145988088Y-64442999D01*
X148678889Y-64442999D01*
X150148263Y-65912374D01*
X150292426Y-66056537D01*
X150334912Y-66084925D01*
X150374402Y-66117334D01*
X150419456Y-66141416D01*
X150453037Y-66163854D01*
X149300492Y-67316400D01*
X147320027Y-67316400D01*
X147269199Y-67311394D01*
X147218371Y-67316400D01*
X147218362Y-67316400D01*
X147066305Y-67331376D01*
X146871207Y-67390559D01*
X146787509Y-67435296D01*
X146691402Y-67486666D01*
X146614102Y-67550105D01*
X146533804Y-67616004D01*
X146501397Y-67655492D01*
X141899542Y-72257348D01*
X141970624Y-72085741D01*
X142025001Y-71812366D01*
X142025001Y-71533636D01*
X141970624Y-71260261D01*
X141863958Y-71002747D01*
X141709104Y-70770991D01*
X141512011Y-70573898D01*
X141466565Y-70543532D01*
X141514483Y-70538813D01*
X141634181Y-70502503D01*
X141744495Y-70443538D01*
X141841186Y-70364186D01*
X141920538Y-70267495D01*
X141979503Y-70157181D01*
X142015813Y-70037483D01*
X142028073Y-69913001D01*
X142028073Y-68353001D01*
X142015813Y-68228519D01*
X141979503Y-68108821D01*
X141920538Y-67998507D01*
X141841186Y-67901816D01*
X141744495Y-67822464D01*
X141634181Y-67763499D01*
X141514483Y-67727189D01*
X141390001Y-67714929D01*
X139830001Y-67714929D01*
X139705519Y-67727189D01*
X139585821Y-67763499D01*
X139475507Y-67822464D01*
X139378816Y-67901816D01*
X139299464Y-67998507D01*
X139240499Y-68108821D01*
X139204189Y-68228519D01*
X139191929Y-68353001D01*
X139191929Y-69913001D01*
X139204189Y-70037483D01*
X139240499Y-70157181D01*
X139299464Y-70267495D01*
X139378816Y-70364186D01*
X139475507Y-70443538D01*
X139585821Y-70502503D01*
X139705519Y-70538813D01*
X139753437Y-70543532D01*
X139707991Y-70573898D01*
X139510898Y-70770991D01*
X139356044Y-71002747D01*
X139249378Y-71260261D01*
X139195001Y-71533636D01*
X139195001Y-71812366D01*
X139249378Y-72085741D01*
X139356044Y-72343255D01*
X139510898Y-72575011D01*
X139707991Y-72772104D01*
X139939747Y-72926958D01*
X139978478Y-72943001D01*
X139939747Y-72959044D01*
X139707991Y-73113898D01*
X139510898Y-73310991D01*
X139356044Y-73542747D01*
X139249378Y-73800261D01*
X139195001Y-74073636D01*
X139195001Y-74352366D01*
X139249378Y-74625741D01*
X139356044Y-74883255D01*
X139510898Y-75115011D01*
X139707991Y-75312104D01*
X139939747Y-75466958D01*
X139978478Y-75483001D01*
X139939747Y-75499044D01*
X139707991Y-75653898D01*
X139510898Y-75850991D01*
X139356044Y-76082747D01*
X139249378Y-76340261D01*
X139195001Y-76613636D01*
X139195001Y-76892366D01*
X139249378Y-77165741D01*
X139356044Y-77423255D01*
X139510898Y-77655011D01*
X139707991Y-77852104D01*
X139939747Y-78006958D01*
X139978478Y-78023001D01*
X139939747Y-78039044D01*
X139707991Y-78193898D01*
X139510898Y-78390991D01*
X139356044Y-78622747D01*
X139249378Y-78880261D01*
X139195001Y-79153636D01*
X139195001Y-79432366D01*
X139249378Y-79705741D01*
X139356044Y-79963255D01*
X139510898Y-80195011D01*
X139707991Y-80392104D01*
X139939747Y-80546958D01*
X139978478Y-80563001D01*
X139939747Y-80579044D01*
X139707991Y-80733898D01*
X139510898Y-80930991D01*
X139356044Y-81162747D01*
X139249378Y-81420261D01*
X139195001Y-81693636D01*
X139195001Y-81972366D01*
X139249378Y-82245741D01*
X139356044Y-82503255D01*
X139510898Y-82735011D01*
X139707991Y-82932104D01*
X139939747Y-83086958D01*
X139978478Y-83103001D01*
X139939747Y-83119044D01*
X139707991Y-83273898D01*
X139510898Y-83470991D01*
X139356044Y-83702747D01*
X139249378Y-83960261D01*
X139195001Y-84233636D01*
X139195001Y-84512366D01*
X139249378Y-84785741D01*
X139356044Y-85043255D01*
X139510898Y-85275011D01*
X139707991Y-85472104D01*
X139939747Y-85626958D01*
X139978478Y-85643001D01*
X139939747Y-85659044D01*
X139707991Y-85813898D01*
X139510898Y-86010991D01*
X139356044Y-86242747D01*
X139249378Y-86500261D01*
X139195001Y-86773636D01*
X139195001Y-87052366D01*
X139249378Y-87325741D01*
X139356044Y-87583255D01*
X139510898Y-87815011D01*
X139707991Y-88012104D01*
X139939747Y-88166958D01*
X139978478Y-88183001D01*
X139939747Y-88199044D01*
X139707991Y-88353898D01*
X139510898Y-88550991D01*
X139356044Y-88782747D01*
X139249378Y-89040261D01*
X139195001Y-89313636D01*
X139195001Y-89592366D01*
X139249378Y-89865741D01*
X139356044Y-90123255D01*
X139510898Y-90355011D01*
X139707991Y-90552104D01*
X139939747Y-90706958D01*
X139978478Y-90723001D01*
X139939747Y-90739044D01*
X139707991Y-90893898D01*
X139510898Y-91090991D01*
X139356044Y-91322747D01*
X139249378Y-91580261D01*
X139195001Y-91853636D01*
X139195001Y-92132366D01*
X139249378Y-92405741D01*
X139356044Y-92663255D01*
X139510898Y-92895011D01*
X139707991Y-93092104D01*
X139939747Y-93246958D01*
X139978478Y-93263001D01*
X139939747Y-93279044D01*
X139707991Y-93433898D01*
X139510898Y-93630991D01*
X139356044Y-93862747D01*
X139249378Y-94120261D01*
X139195001Y-94393636D01*
X139195001Y-94672366D01*
X139215177Y-94773800D01*
X137640907Y-94773800D01*
X137522432Y-94655325D01*
X137348040Y-94538800D01*
X137522432Y-94422275D01*
X137729275Y-94215432D01*
X137891790Y-93972211D01*
X138003732Y-93701958D01*
X138060800Y-93415060D01*
X138060800Y-93122540D01*
X138003732Y-92835642D01*
X137891790Y-92565389D01*
X137729275Y-92322168D01*
X137522432Y-92115325D01*
X137348040Y-91998800D01*
X137522432Y-91882275D01*
X137729275Y-91675432D01*
X137891790Y-91432211D01*
X138003732Y-91161958D01*
X138060800Y-90875060D01*
X138060800Y-90582540D01*
X138003732Y-90295642D01*
X137891790Y-90025389D01*
X137729275Y-89782168D01*
X137597420Y-89650313D01*
X137669980Y-89628302D01*
X137780294Y-89569337D01*
X137876985Y-89489985D01*
X137956337Y-89393294D01*
X138015302Y-89282980D01*
X138051612Y-89163282D01*
X138063872Y-89038800D01*
X138060800Y-88474550D01*
X137902050Y-88315800D01*
X136702800Y-88315800D01*
X136702800Y-88335800D01*
X136448800Y-88335800D01*
X136448800Y-88315800D01*
X136428800Y-88315800D01*
X136428800Y-88061800D01*
X136448800Y-88061800D01*
X136448800Y-86862550D01*
X136702800Y-86862550D01*
X136702800Y-88061800D01*
X137902050Y-88061800D01*
X138060800Y-87903050D01*
X138063872Y-87338800D01*
X138051612Y-87214318D01*
X138015302Y-87094620D01*
X137956337Y-86984306D01*
X137876985Y-86887615D01*
X137780294Y-86808263D01*
X137669980Y-86749298D01*
X137550282Y-86712988D01*
X137425800Y-86700728D01*
X136861550Y-86703800D01*
X136702800Y-86862550D01*
X136448800Y-86862550D01*
X136290050Y-86703800D01*
X135728999Y-86700745D01*
X135728999Y-65632711D01*
X136918712Y-64442999D01*
X142555912Y-64442999D01*
X142440209Y-64722332D01*
M02*
