G04 #@! TF.GenerationSoftware,KiCad,Pcbnew,(6.0.5)*
G04 #@! TF.CreationDate,2022-09-09T11:42:05-04:00*
G04 #@! TF.ProjectId,Buoy_WithoutGSM,42756f79-5f57-4697-9468-6f757447534d,Leonardo Ward*
G04 #@! TF.SameCoordinates,Original*
G04 #@! TF.FileFunction,Legend,Top*
G04 #@! TF.FilePolarity,Positive*
%FSLAX46Y46*%
G04 Gerber Fmt 4.6, Leading zero omitted, Abs format (unit mm)*
G04 Created by KiCad (PCBNEW (6.0.5)) date 2022-09-09 11:42:05*
%MOMM*%
%LPD*%
G01*
G04 APERTURE LIST*
G04 Aperture macros list*
%AMRoundRect*
0 Rectangle with rounded corners*
0 $1 Rounding radius*
0 $2 $3 $4 $5 $6 $7 $8 $9 X,Y pos of 4 corners*
0 Add a 4 corners polygon primitive as box body*
4,1,4,$2,$3,$4,$5,$6,$7,$8,$9,$2,$3,0*
0 Add four circle primitives for the rounded corners*
1,1,$1+$1,$2,$3*
1,1,$1+$1,$4,$5*
1,1,$1+$1,$6,$7*
1,1,$1+$1,$8,$9*
0 Add four rect primitives between the rounded corners*
20,1,$1+$1,$2,$3,$4,$5,0*
20,1,$1+$1,$4,$5,$6,$7,0*
20,1,$1+$1,$6,$7,$8,$9,0*
20,1,$1+$1,$8,$9,$2,$3,0*%
%AMFreePoly0*
4,1,21,5.397855,0.901855,5.412500,0.866500,5.412500,-0.866500,5.397855,-0.901855,5.362500,-0.916500,1.237500,-0.916500,1.202145,-0.901855,1.187500,-0.866500,1.187500,-0.500000,-1.237500,-0.500000,-1.272855,-0.485355,-1.287500,-0.450000,-1.287500,0.450000,-1.272855,0.485355,-1.237500,0.500000,1.187500,0.500000,1.187500,0.866500,1.202145,0.901855,1.237500,0.916500,5.362500,0.916500,
5.397855,0.901855,5.397855,0.901855,$1*%
G04 Aperture macros list end*
%ADD10C,0.300000*%
%ADD11C,0.500000*%
%ADD12C,0.015000*%
%ADD13C,0.150000*%
%ADD14C,0.127000*%
%ADD15C,0.120000*%
%ADD16C,1.624000*%
%ADD17C,2.640000*%
%ADD18RoundRect,0.050000X-0.780000X-0.780000X0.780000X-0.780000X0.780000X0.780000X-0.780000X0.780000X0*%
%ADD19C,1.660000*%
%ADD20RoundRect,0.050000X0.850000X0.850000X-0.850000X0.850000X-0.850000X-0.850000X0.850000X-0.850000X0*%
%ADD21O,1.800000X1.800000*%
%ADD22C,3.300000*%
%ADD23RoundRect,0.050000X-1.500000X1.500000X-1.500000X-1.500000X1.500000X-1.500000X1.500000X1.500000X0*%
%ADD24C,3.100000*%
%ADD25RoundRect,0.300000X-0.350000X-0.450000X0.350000X-0.450000X0.350000X0.450000X-0.350000X0.450000X0*%
%ADD26RoundRect,0.300000X0.450000X-0.262500X0.450000X0.262500X-0.450000X0.262500X-0.450000X-0.262500X0*%
%ADD27RoundRect,0.050000X1.100000X-1.100000X1.100000X1.100000X-1.100000X1.100000X-1.100000X-1.100000X0*%
%ADD28O,2.300000X2.300000*%
%ADD29RoundRect,0.050000X-0.850000X-0.850000X0.850000X-0.850000X0.850000X0.850000X-0.850000X0.850000X0*%
%ADD30RoundRect,0.050000X0.450000X-1.150000X0.450000X1.150000X-0.450000X1.150000X-0.450000X-1.150000X0*%
%ADD31FreePoly0,90.000000*%
%ADD32C,2.800000*%
G04 APERTURE END LIST*
D10*
X128567857Y-63700357D02*
X129067857Y-63700357D01*
X129282142Y-64486071D02*
X128567857Y-64486071D01*
X128567857Y-62986071D01*
X129282142Y-62986071D01*
X129782142Y-62986071D02*
X130782142Y-64486071D01*
X130782142Y-62986071D02*
X129782142Y-64486071D01*
X131139285Y-62986071D02*
X131996428Y-62986071D01*
X131567857Y-64486071D02*
X131567857Y-62986071D01*
X136652142Y-141490000D02*
X136509285Y-141418571D01*
X136295000Y-141418571D01*
X136080714Y-141490000D01*
X135937857Y-141632857D01*
X135866428Y-141775714D01*
X135795000Y-142061428D01*
X135795000Y-142275714D01*
X135866428Y-142561428D01*
X135937857Y-142704285D01*
X136080714Y-142847142D01*
X136295000Y-142918571D01*
X136437857Y-142918571D01*
X136652142Y-142847142D01*
X136723571Y-142775714D01*
X136723571Y-142275714D01*
X136437857Y-142275714D01*
X137366428Y-142918571D02*
X137366428Y-141418571D01*
X138223571Y-142918571D01*
X138223571Y-141418571D01*
X138937857Y-142918571D02*
X138937857Y-141418571D01*
X139295000Y-141418571D01*
X139509285Y-141490000D01*
X139652142Y-141632857D01*
X139723571Y-141775714D01*
X139795000Y-142061428D01*
X139795000Y-142275714D01*
X139723571Y-142561428D01*
X139652142Y-142704285D01*
X139509285Y-142847142D01*
X139295000Y-142918571D01*
X138937857Y-142918571D01*
X136521428Y-117288571D02*
X135807142Y-117288571D01*
X135735714Y-118002857D01*
X135807142Y-117931428D01*
X135950000Y-117860000D01*
X136307142Y-117860000D01*
X136450000Y-117931428D01*
X136521428Y-118002857D01*
X136592857Y-118145714D01*
X136592857Y-118502857D01*
X136521428Y-118645714D01*
X136450000Y-118717142D01*
X136307142Y-118788571D01*
X135950000Y-118788571D01*
X135807142Y-118717142D01*
X135735714Y-118645714D01*
X137021428Y-117288571D02*
X137521428Y-118788571D01*
X138021428Y-117288571D01*
X135735714Y-113637142D02*
X135950000Y-113708571D01*
X136307142Y-113708571D01*
X136450000Y-113637142D01*
X136521428Y-113565714D01*
X136592857Y-113422857D01*
X136592857Y-113280000D01*
X136521428Y-113137142D01*
X136450000Y-113065714D01*
X136307142Y-112994285D01*
X136021428Y-112922857D01*
X135878571Y-112851428D01*
X135807142Y-112780000D01*
X135735714Y-112637142D01*
X135735714Y-112494285D01*
X135807142Y-112351428D01*
X135878571Y-112280000D01*
X136021428Y-112208571D01*
X136378571Y-112208571D01*
X136592857Y-112280000D01*
X137235714Y-113708571D02*
X137235714Y-112208571D01*
X137592857Y-112208571D01*
X137807142Y-112280000D01*
X137950000Y-112422857D01*
X138021428Y-112565714D01*
X138092857Y-112851428D01*
X138092857Y-113065714D01*
X138021428Y-113351428D01*
X137950000Y-113494285D01*
X137807142Y-113637142D01*
X137592857Y-113708571D01*
X137235714Y-113708571D01*
X138664285Y-113280000D02*
X139378571Y-113280000D01*
X138521428Y-113708571D02*
X139021428Y-112208571D01*
X139521428Y-113708571D01*
X135735714Y-111097142D02*
X135950000Y-111168571D01*
X136307142Y-111168571D01*
X136450000Y-111097142D01*
X136521428Y-111025714D01*
X136592857Y-110882857D01*
X136592857Y-110740000D01*
X136521428Y-110597142D01*
X136450000Y-110525714D01*
X136307142Y-110454285D01*
X136021428Y-110382857D01*
X135878571Y-110311428D01*
X135807142Y-110240000D01*
X135735714Y-110097142D01*
X135735714Y-109954285D01*
X135807142Y-109811428D01*
X135878571Y-109740000D01*
X136021428Y-109668571D01*
X136378571Y-109668571D01*
X136592857Y-109740000D01*
X138092857Y-111025714D02*
X138021428Y-111097142D01*
X137807142Y-111168571D01*
X137664285Y-111168571D01*
X137450000Y-111097142D01*
X137307142Y-110954285D01*
X137235714Y-110811428D01*
X137164285Y-110525714D01*
X137164285Y-110311428D01*
X137235714Y-110025714D01*
X137307142Y-109882857D01*
X137450000Y-109740000D01*
X137664285Y-109668571D01*
X137807142Y-109668571D01*
X138021428Y-109740000D01*
X138092857Y-109811428D01*
X139450000Y-111168571D02*
X138735714Y-111168571D01*
X138735714Y-109668571D01*
X132632142Y-97198571D02*
X132632142Y-95698571D01*
X132989285Y-95698571D01*
X133203571Y-95770000D01*
X133346428Y-95912857D01*
X133417857Y-96055714D01*
X133489285Y-96341428D01*
X133489285Y-96555714D01*
X133417857Y-96841428D01*
X133346428Y-96984285D01*
X133203571Y-97127142D01*
X132989285Y-97198571D01*
X132632142Y-97198571D01*
X134132142Y-97198571D02*
X134132142Y-95698571D01*
X135132142Y-95698571D02*
X135417857Y-95698571D01*
X135560714Y-95770000D01*
X135703571Y-95912857D01*
X135775000Y-96198571D01*
X135775000Y-96698571D01*
X135703571Y-96984285D01*
X135560714Y-97127142D01*
X135417857Y-97198571D01*
X135132142Y-97198571D01*
X134989285Y-97127142D01*
X134846428Y-96984285D01*
X134775000Y-96698571D01*
X134775000Y-96198571D01*
X134846428Y-95912857D01*
X134989285Y-95770000D01*
X135132142Y-95698571D01*
X136417857Y-97198571D02*
X136417857Y-95698571D01*
X136775000Y-95698571D01*
X136989285Y-95770000D01*
X137132142Y-95912857D01*
X137203571Y-96055714D01*
X137275000Y-96341428D01*
X137275000Y-96555714D01*
X137203571Y-96841428D01*
X137132142Y-96984285D01*
X136989285Y-97127142D01*
X136775000Y-97198571D01*
X136417857Y-97198571D01*
X137917857Y-96412857D02*
X138417857Y-96412857D01*
X138632142Y-97198571D02*
X137917857Y-97198571D01*
X137917857Y-95698571D01*
X138632142Y-95698571D01*
D11*
X168767142Y-131126428D02*
X168862380Y-130840714D01*
X168957619Y-130745476D01*
X169148095Y-130650238D01*
X169433809Y-130650238D01*
X169624285Y-130745476D01*
X169719523Y-130840714D01*
X169814761Y-131031190D01*
X169814761Y-131793095D01*
X167814761Y-131793095D01*
X167814761Y-131126428D01*
X167910000Y-130935952D01*
X168005238Y-130840714D01*
X168195714Y-130745476D01*
X168386190Y-130745476D01*
X168576666Y-130840714D01*
X168671904Y-130935952D01*
X168767142Y-131126428D01*
X168767142Y-131793095D01*
X167814761Y-129793095D02*
X169433809Y-129793095D01*
X169624285Y-129697857D01*
X169719523Y-129602619D01*
X169814761Y-129412142D01*
X169814761Y-129031190D01*
X169719523Y-128840714D01*
X169624285Y-128745476D01*
X169433809Y-128650238D01*
X167814761Y-128650238D01*
X167814761Y-127316904D02*
X167814761Y-126935952D01*
X167910000Y-126745476D01*
X168100476Y-126555000D01*
X168481428Y-126459761D01*
X169148095Y-126459761D01*
X169529047Y-126555000D01*
X169719523Y-126745476D01*
X169814761Y-126935952D01*
X169814761Y-127316904D01*
X169719523Y-127507380D01*
X169529047Y-127697857D01*
X169148095Y-127793095D01*
X168481428Y-127793095D01*
X168100476Y-127697857D01*
X167910000Y-127507380D01*
X167814761Y-127316904D01*
X168862380Y-125221666D02*
X169814761Y-125221666D01*
X167814761Y-125888333D02*
X168862380Y-125221666D01*
X167814761Y-124555000D01*
X168767142Y-121697857D02*
X168862380Y-121412142D01*
X168957619Y-121316904D01*
X169148095Y-121221666D01*
X169433809Y-121221666D01*
X169624285Y-121316904D01*
X169719523Y-121412142D01*
X169814761Y-121602619D01*
X169814761Y-122364523D01*
X167814761Y-122364523D01*
X167814761Y-121697857D01*
X167910000Y-121507380D01*
X168005238Y-121412142D01*
X168195714Y-121316904D01*
X168386190Y-121316904D01*
X168576666Y-121412142D01*
X168671904Y-121507380D01*
X168767142Y-121697857D01*
X168767142Y-122364523D01*
X167814761Y-119126428D02*
X169814761Y-118459761D01*
X167814761Y-117793095D01*
X168005238Y-117221666D02*
X167910000Y-117126428D01*
X167814761Y-116935952D01*
X167814761Y-116459761D01*
X167910000Y-116269285D01*
X168005238Y-116174047D01*
X168195714Y-116078809D01*
X168386190Y-116078809D01*
X168671904Y-116174047D01*
X169814761Y-117316904D01*
X169814761Y-116078809D01*
X169624285Y-115221666D02*
X169719523Y-115126428D01*
X169814761Y-115221666D01*
X169719523Y-115316904D01*
X169624285Y-115221666D01*
X169814761Y-115221666D01*
X167814761Y-113888333D02*
X167814761Y-113697857D01*
X167910000Y-113507380D01*
X168005238Y-113412142D01*
X168195714Y-113316904D01*
X168576666Y-113221666D01*
X169052857Y-113221666D01*
X169433809Y-113316904D01*
X169624285Y-113412142D01*
X169719523Y-113507380D01*
X169814761Y-113697857D01*
X169814761Y-113888333D01*
X169719523Y-114078809D01*
X169624285Y-114174047D01*
X169433809Y-114269285D01*
X169052857Y-114364523D01*
X168576666Y-114364523D01*
X168195714Y-114269285D01*
X168005238Y-114174047D01*
X167910000Y-114078809D01*
X167814761Y-113888333D01*
D10*
X132632142Y-102278571D02*
X132632142Y-100778571D01*
X132989285Y-100778571D01*
X133203571Y-100850000D01*
X133346428Y-100992857D01*
X133417857Y-101135714D01*
X133489285Y-101421428D01*
X133489285Y-101635714D01*
X133417857Y-101921428D01*
X133346428Y-102064285D01*
X133203571Y-102207142D01*
X132989285Y-102278571D01*
X132632142Y-102278571D01*
X134132142Y-102278571D02*
X134132142Y-100778571D01*
X135703571Y-102278571D02*
X135203571Y-101564285D01*
X134846428Y-102278571D02*
X134846428Y-100778571D01*
X135417857Y-100778571D01*
X135560714Y-100850000D01*
X135632142Y-100921428D01*
X135703571Y-101064285D01*
X135703571Y-101278571D01*
X135632142Y-101421428D01*
X135560714Y-101492857D01*
X135417857Y-101564285D01*
X134846428Y-101564285D01*
X136346428Y-101492857D02*
X136846428Y-101492857D01*
X137060714Y-102278571D02*
X136346428Y-102278571D01*
X136346428Y-100778571D01*
X137060714Y-100778571D01*
X138560714Y-102135714D02*
X138489285Y-102207142D01*
X138275000Y-102278571D01*
X138132142Y-102278571D01*
X137917857Y-102207142D01*
X137775000Y-102064285D01*
X137703571Y-101921428D01*
X137632142Y-101635714D01*
X137632142Y-101421428D01*
X137703571Y-101135714D01*
X137775000Y-100992857D01*
X137917857Y-100850000D01*
X138132142Y-100778571D01*
X138275000Y-100778571D01*
X138489285Y-100850000D01*
X138560714Y-100921428D01*
X138989285Y-100778571D02*
X139846428Y-100778571D01*
X139417857Y-102278571D02*
X139417857Y-100778571D01*
X137679284Y-38592142D02*
X138345951Y-38592142D01*
X138631665Y-39639761D02*
X137679284Y-39639761D01*
X137679284Y-37639761D01*
X138631665Y-37639761D01*
X139393570Y-39544523D02*
X139679284Y-39639761D01*
X140155475Y-39639761D01*
X140345951Y-39544523D01*
X140441189Y-39449285D01*
X140536427Y-39258809D01*
X140536427Y-39068333D01*
X140441189Y-38877857D01*
X140345951Y-38782619D01*
X140155475Y-38687380D01*
X139774522Y-38592142D01*
X139584046Y-38496904D01*
X139488808Y-38401666D01*
X139393570Y-38211190D01*
X139393570Y-38020714D01*
X139488808Y-37830238D01*
X139584046Y-37735000D01*
X139774522Y-37639761D01*
X140250713Y-37639761D01*
X140536427Y-37735000D01*
X141393570Y-39639761D02*
X141393570Y-37639761D01*
X142155475Y-37639761D01*
X142345951Y-37735000D01*
X142441189Y-37830238D01*
X142536427Y-38020714D01*
X142536427Y-38306428D01*
X142441189Y-38496904D01*
X142345951Y-38592142D01*
X142155475Y-38687380D01*
X141393570Y-38687380D01*
X143203094Y-37639761D02*
X144441189Y-37639761D01*
X143774522Y-38401666D01*
X144060237Y-38401666D01*
X144250713Y-38496904D01*
X144345951Y-38592142D01*
X144441189Y-38782619D01*
X144441189Y-39258809D01*
X144345951Y-39449285D01*
X144250713Y-39544523D01*
X144060237Y-39639761D01*
X143488808Y-39639761D01*
X143298332Y-39544523D01*
X143203094Y-39449285D01*
X145203094Y-37830238D02*
X145298332Y-37735000D01*
X145488808Y-37639761D01*
X145964999Y-37639761D01*
X146155475Y-37735000D01*
X146250713Y-37830238D01*
X146345951Y-38020714D01*
X146345951Y-38211190D01*
X146250713Y-38496904D01*
X145107856Y-39639761D01*
X146345951Y-39639761D01*
X136874285Y-136338571D02*
X136160000Y-136338571D01*
X136088571Y-137052857D01*
X136160000Y-136981428D01*
X136302857Y-136910000D01*
X136660000Y-136910000D01*
X136802857Y-136981428D01*
X136874285Y-137052857D01*
X136945714Y-137195714D01*
X136945714Y-137552857D01*
X136874285Y-137695714D01*
X136802857Y-137767142D01*
X136660000Y-137838571D01*
X136302857Y-137838571D01*
X136160000Y-137767142D01*
X136088571Y-137695714D01*
X137374285Y-136338571D02*
X137874285Y-137838571D01*
X138374285Y-136338571D01*
X132632142Y-98952857D02*
X133132142Y-98952857D01*
X133346428Y-99738571D02*
X132632142Y-99738571D01*
X132632142Y-98238571D01*
X133346428Y-98238571D01*
X133917857Y-99667142D02*
X134132142Y-99738571D01*
X134489285Y-99738571D01*
X134632142Y-99667142D01*
X134703571Y-99595714D01*
X134775000Y-99452857D01*
X134775000Y-99310000D01*
X134703571Y-99167142D01*
X134632142Y-99095714D01*
X134489285Y-99024285D01*
X134203571Y-98952857D01*
X134060714Y-98881428D01*
X133989285Y-98810000D01*
X133917857Y-98667142D01*
X133917857Y-98524285D01*
X133989285Y-98381428D01*
X134060714Y-98310000D01*
X134203571Y-98238571D01*
X134560714Y-98238571D01*
X134775000Y-98310000D01*
X135417857Y-99738571D02*
X135417857Y-98238571D01*
X135989285Y-98238571D01*
X136132142Y-98310000D01*
X136203571Y-98381428D01*
X136275000Y-98524285D01*
X136275000Y-98738571D01*
X136203571Y-98881428D01*
X136132142Y-98952857D01*
X135989285Y-99024285D01*
X135417857Y-99024285D01*
X138060714Y-99738571D02*
X138060714Y-98238571D01*
X138632142Y-98238571D01*
X138775000Y-98310000D01*
X138846428Y-98381428D01*
X138917857Y-98524285D01*
X138917857Y-98738571D01*
X138846428Y-98881428D01*
X138775000Y-98952857D01*
X138632142Y-99024285D01*
X138060714Y-99024285D01*
X139417857Y-98238571D02*
X139775000Y-99738571D01*
X140060714Y-98667142D01*
X140346428Y-99738571D01*
X140703571Y-98238571D01*
X142132142Y-99738571D02*
X141632142Y-99024285D01*
X141275000Y-99738571D02*
X141275000Y-98238571D01*
X141846428Y-98238571D01*
X141989285Y-98310000D01*
X142060714Y-98381428D01*
X142132142Y-98524285D01*
X142132142Y-98738571D01*
X142060714Y-98881428D01*
X141989285Y-98952857D01*
X141846428Y-99024285D01*
X141275000Y-99024285D01*
X136592857Y-107200000D02*
X136450000Y-107128571D01*
X136235714Y-107128571D01*
X136021428Y-107200000D01*
X135878571Y-107342857D01*
X135807142Y-107485714D01*
X135735714Y-107771428D01*
X135735714Y-107985714D01*
X135807142Y-108271428D01*
X135878571Y-108414285D01*
X136021428Y-108557142D01*
X136235714Y-108628571D01*
X136378571Y-108628571D01*
X136592857Y-108557142D01*
X136664285Y-108485714D01*
X136664285Y-107985714D01*
X136378571Y-107985714D01*
X137307142Y-108628571D02*
X137307142Y-107128571D01*
X138164285Y-108628571D01*
X138164285Y-107128571D01*
X138878571Y-108628571D02*
X138878571Y-107128571D01*
X139235714Y-107128571D01*
X139450000Y-107200000D01*
X139592857Y-107342857D01*
X139664285Y-107485714D01*
X139735714Y-107771428D01*
X139735714Y-107985714D01*
X139664285Y-108271428D01*
X139592857Y-108414285D01*
X139450000Y-108557142D01*
X139235714Y-108628571D01*
X138878571Y-108628571D01*
X135664285Y-114748571D02*
X136592857Y-114748571D01*
X136092857Y-115320000D01*
X136307142Y-115320000D01*
X136450000Y-115391428D01*
X136521428Y-115462857D01*
X136592857Y-115605714D01*
X136592857Y-115962857D01*
X136521428Y-116105714D01*
X136450000Y-116177142D01*
X136307142Y-116248571D01*
X135878571Y-116248571D01*
X135735714Y-116177142D01*
X135664285Y-116105714D01*
X137021428Y-114748571D02*
X137521428Y-116248571D01*
X138021428Y-114748571D01*
X138378571Y-114748571D02*
X139307142Y-114748571D01*
X138807142Y-115320000D01*
X139021428Y-115320000D01*
X139164285Y-115391428D01*
X139235714Y-115462857D01*
X139307142Y-115605714D01*
X139307142Y-115962857D01*
X139235714Y-116105714D01*
X139164285Y-116177142D01*
X139021428Y-116248571D01*
X138592857Y-116248571D01*
X138450000Y-116177142D01*
X138378571Y-116105714D01*
D12*
X130047801Y-40092169D02*
X130047801Y-40902005D01*
X130095438Y-40997280D01*
X130143076Y-41044918D01*
X130238350Y-41092555D01*
X130428900Y-41092555D01*
X130524175Y-41044918D01*
X130571812Y-40997280D01*
X130619450Y-40902005D01*
X130619450Y-40092169D01*
X131048187Y-40187444D02*
X131095824Y-40139807D01*
X131191099Y-40092169D01*
X131429286Y-40092169D01*
X131524561Y-40139807D01*
X131572198Y-40187444D01*
X131619836Y-40282719D01*
X131619836Y-40377994D01*
X131572198Y-40520906D01*
X131000549Y-41092555D01*
X131619836Y-41092555D01*
D13*
X128719667Y-103592380D02*
X128719667Y-104306666D01*
X128672048Y-104449523D01*
X128576810Y-104544761D01*
X128433953Y-104592380D01*
X128338715Y-104592380D01*
X129624429Y-103592380D02*
X129433953Y-103592380D01*
X129338715Y-103640000D01*
X129291096Y-103687619D01*
X129195858Y-103830476D01*
X129148239Y-104020952D01*
X129148239Y-104401904D01*
X129195858Y-104497142D01*
X129243477Y-104544761D01*
X129338715Y-104592380D01*
X129529191Y-104592380D01*
X129624429Y-104544761D01*
X129672048Y-104497142D01*
X129719667Y-104401904D01*
X129719667Y-104163809D01*
X129672048Y-104068571D01*
X129624429Y-104020952D01*
X129529191Y-103973333D01*
X129338715Y-103973333D01*
X129243477Y-104020952D01*
X129195858Y-104068571D01*
X129148239Y-104163809D01*
X130471665Y-159802380D02*
X130138332Y-159326190D01*
X129900237Y-159802380D02*
X129900237Y-158802380D01*
X130281189Y-158802380D01*
X130376427Y-158850000D01*
X130424046Y-158897619D01*
X130471665Y-158992857D01*
X130471665Y-159135714D01*
X130424046Y-159230952D01*
X130376427Y-159278571D01*
X130281189Y-159326190D01*
X129900237Y-159326190D01*
X130900237Y-159278571D02*
X131233570Y-159278571D01*
X131376427Y-159802380D02*
X130900237Y-159802380D01*
X130900237Y-158802380D01*
X131376427Y-158802380D01*
X132138332Y-159278571D02*
X131804999Y-159278571D01*
X131804999Y-159802380D02*
X131804999Y-158802380D01*
X132281189Y-158802380D01*
X132804999Y-158802380D02*
X132804999Y-159040476D01*
X132566903Y-158945238D02*
X132804999Y-159040476D01*
X133043094Y-158945238D01*
X132662141Y-159230952D02*
X132804999Y-159040476D01*
X132947856Y-159230952D01*
X133566903Y-158802380D02*
X133566903Y-159040476D01*
X133328808Y-158945238D02*
X133566903Y-159040476D01*
X133804999Y-158945238D01*
X133424046Y-159230952D02*
X133566903Y-159040476D01*
X133709760Y-159230952D01*
X172203865Y-37111579D02*
X171870532Y-36635389D01*
X171632437Y-37111579D02*
X171632437Y-36111579D01*
X172013389Y-36111579D01*
X172108627Y-36159199D01*
X172156246Y-36206818D01*
X172203865Y-36302056D01*
X172203865Y-36444913D01*
X172156246Y-36540151D01*
X172108627Y-36587770D01*
X172013389Y-36635389D01*
X171632437Y-36635389D01*
X172632437Y-36587770D02*
X172965770Y-36587770D01*
X173108627Y-37111579D02*
X172632437Y-37111579D01*
X172632437Y-36111579D01*
X173108627Y-36111579D01*
X173870532Y-36587770D02*
X173537199Y-36587770D01*
X173537199Y-37111579D02*
X173537199Y-36111579D01*
X174013389Y-36111579D01*
X174537199Y-36111579D02*
X174537199Y-36349675D01*
X174299103Y-36254437D02*
X174537199Y-36349675D01*
X174775294Y-36254437D01*
X174394341Y-36540151D02*
X174537199Y-36349675D01*
X174680056Y-36540151D01*
X175299103Y-36111579D02*
X175299103Y-36349675D01*
X175061008Y-36254437D02*
X175299103Y-36349675D01*
X175537199Y-36254437D01*
X175156246Y-36540151D02*
X175299103Y-36349675D01*
X175441960Y-36540151D01*
X127722380Y-146383333D02*
X128436666Y-146383333D01*
X128579523Y-146430952D01*
X128674761Y-146526190D01*
X128722380Y-146669047D01*
X128722380Y-146764285D01*
X128722380Y-145383333D02*
X128722380Y-145954761D01*
X128722380Y-145669047D02*
X127722380Y-145669047D01*
X127865238Y-145764285D01*
X127960476Y-145859523D01*
X128008095Y-145954761D01*
X132548333Y-132057142D02*
X132500714Y-132104761D01*
X132357857Y-132152380D01*
X132262619Y-132152380D01*
X132119761Y-132104761D01*
X132024523Y-132009523D01*
X131976904Y-131914285D01*
X131929285Y-131723809D01*
X131929285Y-131580952D01*
X131976904Y-131390476D01*
X132024523Y-131295238D01*
X132119761Y-131200000D01*
X132262619Y-131152380D01*
X132357857Y-131152380D01*
X132500714Y-131200000D01*
X132548333Y-131247619D01*
X133500714Y-132152380D02*
X132929285Y-132152380D01*
X133215000Y-132152380D02*
X133215000Y-131152380D01*
X133119761Y-131295238D01*
X133024523Y-131390476D01*
X132929285Y-131438095D01*
X129841666Y-79057380D02*
X129841666Y-79771666D01*
X129794047Y-79914523D01*
X129698809Y-80009761D01*
X129555952Y-80057380D01*
X129460714Y-80057380D01*
X130270238Y-79152619D02*
X130317857Y-79105000D01*
X130413095Y-79057380D01*
X130651190Y-79057380D01*
X130746428Y-79105000D01*
X130794047Y-79152619D01*
X130841666Y-79247857D01*
X130841666Y-79343095D01*
X130794047Y-79485952D01*
X130222619Y-80057380D01*
X130841666Y-80057380D01*
X128977380Y-60769166D02*
X128501190Y-61102500D01*
X128977380Y-61340595D02*
X127977380Y-61340595D01*
X127977380Y-60959642D01*
X128025000Y-60864404D01*
X128072619Y-60816785D01*
X128167857Y-60769166D01*
X128310714Y-60769166D01*
X128405952Y-60816785D01*
X128453571Y-60864404D01*
X128501190Y-60959642D01*
X128501190Y-61340595D01*
X128977380Y-59816785D02*
X128977380Y-60388214D01*
X128977380Y-60102500D02*
X127977380Y-60102500D01*
X128120238Y-60197738D01*
X128215476Y-60292976D01*
X128263095Y-60388214D01*
X128157380Y-88368095D02*
X127157380Y-88368095D01*
X127157380Y-88130000D01*
X127205000Y-87987142D01*
X127300238Y-87891904D01*
X127395476Y-87844285D01*
X127585952Y-87796666D01*
X127728809Y-87796666D01*
X127919285Y-87844285D01*
X128014523Y-87891904D01*
X128109761Y-87987142D01*
X128157380Y-88130000D01*
X128157380Y-88368095D01*
X128157380Y-86844285D02*
X128157380Y-87415714D01*
X128157380Y-87130000D02*
X127157380Y-87130000D01*
X127300238Y-87225238D01*
X127395476Y-87320476D01*
X127443095Y-87415714D01*
X128527380Y-92971904D02*
X127527380Y-92971904D01*
X128527380Y-92400476D02*
X127955952Y-92829047D01*
X127527380Y-92400476D02*
X128098809Y-92971904D01*
X133041666Y-120102380D02*
X133041666Y-120816666D01*
X132994047Y-120959523D01*
X132898809Y-121054761D01*
X132755952Y-121102380D01*
X132660714Y-121102380D01*
X133422619Y-120102380D02*
X134041666Y-120102380D01*
X133708333Y-120483333D01*
X133851190Y-120483333D01*
X133946428Y-120530952D01*
X133994047Y-120578571D01*
X134041666Y-120673809D01*
X134041666Y-120911904D01*
X133994047Y-121007142D01*
X133946428Y-121054761D01*
X133851190Y-121102380D01*
X133565476Y-121102380D01*
X133470238Y-121054761D01*
X133422619Y-121007142D01*
X130471665Y-31955379D02*
X130138332Y-31479189D01*
X129900237Y-31955379D02*
X129900237Y-30955379D01*
X130281189Y-30955379D01*
X130376427Y-31002999D01*
X130424046Y-31050618D01*
X130471665Y-31145856D01*
X130471665Y-31288713D01*
X130424046Y-31383951D01*
X130376427Y-31431570D01*
X130281189Y-31479189D01*
X129900237Y-31479189D01*
X130900237Y-31431570D02*
X131233570Y-31431570D01*
X131376427Y-31955379D02*
X130900237Y-31955379D01*
X130900237Y-30955379D01*
X131376427Y-30955379D01*
X132138332Y-31431570D02*
X131804999Y-31431570D01*
X131804999Y-31955379D02*
X131804999Y-30955379D01*
X132281189Y-30955379D01*
X132804999Y-30955379D02*
X132804999Y-31193475D01*
X132566903Y-31098237D02*
X132804999Y-31193475D01*
X133043094Y-31098237D01*
X132662141Y-31383951D02*
X132804999Y-31193475D01*
X132947856Y-31383951D01*
X133566903Y-30955379D02*
X133566903Y-31193475D01*
X133328808Y-31098237D02*
X133566903Y-31193475D01*
X133804999Y-31098237D01*
X133424046Y-31383951D02*
X133566903Y-31193475D01*
X133709760Y-31383951D01*
X128977380Y-56324166D02*
X128501190Y-56657500D01*
X128977380Y-56895595D02*
X127977380Y-56895595D01*
X127977380Y-56514642D01*
X128025000Y-56419404D01*
X128072619Y-56371785D01*
X128167857Y-56324166D01*
X128310714Y-56324166D01*
X128405952Y-56371785D01*
X128453571Y-56419404D01*
X128501190Y-56514642D01*
X128501190Y-56895595D01*
X128072619Y-55943214D02*
X128025000Y-55895595D01*
X127977380Y-55800357D01*
X127977380Y-55562261D01*
X128025000Y-55467023D01*
X128072619Y-55419404D01*
X128167857Y-55371785D01*
X128263095Y-55371785D01*
X128405952Y-55419404D01*
X128977380Y-55990833D01*
X128977380Y-55371785D01*
X129206666Y-120102380D02*
X129206666Y-120816666D01*
X129159047Y-120959523D01*
X129063809Y-121054761D01*
X128920952Y-121102380D01*
X128825714Y-121102380D01*
X130111428Y-120435714D02*
X130111428Y-121102380D01*
X129873333Y-120054761D02*
X129635238Y-120769047D01*
X130254285Y-120769047D01*
X132802380Y-127919404D02*
X133611904Y-127919404D01*
X133707142Y-127871785D01*
X133754761Y-127824166D01*
X133802380Y-127728928D01*
X133802380Y-127538452D01*
X133754761Y-127443214D01*
X133707142Y-127395595D01*
X133611904Y-127347976D01*
X132802380Y-127347976D01*
X132802380Y-126395595D02*
X132802380Y-126871785D01*
X133278571Y-126919404D01*
X133230952Y-126871785D01*
X133183333Y-126776547D01*
X133183333Y-126538452D01*
X133230952Y-126443214D01*
X133278571Y-126395595D01*
X133373809Y-126347976D01*
X133611904Y-126347976D01*
X133707142Y-126395595D01*
X133754761Y-126443214D01*
X133802380Y-126538452D01*
X133802380Y-126776547D01*
X133754761Y-126871785D01*
X133707142Y-126919404D01*
X165523665Y-158786380D02*
X165190332Y-158310190D01*
X164952237Y-158786380D02*
X164952237Y-157786380D01*
X165333189Y-157786380D01*
X165428427Y-157834000D01*
X165476046Y-157881619D01*
X165523665Y-157976857D01*
X165523665Y-158119714D01*
X165476046Y-158214952D01*
X165428427Y-158262571D01*
X165333189Y-158310190D01*
X164952237Y-158310190D01*
X165952237Y-158262571D02*
X166285570Y-158262571D01*
X166428427Y-158786380D02*
X165952237Y-158786380D01*
X165952237Y-157786380D01*
X166428427Y-157786380D01*
X167190332Y-158262571D02*
X166856999Y-158262571D01*
X166856999Y-158786380D02*
X166856999Y-157786380D01*
X167333189Y-157786380D01*
X167856999Y-157786380D02*
X167856999Y-158024476D01*
X167618903Y-157929238D02*
X167856999Y-158024476D01*
X168095094Y-157929238D01*
X167714141Y-158214952D02*
X167856999Y-158024476D01*
X167999856Y-158214952D01*
X168618903Y-157786380D02*
X168618903Y-158024476D01*
X168380808Y-157929238D02*
X168618903Y-158024476D01*
X168856999Y-157929238D01*
X168476046Y-158214952D02*
X168618903Y-158024476D01*
X168761760Y-158214952D01*
D14*
X132735000Y-40160000D02*
X160635000Y-40160000D01*
X160635000Y-94560000D02*
X132735000Y-94560000D01*
X160635000Y-40160000D02*
X160635000Y-94560000D01*
X132735000Y-94560000D02*
X132735000Y-40160000D01*
D15*
X131505000Y-100330000D02*
X128845000Y-100330000D01*
X131505000Y-95190000D02*
X128845000Y-95190000D01*
X128845000Y-100330000D02*
X128845000Y-95190000D01*
X131505000Y-102930000D02*
X130175000Y-102930000D01*
X131505000Y-100330000D02*
X131505000Y-95190000D01*
X131505000Y-101600000D02*
X131505000Y-102930000D01*
X127635000Y-144780000D02*
X135255000Y-144780000D01*
X128905000Y-144780000D02*
X128905000Y-134620000D01*
X135255000Y-134620000D02*
X127635000Y-134620000D01*
X135255000Y-144780000D02*
X135255000Y-134620000D01*
X127635000Y-134620000D02*
X127635000Y-144780000D01*
X132487936Y-134085000D02*
X132942064Y-134085000D01*
X132487936Y-132615000D02*
X132942064Y-132615000D01*
X128845000Y-75565000D02*
X128845000Y-65345000D01*
X130175000Y-78165000D02*
X128845000Y-78165000D01*
X131505000Y-65345000D02*
X128845000Y-65345000D01*
X128845000Y-78165000D02*
X128845000Y-76835000D01*
X131505000Y-75565000D02*
X131505000Y-65345000D01*
X131505000Y-75565000D02*
X128845000Y-75565000D01*
X130910000Y-60829564D02*
X130910000Y-60375436D01*
X129440000Y-60829564D02*
X129440000Y-60375436D01*
X128705000Y-90350000D02*
X131645000Y-90350000D01*
X130175000Y-83890000D02*
X130175000Y-84910000D01*
X131645000Y-84910000D02*
X128705000Y-84910000D01*
X128705000Y-89450000D02*
X131645000Y-89450000D01*
X128705000Y-89570000D02*
X131645000Y-89570000D01*
X130175000Y-91370000D02*
X130175000Y-90350000D01*
X131645000Y-90350000D02*
X131645000Y-84910000D01*
X128705000Y-84910000D02*
X128705000Y-90350000D01*
X128705000Y-89330000D02*
X131645000Y-89330000D01*
X134705000Y-106650000D02*
X134705000Y-107980000D01*
X132045000Y-109250000D02*
X132045000Y-119470000D01*
X134705000Y-109250000D02*
X134705000Y-119470000D01*
X133375000Y-106650000D02*
X134705000Y-106650000D01*
X132045000Y-109250000D02*
X134705000Y-109250000D01*
X132045000Y-119470000D02*
X134705000Y-119470000D01*
X129440000Y-56384564D02*
X129440000Y-55930436D01*
X130910000Y-56384564D02*
X130910000Y-55930436D01*
X130895000Y-109250000D02*
X130895000Y-119470000D01*
X129565000Y-106650000D02*
X130895000Y-106650000D01*
X128235000Y-109250000D02*
X128235000Y-119470000D01*
X128235000Y-109250000D02*
X130895000Y-109250000D01*
X130895000Y-106650000D02*
X130895000Y-107980000D01*
X128235000Y-119470000D02*
X130895000Y-119470000D01*
X132535000Y-128060000D02*
X132305000Y-128060000D01*
X127815000Y-128060000D02*
X128045000Y-128060000D01*
X131225000Y-125340000D02*
X132535000Y-125340000D01*
X132535000Y-125340000D02*
X132535000Y-128060000D01*
X127815000Y-125340000D02*
X129125000Y-125340000D01*
X128045000Y-129200000D02*
X128045000Y-128060000D01*
X127815000Y-128060000D02*
X127815000Y-125340000D01*
%LPC*%
D16*
X167110999Y-43694999D03*
X167110999Y-46234999D03*
X167110999Y-48774999D03*
X167110999Y-51314999D03*
X167110999Y-53854999D03*
X167110999Y-56394999D03*
X167110999Y-58934999D03*
X167110999Y-61474999D03*
X167110999Y-64014999D03*
D17*
X137646999Y-64014999D03*
X137646999Y-43694999D03*
D18*
X133985000Y-47550000D03*
D19*
X133985000Y-50090000D03*
X133985000Y-52630000D03*
X133985000Y-55170000D03*
X133985000Y-57710000D03*
X133985000Y-60250000D03*
X133985000Y-62790000D03*
X133985000Y-65330000D03*
X133985000Y-67870000D03*
X133985000Y-70410000D03*
X133985000Y-72950000D03*
X133985000Y-75490000D03*
X133985000Y-78030000D03*
X133985000Y-80570000D03*
X133985000Y-83110000D03*
X133985000Y-85650000D03*
X133985000Y-88190000D03*
X133985000Y-90730000D03*
X133985000Y-93270000D03*
X159385000Y-47550000D03*
X159385000Y-50090000D03*
X159385000Y-52630000D03*
X159385000Y-55170000D03*
X159385000Y-57710000D03*
X159385000Y-60250000D03*
X159385000Y-62790000D03*
X159385000Y-65330000D03*
X159385000Y-67870000D03*
X159385000Y-70410000D03*
X159385000Y-72950000D03*
X159385000Y-75490000D03*
X159385000Y-78030000D03*
X159385000Y-80570000D03*
X159385000Y-83110000D03*
X159385000Y-85650000D03*
X159385000Y-88190000D03*
X159385000Y-90730000D03*
X159385000Y-93270000D03*
D20*
X130175000Y-101600000D03*
D21*
X130175000Y-99060000D03*
X130175000Y-96520000D03*
D22*
X131804999Y-153000000D03*
X166856999Y-36582999D03*
D23*
X131445000Y-137160000D03*
D24*
X131445000Y-142240000D03*
D25*
X131715000Y-133350000D03*
X133715000Y-133350000D03*
D20*
X130175000Y-76835000D03*
D21*
X130175000Y-74295000D03*
X130175000Y-71755000D03*
X130175000Y-69215000D03*
X130175000Y-66675000D03*
D26*
X130175000Y-61515000D03*
X130175000Y-59690000D03*
D27*
X130175000Y-92710000D03*
D28*
X130175000Y-82550000D03*
D29*
X133375000Y-107980000D03*
D21*
X133375000Y-110520000D03*
X133375000Y-113060000D03*
X133375000Y-115600000D03*
X133375000Y-118140000D03*
D22*
X131804999Y-36582999D03*
D26*
X130175000Y-57070000D03*
X130175000Y-55245000D03*
D29*
X129565000Y-107980000D03*
D21*
X129565000Y-110520000D03*
X129565000Y-113060000D03*
X129565000Y-115600000D03*
X129565000Y-118140000D03*
D30*
X128675000Y-129150000D03*
D31*
X130175000Y-129062500D03*
D30*
X131675000Y-129150000D03*
D22*
X166856999Y-153000000D03*
D16*
X166094999Y-71634999D03*
X166094999Y-74174999D03*
X166094999Y-76714999D03*
X166094999Y-79254999D03*
X166094999Y-81794999D03*
X166094999Y-84334999D03*
X166094999Y-86874999D03*
X166094999Y-89414999D03*
X166094999Y-91954999D03*
X140694999Y-81794999D03*
X140694999Y-79254999D03*
X140694999Y-76714999D03*
X140694999Y-74174999D03*
X140694999Y-71634999D03*
D21*
X142000000Y-135446420D03*
X162320000Y-140526420D03*
D32*
X143270000Y-101156420D03*
D21*
X142000000Y-117666420D03*
X162320000Y-110046420D03*
X142000000Y-122746420D03*
X162320000Y-137986420D03*
D20*
X162320000Y-104966420D03*
D21*
X142000000Y-132906420D03*
X142000000Y-143066420D03*
X142000000Y-137986420D03*
X162320000Y-143066420D03*
D32*
X161048349Y-101148581D03*
D21*
X162320000Y-122746420D03*
X142000000Y-140526420D03*
D20*
X142000000Y-115126420D03*
D21*
X142000000Y-125286420D03*
X142000000Y-120206420D03*
D32*
X161050000Y-146876420D03*
D21*
X162320000Y-117666420D03*
X162320000Y-115126420D03*
X162320000Y-127826420D03*
X142000000Y-127826420D03*
X162320000Y-120206420D03*
X162320000Y-125286420D03*
D32*
X143270000Y-146876420D03*
D21*
X162320000Y-107506420D03*
X162320000Y-132906420D03*
X162320000Y-135446420D03*
X162320000Y-130366420D03*
X142000000Y-130366420D03*
X162320000Y-112586420D03*
M02*
