G04 #@! TF.GenerationSoftware,KiCad,Pcbnew,(6.0.5)*
G04 #@! TF.CreationDate,2022-09-09T11:42:05-04:00*
G04 #@! TF.ProjectId,Buoy_WithoutGSM,42756f79-5f57-4697-9468-6f757447534d,Leonardo Ward*
G04 #@! TF.SameCoordinates,Original*
G04 #@! TF.FileFunction,Legend,Bot*
G04 #@! TF.FilePolarity,Positive*
%FSLAX46Y46*%
G04 Gerber Fmt 4.6, Leading zero omitted, Abs format (unit mm)*
G04 Created by KiCad (PCBNEW (6.0.5)) date 2022-09-09 11:42:05*
%MOMM*%
%LPD*%
G01*
G04 APERTURE LIST*
G04 Aperture macros list*
%AMRoundRect*
0 Rectangle with rounded corners*
0 $1 Rounding radius*
0 $2 $3 $4 $5 $6 $7 $8 $9 X,Y pos of 4 corners*
0 Add a 4 corners polygon primitive as box body*
4,1,4,$2,$3,$4,$5,$6,$7,$8,$9,$2,$3,0*
0 Add four circle primitives for the rounded corners*
1,1,$1+$1,$2,$3*
1,1,$1+$1,$4,$5*
1,1,$1+$1,$6,$7*
1,1,$1+$1,$8,$9*
0 Add four rect primitives between the rounded corners*
20,1,$1+$1,$2,$3,$4,$5,0*
20,1,$1+$1,$4,$5,$6,$7,0*
20,1,$1+$1,$6,$7,$8,$9,0*
20,1,$1+$1,$8,$9,$2,$3,0*%
G04 Aperture macros list end*
%ADD10C,0.300000*%
%ADD11C,0.150000*%
%ADD12C,0.120000*%
%ADD13C,1.624000*%
%ADD14C,2.640000*%
%ADD15RoundRect,0.050000X-0.780000X-0.780000X0.780000X-0.780000X0.780000X0.780000X-0.780000X0.780000X0*%
%ADD16C,1.660000*%
%ADD17RoundRect,0.050000X0.850000X0.850000X-0.850000X0.850000X-0.850000X-0.850000X0.850000X-0.850000X0*%
%ADD18O,1.800000X1.800000*%
%ADD19C,3.300000*%
%ADD20RoundRect,0.050000X-1.500000X1.500000X-1.500000X-1.500000X1.500000X-1.500000X1.500000X1.500000X0*%
%ADD21C,3.100000*%
%ADD22RoundRect,0.050000X1.100000X-1.100000X1.100000X1.100000X-1.100000X1.100000X-1.100000X-1.100000X0*%
%ADD23O,2.300000X2.300000*%
%ADD24RoundRect,0.050000X-0.850000X-0.850000X0.850000X-0.850000X0.850000X0.850000X-0.850000X0.850000X0*%
%ADD25RoundRect,0.300000X0.450000X-0.262500X0.450000X0.262500X-0.450000X0.262500X-0.450000X-0.262500X0*%
%ADD26C,2.800000*%
G04 APERTURE END LIST*
D10*
X159546427Y-38626999D02*
X159689284Y-38555570D01*
X159903570Y-38555570D01*
X160117856Y-38626999D01*
X160260713Y-38769856D01*
X160332141Y-38912713D01*
X160403570Y-39198427D01*
X160403570Y-39412713D01*
X160332141Y-39698427D01*
X160260713Y-39841284D01*
X160117856Y-39984141D01*
X159903570Y-40055570D01*
X159760713Y-40055570D01*
X159546427Y-39984141D01*
X159474999Y-39912713D01*
X159474999Y-39412713D01*
X159760713Y-39412713D01*
X158832141Y-40055570D02*
X158832141Y-38555570D01*
X158260713Y-38555570D01*
X158117856Y-38626999D01*
X158046427Y-38698427D01*
X157974999Y-38841284D01*
X157974999Y-39055570D01*
X158046427Y-39198427D01*
X158117856Y-39269856D01*
X158260713Y-39341284D01*
X158832141Y-39341284D01*
X157403570Y-39984141D02*
X157189284Y-40055570D01*
X156832141Y-40055570D01*
X156689284Y-39984141D01*
X156617856Y-39912713D01*
X156546427Y-39769856D01*
X156546427Y-39626999D01*
X156617856Y-39484141D01*
X156689284Y-39412713D01*
X156832141Y-39341284D01*
X157117856Y-39269856D01*
X157260713Y-39198427D01*
X157332141Y-39126999D01*
X157403570Y-38984141D01*
X157403570Y-38841284D01*
X157332141Y-38698427D01*
X157260713Y-38626999D01*
X157117856Y-38555570D01*
X156760713Y-38555570D01*
X156546427Y-38626999D01*
X166494999Y-97205570D02*
X167209284Y-97205570D01*
X167209284Y-95705570D01*
X165780713Y-97205570D02*
X165923570Y-97134141D01*
X165994999Y-97062713D01*
X166066427Y-96919856D01*
X166066427Y-96491284D01*
X165994999Y-96348427D01*
X165923570Y-96276999D01*
X165780713Y-96205570D01*
X165566427Y-96205570D01*
X165423570Y-96276999D01*
X165352141Y-96348427D01*
X165280713Y-96491284D01*
X165280713Y-96919856D01*
X165352141Y-97062713D01*
X165423570Y-97134141D01*
X165566427Y-97205570D01*
X165780713Y-97205570D01*
X163780713Y-97205570D02*
X164280713Y-96491284D01*
X164637856Y-97205570D02*
X164637856Y-95705570D01*
X164066427Y-95705570D01*
X163923570Y-95776999D01*
X163852141Y-95848427D01*
X163780713Y-95991284D01*
X163780713Y-96205570D01*
X163852141Y-96348427D01*
X163923570Y-96419856D01*
X164066427Y-96491284D01*
X164637856Y-96491284D01*
X162494999Y-97205570D02*
X162494999Y-96419856D01*
X162566427Y-96276999D01*
X162709284Y-96205570D01*
X162994999Y-96205570D01*
X163137856Y-96276999D01*
X162494999Y-97134141D02*
X162637856Y-97205570D01*
X162994999Y-97205570D01*
X163137856Y-97134141D01*
X163209284Y-96991284D01*
X163209284Y-96848427D01*
X163137856Y-96705570D01*
X162994999Y-96634141D01*
X162637856Y-96634141D01*
X162494999Y-96562713D01*
X159780713Y-97205570D02*
X160280713Y-96491284D01*
X160637856Y-97205570D02*
X160637856Y-95705570D01*
X160066427Y-95705570D01*
X159923570Y-95776999D01*
X159852141Y-95848427D01*
X159780713Y-95991284D01*
X159780713Y-96205570D01*
X159852141Y-96348427D01*
X159923570Y-96419856D01*
X160066427Y-96491284D01*
X160637856Y-96491284D01*
X158637856Y-96419856D02*
X159137856Y-96419856D01*
X159137856Y-97205570D02*
X159137856Y-95705570D01*
X158423570Y-95705570D01*
X157852141Y-97205570D02*
X157852141Y-95705570D01*
X157352141Y-96776999D01*
X156852141Y-95705570D01*
X156852141Y-97205570D01*
X156066427Y-97205570D02*
X155780713Y-97205570D01*
X155637856Y-97134141D01*
X155566427Y-97062713D01*
X155423570Y-96848427D01*
X155352141Y-96562713D01*
X155352141Y-95991284D01*
X155423570Y-95848427D01*
X155494999Y-95776999D01*
X155637856Y-95705570D01*
X155923570Y-95705570D01*
X156066427Y-95776999D01*
X156137856Y-95848427D01*
X156209284Y-95991284D01*
X156209284Y-96348427D01*
X156137856Y-96491284D01*
X156066427Y-96562713D01*
X155923570Y-96634141D01*
X155637856Y-96634141D01*
X155494999Y-96562713D01*
X155423570Y-96491284D01*
X155352141Y-96348427D01*
X153994999Y-95705570D02*
X154709284Y-95705570D01*
X154780713Y-96419856D01*
X154709284Y-96348427D01*
X154566427Y-96276999D01*
X154209284Y-96276999D01*
X154066427Y-96348427D01*
X153994999Y-96419856D01*
X153923570Y-96562713D01*
X153923570Y-96919856D01*
X153994999Y-97062713D01*
X154066427Y-97134141D01*
X154209284Y-97205570D01*
X154566427Y-97205570D01*
X154709284Y-97134141D01*
X154780713Y-97062713D01*
X153423570Y-95705570D02*
X153066427Y-97205570D01*
X152780713Y-96134141D01*
X152494999Y-97205570D01*
X152137856Y-95705570D01*
X165207142Y-143052142D02*
X165207142Y-142552142D01*
X164421428Y-142337857D02*
X164421428Y-143052142D01*
X165921428Y-143052142D01*
X165921428Y-142337857D01*
X165421428Y-141909285D02*
X165421428Y-141337857D01*
X165921428Y-141695000D02*
X164635714Y-141695000D01*
X164492857Y-141623571D01*
X164421428Y-141480714D01*
X164421428Y-141337857D01*
X164421428Y-140837857D02*
X165921428Y-140837857D01*
X164421428Y-140195000D02*
X165207142Y-140195000D01*
X165350000Y-140266428D01*
X165421428Y-140409285D01*
X165421428Y-140623571D01*
X165350000Y-140766428D01*
X165278571Y-140837857D01*
X164492857Y-138909285D02*
X164421428Y-139052142D01*
X164421428Y-139337857D01*
X164492857Y-139480714D01*
X164635714Y-139552142D01*
X165207142Y-139552142D01*
X165350000Y-139480714D01*
X165421428Y-139337857D01*
X165421428Y-139052142D01*
X165350000Y-138909285D01*
X165207142Y-138837857D01*
X165064285Y-138837857D01*
X164921428Y-139552142D01*
X164421428Y-138195000D02*
X165421428Y-138195000D01*
X165135714Y-138195000D02*
X165278571Y-138123571D01*
X165350000Y-138052142D01*
X165421428Y-137909285D01*
X165421428Y-137766428D01*
X165421428Y-137266428D02*
X164421428Y-137266428D01*
X165278571Y-137266428D02*
X165350000Y-137195000D01*
X165421428Y-137052142D01*
X165421428Y-136837857D01*
X165350000Y-136695000D01*
X165207142Y-136623571D01*
X164421428Y-136623571D01*
X164492857Y-135337857D02*
X164421428Y-135480714D01*
X164421428Y-135766428D01*
X164492857Y-135909285D01*
X164635714Y-135980714D01*
X165207142Y-135980714D01*
X165350000Y-135909285D01*
X165421428Y-135766428D01*
X165421428Y-135480714D01*
X165350000Y-135337857D01*
X165207142Y-135266428D01*
X165064285Y-135266428D01*
X164921428Y-135980714D01*
X165421428Y-134837857D02*
X165421428Y-134266428D01*
X165921428Y-134623571D02*
X164635714Y-134623571D01*
X164492857Y-134552142D01*
X164421428Y-134409285D01*
X164421428Y-134266428D01*
X165207142Y-132123571D02*
X165207142Y-132623571D01*
X164421428Y-132623571D02*
X165921428Y-132623571D01*
X165921428Y-131909285D01*
X164492857Y-130766428D02*
X164421428Y-130909285D01*
X164421428Y-131195000D01*
X164492857Y-131337857D01*
X164635714Y-131409285D01*
X165207142Y-131409285D01*
X165350000Y-131337857D01*
X165421428Y-131195000D01*
X165421428Y-130909285D01*
X165350000Y-130766428D01*
X165207142Y-130695000D01*
X165064285Y-130695000D01*
X164921428Y-131409285D01*
X164421428Y-129409285D02*
X165207142Y-129409285D01*
X165350000Y-129480714D01*
X165421428Y-129623571D01*
X165421428Y-129909285D01*
X165350000Y-130052142D01*
X164492857Y-129409285D02*
X164421428Y-129552142D01*
X164421428Y-129909285D01*
X164492857Y-130052142D01*
X164635714Y-130123571D01*
X164778571Y-130123571D01*
X164921428Y-130052142D01*
X164992857Y-129909285D01*
X164992857Y-129552142D01*
X165064285Y-129409285D01*
X165421428Y-128909285D02*
X165421428Y-128337857D01*
X165921428Y-128695000D02*
X164635714Y-128695000D01*
X164492857Y-128623571D01*
X164421428Y-128480714D01*
X164421428Y-128337857D01*
X164421428Y-127837857D02*
X165921428Y-127837857D01*
X164421428Y-127195000D02*
X165207142Y-127195000D01*
X165350000Y-127266428D01*
X165421428Y-127409285D01*
X165421428Y-127623571D01*
X165350000Y-127766428D01*
X165278571Y-127837857D01*
X164492857Y-125909285D02*
X164421428Y-126052142D01*
X164421428Y-126337857D01*
X164492857Y-126480714D01*
X164635714Y-126552142D01*
X165207142Y-126552142D01*
X165350000Y-126480714D01*
X165421428Y-126337857D01*
X165421428Y-126052142D01*
X165350000Y-125909285D01*
X165207142Y-125837857D01*
X165064285Y-125837857D01*
X164921428Y-126552142D01*
X164421428Y-125195000D02*
X165421428Y-125195000D01*
X165135714Y-125195000D02*
X165278571Y-125123571D01*
X165350000Y-125052142D01*
X165421428Y-124909285D01*
X165421428Y-124766428D01*
X165921428Y-124409285D02*
X164421428Y-124052142D01*
X165492857Y-123766428D01*
X164421428Y-123480714D01*
X165921428Y-123123571D01*
X164421428Y-122552142D02*
X165421428Y-122552142D01*
X165921428Y-122552142D02*
X165850000Y-122623571D01*
X165778571Y-122552142D01*
X165850000Y-122480714D01*
X165921428Y-122552142D01*
X165778571Y-122552142D01*
X165421428Y-121837857D02*
X164421428Y-121837857D01*
X165278571Y-121837857D02*
X165350000Y-121766428D01*
X165421428Y-121623571D01*
X165421428Y-121409285D01*
X165350000Y-121266428D01*
X165207142Y-121195000D01*
X164421428Y-121195000D01*
X165421428Y-119837857D02*
X164207142Y-119837857D01*
X164064285Y-119909285D01*
X163992857Y-119980714D01*
X163921428Y-120123571D01*
X163921428Y-120337857D01*
X163992857Y-120480714D01*
X164492857Y-119837857D02*
X164421428Y-119980714D01*
X164421428Y-120266428D01*
X164492857Y-120409285D01*
X164564285Y-120480714D01*
X164707142Y-120552142D01*
X165135714Y-120552142D01*
X165278571Y-120480714D01*
X165350000Y-120409285D01*
X165421428Y-120266428D01*
X165421428Y-119980714D01*
X165350000Y-119837857D01*
D11*
X152886903Y-67277379D02*
X152886903Y-68086903D01*
X152839284Y-68182141D01*
X152791665Y-68229760D01*
X152696427Y-68277379D01*
X152505951Y-68277379D01*
X152410713Y-68229760D01*
X152363094Y-68182141D01*
X152315475Y-68086903D01*
X152315475Y-67277379D01*
X151315475Y-68277379D02*
X151886903Y-68277379D01*
X151601189Y-68277379D02*
X151601189Y-67277379D01*
X151696427Y-67420237D01*
X151791665Y-67515475D01*
X151886903Y-67563094D01*
X165251403Y-64467379D02*
X165251403Y-63467379D01*
X164870451Y-63467379D01*
X164775213Y-63514999D01*
X164727594Y-63562618D01*
X164679975Y-63657856D01*
X164679975Y-63800713D01*
X164727594Y-63895951D01*
X164775213Y-63943570D01*
X164870451Y-63991189D01*
X165251403Y-63991189D01*
X164251403Y-64467379D02*
X164251403Y-63467379D01*
X163870451Y-63467379D01*
X163775213Y-63514999D01*
X163727594Y-63562618D01*
X163679975Y-63657856D01*
X163679975Y-63800713D01*
X163727594Y-63895951D01*
X163775213Y-63943570D01*
X163870451Y-63991189D01*
X164251403Y-63991189D01*
X163299022Y-64419760D02*
X163156165Y-64467379D01*
X162918070Y-64467379D01*
X162822832Y-64419760D01*
X162775213Y-64372141D01*
X162727594Y-64276903D01*
X162727594Y-64181665D01*
X162775213Y-64086427D01*
X162822832Y-64038808D01*
X162918070Y-63991189D01*
X163108546Y-63943570D01*
X163203784Y-63895951D01*
X163251403Y-63848332D01*
X163299022Y-63753094D01*
X163299022Y-63657856D01*
X163251403Y-63562618D01*
X163203784Y-63514999D01*
X163108546Y-63467379D01*
X162870451Y-63467379D01*
X162727594Y-63514999D01*
X165394260Y-60927379D02*
X165060927Y-61927379D01*
X164727594Y-60927379D01*
X164394260Y-61927379D02*
X164394260Y-60927379D01*
X163918070Y-61927379D02*
X163918070Y-60927379D01*
X163346641Y-61927379D01*
X163346641Y-60927379D01*
X165394260Y-53307379D02*
X164822832Y-53307379D01*
X165108546Y-54307379D02*
X165108546Y-53307379D01*
X164584737Y-53307379D02*
X163918070Y-54307379D01*
X163918070Y-53307379D02*
X164584737Y-54307379D01*
X165251403Y-46163570D02*
X164918070Y-46163570D01*
X164775213Y-46687379D02*
X165251403Y-46687379D01*
X165251403Y-45687379D01*
X164775213Y-45687379D01*
X164346641Y-46687379D02*
X164346641Y-45687379D01*
X163775213Y-46687379D01*
X163775213Y-45687379D01*
X164679975Y-56847379D02*
X165013308Y-56371189D01*
X165251403Y-56847379D02*
X165251403Y-55847379D01*
X164870451Y-55847379D01*
X164775213Y-55894999D01*
X164727594Y-55942618D01*
X164679975Y-56037856D01*
X164679975Y-56180713D01*
X164727594Y-56275951D01*
X164775213Y-56323570D01*
X164870451Y-56371189D01*
X165251403Y-56371189D01*
X164346641Y-55847379D02*
X163679975Y-56847379D01*
X163679975Y-55847379D02*
X164346641Y-56847379D01*
X164918070Y-51243570D02*
X165251403Y-51243570D01*
X165251403Y-51767379D02*
X165251403Y-50767379D01*
X164775213Y-50767379D01*
X164394260Y-51767379D02*
X164394260Y-50767379D01*
X164013308Y-50767379D02*
X163346641Y-51767379D01*
X163346641Y-50767379D02*
X164013308Y-51767379D01*
X165394260Y-48227379D02*
X165060927Y-49227379D01*
X164727594Y-48227379D01*
X164060927Y-48703570D02*
X163918070Y-48751189D01*
X163870451Y-48798808D01*
X163822832Y-48894046D01*
X163822832Y-49036903D01*
X163870451Y-49132141D01*
X163918070Y-49179760D01*
X164013308Y-49227379D01*
X164394260Y-49227379D01*
X164394260Y-48227379D01*
X164060927Y-48227379D01*
X163965689Y-48274999D01*
X163918070Y-48322618D01*
X163870451Y-48417856D01*
X163870451Y-48513094D01*
X163918070Y-48608332D01*
X163965689Y-48655951D01*
X164060927Y-48703570D01*
X164394260Y-48703570D01*
X163441879Y-48941665D02*
X162965689Y-48941665D01*
X163537118Y-49227379D02*
X163203784Y-48227379D01*
X162870451Y-49227379D01*
X162679975Y-48227379D02*
X162108546Y-48227379D01*
X162394260Y-49227379D02*
X162394260Y-48227379D01*
X165346641Y-43147379D02*
X164727594Y-43147379D01*
X165060927Y-43528332D01*
X164918070Y-43528332D01*
X164822832Y-43575951D01*
X164775213Y-43623570D01*
X164727594Y-43718808D01*
X164727594Y-43956903D01*
X164775213Y-44052141D01*
X164822832Y-44099760D01*
X164918070Y-44147379D01*
X165203784Y-44147379D01*
X165299022Y-44099760D01*
X165346641Y-44052141D01*
X164299022Y-44052141D02*
X164251403Y-44099760D01*
X164299022Y-44147379D01*
X164346641Y-44099760D01*
X164299022Y-44052141D01*
X164299022Y-44147379D01*
X163918070Y-43147379D02*
X163299022Y-43147379D01*
X163632356Y-43528332D01*
X163489499Y-43528332D01*
X163394260Y-43575951D01*
X163346641Y-43623570D01*
X163299022Y-43718808D01*
X163299022Y-43956903D01*
X163346641Y-44052141D01*
X163394260Y-44099760D01*
X163489499Y-44147379D01*
X163775213Y-44147379D01*
X163870451Y-44099760D01*
X163918070Y-44052141D01*
X163013308Y-43147379D02*
X162679975Y-44147379D01*
X162346641Y-43147379D01*
X164727594Y-58434999D02*
X164822832Y-58387379D01*
X164965689Y-58387379D01*
X165108546Y-58434999D01*
X165203784Y-58530237D01*
X165251403Y-58625475D01*
X165299022Y-58815951D01*
X165299022Y-58958808D01*
X165251403Y-59149284D01*
X165203784Y-59244522D01*
X165108546Y-59339760D01*
X164965689Y-59387379D01*
X164870451Y-59387379D01*
X164727594Y-59339760D01*
X164679975Y-59292141D01*
X164679975Y-58958808D01*
X164870451Y-58958808D01*
X164251403Y-59387379D02*
X164251403Y-58387379D01*
X163679975Y-59387379D01*
X163679975Y-58387379D01*
X163203784Y-59387379D02*
X163203784Y-58387379D01*
X162965689Y-58387379D01*
X162822832Y-58434999D01*
X162727594Y-58530237D01*
X162679975Y-58625475D01*
X162632356Y-58815951D01*
X162632356Y-58958808D01*
X162679975Y-59149284D01*
X162727594Y-59244522D01*
X162822832Y-59339760D01*
X162965689Y-59387379D01*
X163203784Y-59387379D01*
X149584903Y-92677379D02*
X149584903Y-93486903D01*
X149537284Y-93582141D01*
X149489665Y-93629760D01*
X149394427Y-93677379D01*
X149203951Y-93677379D01*
X149108713Y-93629760D01*
X149061094Y-93582141D01*
X149013475Y-93486903D01*
X149013475Y-92677379D01*
X148632522Y-92677379D02*
X148013475Y-92677379D01*
X148346808Y-93058332D01*
X148203951Y-93058332D01*
X148108713Y-93105951D01*
X148061094Y-93153570D01*
X148013475Y-93248808D01*
X148013475Y-93486903D01*
X148061094Y-93582141D01*
X148108713Y-93629760D01*
X148203951Y-93677379D01*
X148489665Y-93677379D01*
X148584903Y-93629760D01*
X148632522Y-93582141D01*
X163267022Y-82199760D02*
X163124165Y-82247379D01*
X162886070Y-82247379D01*
X162790832Y-82199760D01*
X162743213Y-82152141D01*
X162695594Y-82056903D01*
X162695594Y-81961665D01*
X162743213Y-81866427D01*
X162790832Y-81818808D01*
X162886070Y-81771189D01*
X163076546Y-81723570D01*
X163171784Y-81675951D01*
X163219403Y-81628332D01*
X163267022Y-81533094D01*
X163267022Y-81437856D01*
X163219403Y-81342618D01*
X163171784Y-81294999D01*
X163076546Y-81247379D01*
X162838451Y-81247379D01*
X162695594Y-81294999D01*
X161695594Y-82152141D02*
X161743213Y-82199760D01*
X161886070Y-82247379D01*
X161981308Y-82247379D01*
X162124165Y-82199760D01*
X162219403Y-82104522D01*
X162267022Y-82009284D01*
X162314641Y-81818808D01*
X162314641Y-81675951D01*
X162267022Y-81485475D01*
X162219403Y-81390237D01*
X162124165Y-81294999D01*
X161981308Y-81247379D01*
X161886070Y-81247379D01*
X161743213Y-81294999D01*
X161695594Y-81342618D01*
X161267022Y-82247379D02*
X161267022Y-81247379D01*
X160695594Y-82247379D02*
X161124165Y-81675951D01*
X160695594Y-81247379D02*
X161267022Y-81818808D01*
X162647975Y-89772141D02*
X162695594Y-89819760D01*
X162838451Y-89867379D01*
X162933689Y-89867379D01*
X163076546Y-89819760D01*
X163171784Y-89724522D01*
X163219403Y-89629284D01*
X163267022Y-89438808D01*
X163267022Y-89295951D01*
X163219403Y-89105475D01*
X163171784Y-89010237D01*
X163076546Y-88914999D01*
X162933689Y-88867379D01*
X162838451Y-88867379D01*
X162695594Y-88914999D01*
X162647975Y-88962618D01*
X162267022Y-89819760D02*
X162124165Y-89867379D01*
X161886070Y-89867379D01*
X161790832Y-89819760D01*
X161743213Y-89772141D01*
X161695594Y-89676903D01*
X161695594Y-89581665D01*
X161743213Y-89486427D01*
X161790832Y-89438808D01*
X161886070Y-89391189D01*
X162076546Y-89343570D01*
X162171784Y-89295951D01*
X162219403Y-89248332D01*
X162267022Y-89153094D01*
X162267022Y-89057856D01*
X162219403Y-88962618D01*
X162171784Y-88914999D01*
X162076546Y-88867379D01*
X161838451Y-88867379D01*
X161695594Y-88914999D01*
X162695594Y-73674999D02*
X162790832Y-73627379D01*
X162933689Y-73627379D01*
X163076546Y-73674999D01*
X163171784Y-73770237D01*
X163219403Y-73865475D01*
X163267022Y-74055951D01*
X163267022Y-74198808D01*
X163219403Y-74389284D01*
X163171784Y-74484522D01*
X163076546Y-74579760D01*
X162933689Y-74627379D01*
X162838451Y-74627379D01*
X162695594Y-74579760D01*
X162647975Y-74532141D01*
X162647975Y-74198808D01*
X162838451Y-74198808D01*
X162219403Y-74627379D02*
X162219403Y-73627379D01*
X161647975Y-74627379D01*
X161647975Y-73627379D01*
X161171784Y-74627379D02*
X161171784Y-73627379D01*
X160933689Y-73627379D01*
X160790832Y-73674999D01*
X160695594Y-73770237D01*
X160647975Y-73865475D01*
X160600356Y-74055951D01*
X160600356Y-74198808D01*
X160647975Y-74389284D01*
X160695594Y-74484522D01*
X160790832Y-74579760D01*
X160933689Y-74627379D01*
X161171784Y-74627379D01*
X144522975Y-76214999D02*
X144618213Y-76167379D01*
X144761070Y-76167379D01*
X144903927Y-76214999D01*
X144999165Y-76310237D01*
X145046784Y-76405475D01*
X145094403Y-76595951D01*
X145094403Y-76738808D01*
X145046784Y-76929284D01*
X144999165Y-77024522D01*
X144903927Y-77119760D01*
X144761070Y-77167379D01*
X144665832Y-77167379D01*
X144522975Y-77119760D01*
X144475356Y-77072141D01*
X144475356Y-76738808D01*
X144665832Y-76738808D01*
X144142022Y-76167379D02*
X143522975Y-76167379D01*
X143856308Y-76548332D01*
X143713451Y-76548332D01*
X143618213Y-76595951D01*
X143570594Y-76643570D01*
X143522975Y-76738808D01*
X143522975Y-76976903D01*
X143570594Y-77072141D01*
X143618213Y-77119760D01*
X143713451Y-77167379D01*
X143999165Y-77167379D01*
X144094403Y-77119760D01*
X144142022Y-77072141D01*
X144522975Y-81294999D02*
X144618213Y-81247379D01*
X144761070Y-81247379D01*
X144903927Y-81294999D01*
X144999165Y-81390237D01*
X145046784Y-81485475D01*
X145094403Y-81675951D01*
X145094403Y-81818808D01*
X145046784Y-82009284D01*
X144999165Y-82104522D01*
X144903927Y-82199760D01*
X144761070Y-82247379D01*
X144665832Y-82247379D01*
X144522975Y-82199760D01*
X144475356Y-82152141D01*
X144475356Y-81818808D01*
X144665832Y-81818808D01*
X143570594Y-81247379D02*
X144046784Y-81247379D01*
X144094403Y-81723570D01*
X144046784Y-81675951D01*
X143951546Y-81628332D01*
X143713451Y-81628332D01*
X143618213Y-81675951D01*
X143570594Y-81723570D01*
X143522975Y-81818808D01*
X143522975Y-82056903D01*
X143570594Y-82152141D01*
X143618213Y-82199760D01*
X143713451Y-82247379D01*
X143951546Y-82247379D01*
X144046784Y-82199760D01*
X144094403Y-82152141D01*
X144522975Y-78754999D02*
X144618213Y-78707379D01*
X144761070Y-78707379D01*
X144903927Y-78754999D01*
X144999165Y-78850237D01*
X145046784Y-78945475D01*
X145094403Y-79135951D01*
X145094403Y-79278808D01*
X145046784Y-79469284D01*
X144999165Y-79564522D01*
X144903927Y-79659760D01*
X144761070Y-79707379D01*
X144665832Y-79707379D01*
X144522975Y-79659760D01*
X144475356Y-79612141D01*
X144475356Y-79278808D01*
X144665832Y-79278808D01*
X143618213Y-79040713D02*
X143618213Y-79707379D01*
X143856308Y-78659760D02*
X144094403Y-79374046D01*
X143475356Y-79374046D01*
X163362260Y-71087379D02*
X163028927Y-72087379D01*
X162695594Y-71087379D01*
X162362260Y-72087379D02*
X162362260Y-71087379D01*
X161886070Y-72087379D02*
X161886070Y-71087379D01*
X161314641Y-72087379D01*
X161314641Y-71087379D01*
X163219403Y-76643570D02*
X162886070Y-76643570D01*
X162743213Y-77167379D02*
X163219403Y-77167379D01*
X163219403Y-76167379D01*
X162743213Y-76167379D01*
X162314641Y-77167379D02*
X162314641Y-76167379D01*
X161743213Y-77167379D01*
X161743213Y-76167379D01*
X163219403Y-87327379D02*
X163219403Y-86327379D01*
X162886070Y-87041665D01*
X162552737Y-86327379D01*
X162552737Y-87327379D01*
X161886070Y-86327379D02*
X161695594Y-86327379D01*
X161600356Y-86374999D01*
X161505118Y-86470237D01*
X161457499Y-86660713D01*
X161457499Y-86994046D01*
X161505118Y-87184522D01*
X161600356Y-87279760D01*
X161695594Y-87327379D01*
X161886070Y-87327379D01*
X161981308Y-87279760D01*
X162076546Y-87184522D01*
X162124165Y-86994046D01*
X162124165Y-86660713D01*
X162076546Y-86470237D01*
X161981308Y-86374999D01*
X161886070Y-86327379D01*
X161076546Y-87279760D02*
X160933689Y-87327379D01*
X160695594Y-87327379D01*
X160600356Y-87279760D01*
X160552737Y-87232141D01*
X160505118Y-87136903D01*
X160505118Y-87041665D01*
X160552737Y-86946427D01*
X160600356Y-86898808D01*
X160695594Y-86851189D01*
X160886070Y-86803570D01*
X160981308Y-86755951D01*
X161028927Y-86708332D01*
X161076546Y-86613094D01*
X161076546Y-86517856D01*
X161028927Y-86422618D01*
X160981308Y-86374999D01*
X160886070Y-86327379D01*
X160647975Y-86327379D01*
X160505118Y-86374999D01*
X160076546Y-87327379D02*
X160076546Y-86327379D01*
X144522975Y-71134999D02*
X144618213Y-71087379D01*
X144761070Y-71087379D01*
X144903927Y-71134999D01*
X144999165Y-71230237D01*
X145046784Y-71325475D01*
X145094403Y-71515951D01*
X145094403Y-71658808D01*
X145046784Y-71849284D01*
X144999165Y-71944522D01*
X144903927Y-72039760D01*
X144761070Y-72087379D01*
X144665832Y-72087379D01*
X144522975Y-72039760D01*
X144475356Y-71992141D01*
X144475356Y-71658808D01*
X144665832Y-71658808D01*
X143522975Y-72087379D02*
X144094403Y-72087379D01*
X143808689Y-72087379D02*
X143808689Y-71087379D01*
X143903927Y-71230237D01*
X143999165Y-71325475D01*
X144094403Y-71373094D01*
X163219403Y-84787379D02*
X163219403Y-83787379D01*
X162886070Y-84501665D01*
X162552737Y-83787379D01*
X162552737Y-84787379D01*
X162076546Y-84787379D02*
X162076546Y-83787379D01*
X161647975Y-84739760D02*
X161505118Y-84787379D01*
X161267022Y-84787379D01*
X161171784Y-84739760D01*
X161124165Y-84692141D01*
X161076546Y-84596903D01*
X161076546Y-84501665D01*
X161124165Y-84406427D01*
X161171784Y-84358808D01*
X161267022Y-84311189D01*
X161457499Y-84263570D01*
X161552737Y-84215951D01*
X161600356Y-84168332D01*
X161647975Y-84073094D01*
X161647975Y-83977856D01*
X161600356Y-83882618D01*
X161552737Y-83834999D01*
X161457499Y-83787379D01*
X161219403Y-83787379D01*
X161076546Y-83834999D01*
X160457499Y-83787379D02*
X160267022Y-83787379D01*
X160171784Y-83834999D01*
X160076546Y-83930237D01*
X160028927Y-84120713D01*
X160028927Y-84454046D01*
X160076546Y-84644522D01*
X160171784Y-84739760D01*
X160267022Y-84787379D01*
X160457499Y-84787379D01*
X160552737Y-84739760D01*
X160647975Y-84644522D01*
X160695594Y-84454046D01*
X160695594Y-84120713D01*
X160647975Y-83930237D01*
X160552737Y-83834999D01*
X160457499Y-83787379D01*
X144522975Y-73674999D02*
X144618213Y-73627379D01*
X144761070Y-73627379D01*
X144903927Y-73674999D01*
X144999165Y-73770237D01*
X145046784Y-73865475D01*
X145094403Y-74055951D01*
X145094403Y-74198808D01*
X145046784Y-74389284D01*
X144999165Y-74484522D01*
X144903927Y-74579760D01*
X144761070Y-74627379D01*
X144665832Y-74627379D01*
X144522975Y-74579760D01*
X144475356Y-74532141D01*
X144475356Y-74198808D01*
X144665832Y-74198808D01*
X144094403Y-73722618D02*
X144046784Y-73674999D01*
X143951546Y-73627379D01*
X143713451Y-73627379D01*
X143618213Y-73674999D01*
X143570594Y-73722618D01*
X143522975Y-73817856D01*
X143522975Y-73913094D01*
X143570594Y-74055951D01*
X144142022Y-74627379D01*
X143522975Y-74627379D01*
X162647975Y-92407379D02*
X162981308Y-91931189D01*
X163219403Y-92407379D02*
X163219403Y-91407379D01*
X162838451Y-91407379D01*
X162743213Y-91454999D01*
X162695594Y-91502618D01*
X162647975Y-91597856D01*
X162647975Y-91740713D01*
X162695594Y-91835951D01*
X162743213Y-91883570D01*
X162838451Y-91931189D01*
X163219403Y-91931189D01*
X162267022Y-92359760D02*
X162124165Y-92407379D01*
X161886070Y-92407379D01*
X161790832Y-92359760D01*
X161743213Y-92312141D01*
X161695594Y-92216903D01*
X161695594Y-92121665D01*
X161743213Y-92026427D01*
X161790832Y-91978808D01*
X161886070Y-91931189D01*
X162076546Y-91883570D01*
X162171784Y-91835951D01*
X162219403Y-91788332D01*
X162267022Y-91693094D01*
X162267022Y-91597856D01*
X162219403Y-91502618D01*
X162171784Y-91454999D01*
X162076546Y-91407379D01*
X161838451Y-91407379D01*
X161695594Y-91454999D01*
X161409879Y-91407379D02*
X160838451Y-91407379D01*
X161124165Y-92407379D02*
X161124165Y-91407379D01*
X162695594Y-78754999D02*
X162790832Y-78707379D01*
X162933689Y-78707379D01*
X163076546Y-78754999D01*
X163171784Y-78850237D01*
X163219403Y-78945475D01*
X163267022Y-79135951D01*
X163267022Y-79278808D01*
X163219403Y-79469284D01*
X163171784Y-79564522D01*
X163076546Y-79659760D01*
X162933689Y-79707379D01*
X162838451Y-79707379D01*
X162695594Y-79659760D01*
X162647975Y-79612141D01*
X162647975Y-79278808D01*
X162838451Y-79278808D01*
X162028927Y-78707379D02*
X161933689Y-78707379D01*
X161838451Y-78754999D01*
X161790832Y-78802618D01*
X161743213Y-78897856D01*
X161695594Y-79088332D01*
X161695594Y-79326427D01*
X161743213Y-79516903D01*
X161790832Y-79612141D01*
X161838451Y-79659760D01*
X161933689Y-79707379D01*
X162028927Y-79707379D01*
X162124165Y-79659760D01*
X162171784Y-79612141D01*
X162219403Y-79516903D01*
X162267022Y-79326427D01*
X162267022Y-79088332D01*
X162219403Y-78897856D01*
X162171784Y-78802618D01*
X162124165Y-78754999D01*
X162028927Y-78707379D01*
X136056666Y-105862380D02*
X136390000Y-105386190D01*
X136628095Y-105862380D02*
X136628095Y-104862380D01*
X136247142Y-104862380D01*
X136151904Y-104910000D01*
X136104285Y-104957619D01*
X136056666Y-105052857D01*
X136056666Y-105195714D01*
X136104285Y-105290952D01*
X136151904Y-105338571D01*
X136247142Y-105386190D01*
X136628095Y-105386190D01*
X135199523Y-105195714D02*
X135199523Y-105862380D01*
X135437619Y-104814761D02*
X135675714Y-105529047D01*
X135056666Y-105529047D01*
X138596666Y-105862380D02*
X138930000Y-105386190D01*
X139168095Y-105862380D02*
X139168095Y-104862380D01*
X138787142Y-104862380D01*
X138691904Y-104910000D01*
X138644285Y-104957619D01*
X138596666Y-105052857D01*
X138596666Y-105195714D01*
X138644285Y-105290952D01*
X138691904Y-105338571D01*
X138787142Y-105386190D01*
X139168095Y-105386190D01*
X138263333Y-104862380D02*
X137644285Y-104862380D01*
X137977619Y-105243333D01*
X137834761Y-105243333D01*
X137739523Y-105290952D01*
X137691904Y-105338571D01*
X137644285Y-105433809D01*
X137644285Y-105671904D01*
X137691904Y-105767142D01*
X137739523Y-105814761D01*
X137834761Y-105862380D01*
X138120476Y-105862380D01*
X138215714Y-105814761D01*
X138263333Y-105767142D01*
X165012619Y-145541904D02*
X164203095Y-145541904D01*
X164107857Y-145494285D01*
X164060238Y-145446666D01*
X164012619Y-145351428D01*
X164012619Y-145160952D01*
X164060238Y-145065714D01*
X164107857Y-145018095D01*
X164203095Y-144970476D01*
X165012619Y-144970476D01*
X164679285Y-144065714D02*
X164012619Y-144065714D01*
X165060238Y-144303809D02*
X164345952Y-144541904D01*
X164345952Y-143922857D01*
X159444404Y-135898800D02*
X159444404Y-134898800D01*
X159111071Y-135613086D01*
X158777738Y-134898800D01*
X158777738Y-135898800D01*
X158301547Y-135898800D02*
X158301547Y-134898800D01*
X157872976Y-135851181D02*
X157730119Y-135898800D01*
X157492023Y-135898800D01*
X157396785Y-135851181D01*
X157349166Y-135803562D01*
X157301547Y-135708324D01*
X157301547Y-135613086D01*
X157349166Y-135517848D01*
X157396785Y-135470229D01*
X157492023Y-135422610D01*
X157682500Y-135374991D01*
X157777738Y-135327372D01*
X157825357Y-135279753D01*
X157872976Y-135184515D01*
X157872976Y-135089277D01*
X157825357Y-134994039D01*
X157777738Y-134946420D01*
X157682500Y-134898800D01*
X157444404Y-134898800D01*
X157301547Y-134946420D01*
X156682500Y-134898800D02*
X156492023Y-134898800D01*
X156396785Y-134946420D01*
X156301547Y-135041658D01*
X156253928Y-135232134D01*
X156253928Y-135565467D01*
X156301547Y-135755943D01*
X156396785Y-135851181D01*
X156492023Y-135898800D01*
X156682500Y-135898800D01*
X156777738Y-135851181D01*
X156872976Y-135755943D01*
X156920595Y-135565467D01*
X156920595Y-135232134D01*
X156872976Y-135041658D01*
X156777738Y-134946420D01*
X156682500Y-134898800D01*
X159444404Y-133358800D02*
X159444404Y-132358800D01*
X159111071Y-133073086D01*
X158777738Y-132358800D01*
X158777738Y-133358800D01*
X158111071Y-132358800D02*
X157920595Y-132358800D01*
X157825357Y-132406420D01*
X157730119Y-132501658D01*
X157682500Y-132692134D01*
X157682500Y-133025467D01*
X157730119Y-133215943D01*
X157825357Y-133311181D01*
X157920595Y-133358800D01*
X158111071Y-133358800D01*
X158206309Y-133311181D01*
X158301547Y-133215943D01*
X158349166Y-133025467D01*
X158349166Y-132692134D01*
X158301547Y-132501658D01*
X158206309Y-132406420D01*
X158111071Y-132358800D01*
X157301547Y-133311181D02*
X157158690Y-133358800D01*
X156920595Y-133358800D01*
X156825357Y-133311181D01*
X156777738Y-133263562D01*
X156730119Y-133168324D01*
X156730119Y-133073086D01*
X156777738Y-132977848D01*
X156825357Y-132930229D01*
X156920595Y-132882610D01*
X157111071Y-132834991D01*
X157206309Y-132787372D01*
X157253928Y-132739753D01*
X157301547Y-132644515D01*
X157301547Y-132549277D01*
X157253928Y-132454039D01*
X157206309Y-132406420D01*
X157111071Y-132358800D01*
X156872976Y-132358800D01*
X156730119Y-132406420D01*
X156301547Y-133358800D02*
X156301547Y-132358800D01*
X159492023Y-130771181D02*
X159349166Y-130818800D01*
X159111071Y-130818800D01*
X159015833Y-130771181D01*
X158968214Y-130723562D01*
X158920595Y-130628324D01*
X158920595Y-130533086D01*
X158968214Y-130437848D01*
X159015833Y-130390229D01*
X159111071Y-130342610D01*
X159301547Y-130294991D01*
X159396785Y-130247372D01*
X159444404Y-130199753D01*
X159492023Y-130104515D01*
X159492023Y-130009277D01*
X159444404Y-129914039D01*
X159396785Y-129866420D01*
X159301547Y-129818800D01*
X159063452Y-129818800D01*
X158920595Y-129866420D01*
X157920595Y-130723562D02*
X157968214Y-130771181D01*
X158111071Y-130818800D01*
X158206309Y-130818800D01*
X158349166Y-130771181D01*
X158444404Y-130675943D01*
X158492023Y-130580705D01*
X158539642Y-130390229D01*
X158539642Y-130247372D01*
X158492023Y-130056896D01*
X158444404Y-129961658D01*
X158349166Y-129866420D01*
X158206309Y-129818800D01*
X158111071Y-129818800D01*
X157968214Y-129866420D01*
X157920595Y-129914039D01*
X157492023Y-130818800D02*
X157492023Y-129818800D01*
X156920595Y-130818800D02*
X157349166Y-130247372D01*
X156920595Y-129818800D02*
X157492023Y-130390229D01*
X145780357Y-130753562D02*
X145827976Y-130801181D01*
X145970833Y-130848800D01*
X146066071Y-130848800D01*
X146208928Y-130801181D01*
X146304166Y-130705943D01*
X146351785Y-130610705D01*
X146399404Y-130420229D01*
X146399404Y-130277372D01*
X146351785Y-130086896D01*
X146304166Y-129991658D01*
X146208928Y-129896420D01*
X146066071Y-129848800D01*
X145970833Y-129848800D01*
X145827976Y-129896420D01*
X145780357Y-129944039D01*
X145399404Y-130801181D02*
X145256547Y-130848800D01*
X145018452Y-130848800D01*
X144923214Y-130801181D01*
X144875595Y-130753562D01*
X144827976Y-130658324D01*
X144827976Y-130563086D01*
X144875595Y-130467848D01*
X144923214Y-130420229D01*
X145018452Y-130372610D01*
X145208928Y-130324991D01*
X145304166Y-130277372D01*
X145351785Y-130229753D01*
X145399404Y-130134515D01*
X145399404Y-130039277D01*
X145351785Y-129944039D01*
X145304166Y-129896420D01*
X145208928Y-129848800D01*
X144970833Y-129848800D01*
X144827976Y-129896420D01*
X159539642Y-106958800D02*
X158920595Y-106958800D01*
X159253928Y-107339753D01*
X159111071Y-107339753D01*
X159015833Y-107387372D01*
X158968214Y-107434991D01*
X158920595Y-107530229D01*
X158920595Y-107768324D01*
X158968214Y-107863562D01*
X159015833Y-107911181D01*
X159111071Y-107958800D01*
X159396785Y-107958800D01*
X159492023Y-107911181D01*
X159539642Y-107863562D01*
X158634880Y-106958800D02*
X158301547Y-107958800D01*
X157968214Y-106958800D01*
X157730119Y-106958800D02*
X157111071Y-106958800D01*
X157444404Y-107339753D01*
X157301547Y-107339753D01*
X157206309Y-107387372D01*
X157158690Y-107434991D01*
X157111071Y-107530229D01*
X157111071Y-107768324D01*
X157158690Y-107863562D01*
X157206309Y-107911181D01*
X157301547Y-107958800D01*
X157587261Y-107958800D01*
X157682500Y-107911181D01*
X157730119Y-107863562D01*
X158920595Y-112086420D02*
X159015833Y-112038800D01*
X159158690Y-112038800D01*
X159301547Y-112086420D01*
X159396785Y-112181658D01*
X159444404Y-112276896D01*
X159492023Y-112467372D01*
X159492023Y-112610229D01*
X159444404Y-112800705D01*
X159396785Y-112895943D01*
X159301547Y-112991181D01*
X159158690Y-113038800D01*
X159063452Y-113038800D01*
X158920595Y-112991181D01*
X158872976Y-112943562D01*
X158872976Y-112610229D01*
X159063452Y-112610229D01*
X158444404Y-113038800D02*
X158444404Y-112038800D01*
X157872976Y-113038800D01*
X157872976Y-112038800D01*
X157396785Y-113038800D02*
X157396785Y-112038800D01*
X157158690Y-112038800D01*
X157015833Y-112086420D01*
X156920595Y-112181658D01*
X156872976Y-112276896D01*
X156825357Y-112467372D01*
X156825357Y-112610229D01*
X156872976Y-112800705D01*
X156920595Y-112895943D01*
X157015833Y-112991181D01*
X157158690Y-113038800D01*
X157396785Y-113038800D01*
D12*
X134598999Y-66554999D02*
X169650999Y-66554999D01*
X169650999Y-41154999D02*
X134598999Y-41154999D01*
X169650999Y-66554999D02*
X169650999Y-41154999D01*
X134598999Y-41154999D02*
X134598999Y-66554999D01*
X168634999Y-94494999D02*
X138154999Y-94494999D01*
X168634999Y-69094999D02*
X168634999Y-94494999D01*
X138154999Y-69094999D02*
X168634999Y-69094999D01*
X138154999Y-94494999D02*
X138154999Y-69094999D01*
X136625000Y-103097064D02*
X136625000Y-102642936D01*
X135155000Y-103097064D02*
X135155000Y-102642936D01*
X137695000Y-103097064D02*
X137695000Y-102642936D01*
X139165000Y-103097064D02*
X139165000Y-102642936D01*
X143330000Y-144396420D02*
X140670000Y-144396420D01*
X143330000Y-116396420D02*
X140670000Y-116396420D01*
X143270000Y-154496420D02*
X161050000Y-154496420D01*
X143270000Y-158306420D02*
X161050000Y-158306420D01*
X163650000Y-106236420D02*
X160990000Y-106236420D01*
X143270000Y-154496420D02*
X143270000Y-158306420D01*
X161050000Y-154496420D02*
X161050000Y-158306420D01*
X140670000Y-116396420D02*
X140670000Y-144396420D01*
X163590000Y-101156420D02*
X163590000Y-151956420D01*
X163650000Y-106236420D02*
X163650000Y-144396420D01*
X160990000Y-106236420D02*
X160990000Y-144396420D01*
X143330000Y-116396420D02*
X143330000Y-144396420D01*
X163650000Y-144396420D02*
X160990000Y-144396420D01*
X161050000Y-98555712D02*
X143270000Y-98616420D01*
X140730000Y-101156420D02*
X140730000Y-151956420D01*
X143270000Y-98616420D02*
G75*
G03*
X140730000Y-101156420I1J-2540001D01*
G01*
X163589999Y-101156420D02*
G75*
G03*
X161050000Y-98555712I-2539999J60000D01*
G01*
X161050000Y-154496420D02*
G75*
G03*
X163590000Y-151956420I0J2540000D01*
G01*
X140730000Y-151956420D02*
G75*
G03*
X143270000Y-154496420I2540000J0D01*
G01*
%LPC*%
D13*
X167110999Y-43694999D03*
X167110999Y-46234999D03*
X167110999Y-48774999D03*
X167110999Y-51314999D03*
X167110999Y-53854999D03*
X167110999Y-56394999D03*
X167110999Y-58934999D03*
X167110999Y-61474999D03*
X167110999Y-64014999D03*
D14*
X137646999Y-64014999D03*
X137646999Y-43694999D03*
D15*
X133985000Y-47550000D03*
D16*
X133985000Y-50090000D03*
X133985000Y-52630000D03*
X133985000Y-55170000D03*
X133985000Y-57710000D03*
X133985000Y-60250000D03*
X133985000Y-62790000D03*
X133985000Y-65330000D03*
X133985000Y-67870000D03*
X133985000Y-70410000D03*
X133985000Y-72950000D03*
X133985000Y-75490000D03*
X133985000Y-78030000D03*
X133985000Y-80570000D03*
X133985000Y-83110000D03*
X133985000Y-85650000D03*
X133985000Y-88190000D03*
X133985000Y-90730000D03*
X133985000Y-93270000D03*
X159385000Y-47550000D03*
X159385000Y-50090000D03*
X159385000Y-52630000D03*
X159385000Y-55170000D03*
X159385000Y-57710000D03*
X159385000Y-60250000D03*
X159385000Y-62790000D03*
X159385000Y-65330000D03*
X159385000Y-67870000D03*
X159385000Y-70410000D03*
X159385000Y-72950000D03*
X159385000Y-75490000D03*
X159385000Y-78030000D03*
X159385000Y-80570000D03*
X159385000Y-83110000D03*
X159385000Y-85650000D03*
X159385000Y-88190000D03*
X159385000Y-90730000D03*
X159385000Y-93270000D03*
D17*
X130175000Y-101600000D03*
D18*
X130175000Y-99060000D03*
X130175000Y-96520000D03*
D19*
X131804999Y-153000000D03*
X166856999Y-36582999D03*
D20*
X131445000Y-137160000D03*
D21*
X131445000Y-142240000D03*
D17*
X130175000Y-76835000D03*
D18*
X130175000Y-74295000D03*
X130175000Y-71755000D03*
X130175000Y-69215000D03*
X130175000Y-66675000D03*
D22*
X130175000Y-92710000D03*
D23*
X130175000Y-82550000D03*
D24*
X133375000Y-107980000D03*
D18*
X133375000Y-110520000D03*
X133375000Y-113060000D03*
X133375000Y-115600000D03*
X133375000Y-118140000D03*
D19*
X131804999Y-36582999D03*
D24*
X129565000Y-107980000D03*
D18*
X129565000Y-110520000D03*
X129565000Y-113060000D03*
X129565000Y-115600000D03*
X129565000Y-118140000D03*
D19*
X166856999Y-153000000D03*
D13*
X166094999Y-71634999D03*
X166094999Y-74174999D03*
X166094999Y-76714999D03*
X166094999Y-79254999D03*
X166094999Y-81794999D03*
X166094999Y-84334999D03*
X166094999Y-86874999D03*
X166094999Y-89414999D03*
X166094999Y-91954999D03*
X140694999Y-81794999D03*
X140694999Y-79254999D03*
X140694999Y-76714999D03*
X140694999Y-74174999D03*
X140694999Y-71634999D03*
D25*
X135890000Y-103782500D03*
X135890000Y-101957500D03*
X138430000Y-103782500D03*
X138430000Y-101957500D03*
D18*
X142000000Y-135446420D03*
X162320000Y-140526420D03*
D26*
X143270000Y-101156420D03*
D18*
X142000000Y-117666420D03*
X162320000Y-110046420D03*
X142000000Y-122746420D03*
X162320000Y-137986420D03*
D17*
X162320000Y-104966420D03*
D18*
X142000000Y-132906420D03*
X142000000Y-143066420D03*
X142000000Y-137986420D03*
X162320000Y-143066420D03*
D26*
X161048349Y-101148581D03*
D18*
X162320000Y-122746420D03*
X142000000Y-140526420D03*
D17*
X142000000Y-115126420D03*
D18*
X142000000Y-125286420D03*
X142000000Y-120206420D03*
D26*
X161050000Y-146876420D03*
D18*
X162320000Y-117666420D03*
X162320000Y-115126420D03*
X162320000Y-127826420D03*
X142000000Y-127826420D03*
X162320000Y-120206420D03*
X162320000Y-125286420D03*
D26*
X143270000Y-146876420D03*
D18*
X162320000Y-107506420D03*
X162320000Y-132906420D03*
X162320000Y-135446420D03*
X162320000Y-130366420D03*
X142000000Y-130366420D03*
X162320000Y-112586420D03*
M02*
