%FSLAX45Y45*%
G04 Gerber Fmt 4.5, Leading zero omitted, Abs format (unit mm)*
G04 Created by KiCad (PCBNEW (6.0.5)) date 2022-09-09 11:41:29*
%MOMM*%
%LPD*%
G01*
G04 APERTURE LIST*
%TA.AperFunction,Profile*%
%ADD10C,0.050000*%
%TD*%
%ADD11C,0.200000*%
%ADD12C,0.270000*%
%ADD13C,0.320000*%
G04 APERTURE END LIST*
D10*
X17117500Y-3810700D02*
X17117500Y-15841700D01*
X17117500Y-3277300D02*
X17117500Y-3810700D01*
X12697900Y-3810700D02*
X12697900Y-3277300D01*
X12697900Y-3277300D02*
X17117500Y-3277300D01*
X12697900Y-15841700D02*
X12697900Y-3810700D01*
X12697900Y-15841700D02*
X17117500Y-15841700D01*
D11*
D12*
X14192000Y-9980642D02*
X14462000Y-10250642D01*
X14462000Y-9980642D02*
X14192000Y-10250642D01*
X14192000Y-14552642D02*
X14462000Y-14822642D01*
X14462000Y-14552642D02*
X14192000Y-14822642D01*
X15969835Y-9979858D02*
X16239835Y-10249858D01*
X16239835Y-9979858D02*
X15969835Y-10249858D01*
X15970000Y-14552642D02*
X16240000Y-14822642D01*
X16240000Y-14552642D02*
X15970000Y-14822642D01*
D13*
X13340500Y-3658300D02*
G75*
G03*
X13340500Y-3658300I-160000J0D01*
G01*
X13340500Y-15300000D02*
G75*
G03*
X13340500Y-15300000I-160000J0D01*
G01*
X16845700Y-3658300D02*
G75*
G03*
X16845700Y-3658300I-160000J0D01*
G01*
X16845700Y-15300000D02*
G75*
G03*
X16845700Y-15300000I-160000J0D01*
G01*
D11*
X12953019Y-16154676D02*
X12953019Y-15954676D01*
X13000638Y-15954676D01*
X13029209Y-15964200D01*
X13048257Y-15983247D01*
X13057781Y-16002295D01*
X13067305Y-16040390D01*
X13067305Y-16068962D01*
X13057781Y-16107057D01*
X13048257Y-16126105D01*
X13029209Y-16145152D01*
X13000638Y-16154676D01*
X12953019Y-16154676D01*
X13153019Y-16154676D02*
X13153019Y-16021343D01*
X13153019Y-16059438D02*
X13162543Y-16040390D01*
X13172066Y-16030866D01*
X13191114Y-16021343D01*
X13210162Y-16021343D01*
X13276828Y-16154676D02*
X13276828Y-16021343D01*
X13276828Y-15954676D02*
X13267305Y-15964200D01*
X13276828Y-15973724D01*
X13286352Y-15964200D01*
X13276828Y-15954676D01*
X13276828Y-15973724D01*
X13400638Y-16154676D02*
X13381590Y-16145152D01*
X13372066Y-16126105D01*
X13372066Y-15954676D01*
X13505400Y-16154676D02*
X13486352Y-16145152D01*
X13476828Y-16126105D01*
X13476828Y-15954676D01*
X13733971Y-16154676D02*
X13733971Y-15954676D01*
X13800638Y-16097533D01*
X13867305Y-15954676D01*
X13867305Y-16154676D01*
X14048257Y-16154676D02*
X14048257Y-16049914D01*
X14038733Y-16030866D01*
X14019686Y-16021343D01*
X13981590Y-16021343D01*
X13962543Y-16030866D01*
X14048257Y-16145152D02*
X14029209Y-16154676D01*
X13981590Y-16154676D01*
X13962543Y-16145152D01*
X13953019Y-16126105D01*
X13953019Y-16107057D01*
X13962543Y-16088009D01*
X13981590Y-16078486D01*
X14029209Y-16078486D01*
X14048257Y-16068962D01*
X14143495Y-16021343D02*
X14143495Y-16221343D01*
X14143495Y-16030866D02*
X14162543Y-16021343D01*
X14200638Y-16021343D01*
X14219686Y-16030866D01*
X14229209Y-16040390D01*
X14238733Y-16059438D01*
X14238733Y-16116581D01*
X14229209Y-16135628D01*
X14219686Y-16145152D01*
X14200638Y-16154676D01*
X14162543Y-16154676D01*
X14143495Y-16145152D01*
X14324447Y-16135628D02*
X14333971Y-16145152D01*
X14324447Y-16154676D01*
X14314924Y-16145152D01*
X14324447Y-16135628D01*
X14324447Y-16154676D01*
X14324447Y-16030866D02*
X14333971Y-16040390D01*
X14324447Y-16049914D01*
X14314924Y-16040390D01*
X14324447Y-16030866D01*
X14324447Y-16049914D01*
X12495400Y-16384200D02*
X12695400Y-16584200D01*
X12695400Y-16384200D02*
X12495400Y-16584200D01*
X12943495Y-16393724D02*
X12953019Y-16384200D01*
X12972066Y-16374676D01*
X13019686Y-16374676D01*
X13038733Y-16384200D01*
X13048257Y-16393724D01*
X13057781Y-16412771D01*
X13057781Y-16431819D01*
X13048257Y-16460390D01*
X12933971Y-16574676D01*
X13057781Y-16574676D01*
X13143495Y-16555628D02*
X13153019Y-16565152D01*
X13143495Y-16574676D01*
X13133971Y-16565152D01*
X13143495Y-16555628D01*
X13143495Y-16574676D01*
X13219686Y-16374676D02*
X13353019Y-16374676D01*
X13267305Y-16574676D01*
X13467305Y-16374676D02*
X13486352Y-16374676D01*
X13505400Y-16384200D01*
X13514924Y-16393724D01*
X13524447Y-16412771D01*
X13533971Y-16450866D01*
X13533971Y-16498486D01*
X13524447Y-16536581D01*
X13514924Y-16555628D01*
X13505400Y-16565152D01*
X13486352Y-16574676D01*
X13467305Y-16574676D01*
X13448257Y-16565152D01*
X13438733Y-16555628D01*
X13429209Y-16536581D01*
X13419686Y-16498486D01*
X13419686Y-16450866D01*
X13429209Y-16412771D01*
X13438733Y-16393724D01*
X13448257Y-16384200D01*
X13467305Y-16374676D01*
X13657781Y-16374676D02*
X13676828Y-16374676D01*
X13695876Y-16384200D01*
X13705400Y-16393724D01*
X13714924Y-16412771D01*
X13724447Y-16450866D01*
X13724447Y-16498486D01*
X13714924Y-16536581D01*
X13705400Y-16555628D01*
X13695876Y-16565152D01*
X13676828Y-16574676D01*
X13657781Y-16574676D01*
X13638733Y-16565152D01*
X13629209Y-16555628D01*
X13619686Y-16536581D01*
X13610162Y-16498486D01*
X13610162Y-16450866D01*
X13619686Y-16412771D01*
X13629209Y-16393724D01*
X13638733Y-16384200D01*
X13657781Y-16374676D01*
X13810162Y-16574676D02*
X13810162Y-16441343D01*
X13810162Y-16460390D02*
X13819686Y-16450866D01*
X13838733Y-16441343D01*
X13867305Y-16441343D01*
X13886352Y-16450866D01*
X13895876Y-16469914D01*
X13895876Y-16574676D01*
X13895876Y-16469914D02*
X13905400Y-16450866D01*
X13924447Y-16441343D01*
X13953019Y-16441343D01*
X13972066Y-16450866D01*
X13981590Y-16469914D01*
X13981590Y-16574676D01*
X14076828Y-16574676D02*
X14076828Y-16441343D01*
X14076828Y-16460390D02*
X14086352Y-16450866D01*
X14105400Y-16441343D01*
X14133971Y-16441343D01*
X14153019Y-16450866D01*
X14162543Y-16469914D01*
X14162543Y-16574676D01*
X14162543Y-16469914D02*
X14172066Y-16450866D01*
X14191114Y-16441343D01*
X14219686Y-16441343D01*
X14238733Y-16450866D01*
X14248257Y-16469914D01*
X14248257Y-16574676D01*
X14638733Y-16365152D02*
X14467305Y-16622295D01*
X14895876Y-16374676D02*
X14914924Y-16374676D01*
X14933971Y-16384200D01*
X14943495Y-16393724D01*
X14953019Y-16412771D01*
X14962543Y-16450866D01*
X14962543Y-16498486D01*
X14953019Y-16536581D01*
X14943495Y-16555628D01*
X14933971Y-16565152D01*
X14914924Y-16574676D01*
X14895876Y-16574676D01*
X14876828Y-16565152D01*
X14867305Y-16555628D01*
X14857781Y-16536581D01*
X14848257Y-16498486D01*
X14848257Y-16450866D01*
X14857781Y-16412771D01*
X14867305Y-16393724D01*
X14876828Y-16384200D01*
X14895876Y-16374676D01*
X15048257Y-16555628D02*
X15057781Y-16565152D01*
X15048257Y-16574676D01*
X15038733Y-16565152D01*
X15048257Y-16555628D01*
X15048257Y-16574676D01*
X15248257Y-16574676D02*
X15133971Y-16574676D01*
X15191114Y-16574676D02*
X15191114Y-16374676D01*
X15172066Y-16403247D01*
X15153019Y-16422295D01*
X15133971Y-16431819D01*
X15372066Y-16374676D02*
X15391114Y-16374676D01*
X15410162Y-16384200D01*
X15419686Y-16393724D01*
X15429209Y-16412771D01*
X15438733Y-16450866D01*
X15438733Y-16498486D01*
X15429209Y-16536581D01*
X15419686Y-16555628D01*
X15410162Y-16565152D01*
X15391114Y-16574676D01*
X15372066Y-16574676D01*
X15353019Y-16565152D01*
X15343495Y-16555628D01*
X15333971Y-16536581D01*
X15324447Y-16498486D01*
X15324447Y-16450866D01*
X15333971Y-16412771D01*
X15343495Y-16393724D01*
X15353019Y-16384200D01*
X15372066Y-16374676D01*
X15610162Y-16374676D02*
X15572066Y-16374676D01*
X15553019Y-16384200D01*
X15543495Y-16393724D01*
X15524447Y-16422295D01*
X15514924Y-16460390D01*
X15514924Y-16536581D01*
X15524447Y-16555628D01*
X15533971Y-16565152D01*
X15553019Y-16574676D01*
X15591114Y-16574676D01*
X15610162Y-16565152D01*
X15619686Y-16555628D01*
X15629209Y-16536581D01*
X15629209Y-16488962D01*
X15619686Y-16469914D01*
X15610162Y-16460390D01*
X15591114Y-16450866D01*
X15553019Y-16450866D01*
X15533971Y-16460390D01*
X15524447Y-16469914D01*
X15514924Y-16488962D01*
X15695876Y-16374676D02*
X15819686Y-16374676D01*
X15753019Y-16450866D01*
X15781590Y-16450866D01*
X15800638Y-16460390D01*
X15810162Y-16469914D01*
X15819686Y-16488962D01*
X15819686Y-16536581D01*
X15810162Y-16555628D01*
X15800638Y-16565152D01*
X15781590Y-16574676D01*
X15724447Y-16574676D01*
X15705400Y-16565152D01*
X15695876Y-16555628D01*
X15895876Y-16374676D02*
X15895876Y-16412771D01*
X15972066Y-16374676D02*
X15972066Y-16412771D01*
X16267305Y-16650866D02*
X16257781Y-16641343D01*
X16238733Y-16612771D01*
X16229209Y-16593724D01*
X16219686Y-16565152D01*
X16210162Y-16517533D01*
X16210162Y-16479438D01*
X16219686Y-16431819D01*
X16229209Y-16403247D01*
X16238733Y-16384200D01*
X16257781Y-16355628D01*
X16267305Y-16346105D01*
X16429209Y-16441343D02*
X16429209Y-16574676D01*
X16381590Y-16365152D02*
X16333971Y-16508009D01*
X16457781Y-16508009D01*
X16686352Y-16574676D02*
X16686352Y-16374676D01*
X16772066Y-16574676D02*
X16772066Y-16469914D01*
X16762543Y-16450866D01*
X16743495Y-16441343D01*
X16714924Y-16441343D01*
X16695876Y-16450866D01*
X16686352Y-16460390D01*
X16895876Y-16574676D02*
X16876828Y-16565152D01*
X16867305Y-16555628D01*
X16857781Y-16536581D01*
X16857781Y-16479438D01*
X16867305Y-16460390D01*
X16876828Y-16450866D01*
X16895876Y-16441343D01*
X16924448Y-16441343D01*
X16943495Y-16450866D01*
X16953019Y-16460390D01*
X16962543Y-16479438D01*
X16962543Y-16536581D01*
X16953019Y-16555628D01*
X16943495Y-16565152D01*
X16924448Y-16574676D01*
X16895876Y-16574676D01*
X17076828Y-16574676D02*
X17057781Y-16565152D01*
X17048257Y-16546105D01*
X17048257Y-16374676D01*
X17229209Y-16565152D02*
X17210162Y-16574676D01*
X17172067Y-16574676D01*
X17153019Y-16565152D01*
X17143495Y-16546105D01*
X17143495Y-16469914D01*
X17153019Y-16450866D01*
X17172067Y-16441343D01*
X17210162Y-16441343D01*
X17229209Y-16450866D01*
X17238733Y-16469914D01*
X17238733Y-16488962D01*
X17143495Y-16508009D01*
X17314924Y-16565152D02*
X17333971Y-16574676D01*
X17372067Y-16574676D01*
X17391114Y-16565152D01*
X17400638Y-16546105D01*
X17400638Y-16536581D01*
X17391114Y-16517533D01*
X17372067Y-16508009D01*
X17343495Y-16508009D01*
X17324448Y-16498486D01*
X17314924Y-16479438D01*
X17314924Y-16469914D01*
X17324448Y-16450866D01*
X17343495Y-16441343D01*
X17372067Y-16441343D01*
X17391114Y-16450866D01*
X17467305Y-16650866D02*
X17476828Y-16641343D01*
X17495876Y-16612771D01*
X17505400Y-16593724D01*
X17514924Y-16565152D01*
X17524448Y-16517533D01*
X17524448Y-16479438D01*
X17514924Y-16431819D01*
X17505400Y-16403247D01*
X17495876Y-16384200D01*
X17476828Y-16355628D01*
X17467305Y-16346105D01*
X17829209Y-16650866D02*
X17819686Y-16641343D01*
X17800638Y-16612771D01*
X17791114Y-16593724D01*
X17781590Y-16565152D01*
X17772067Y-16517533D01*
X17772067Y-16479438D01*
X17781590Y-16431819D01*
X17791114Y-16403247D01*
X17800638Y-16384200D01*
X17819686Y-16355628D01*
X17829209Y-16346105D01*
X17905400Y-16441343D02*
X17905400Y-16574676D01*
X17905400Y-16460390D02*
X17914924Y-16450866D01*
X17933971Y-16441343D01*
X17962543Y-16441343D01*
X17981590Y-16450866D01*
X17991114Y-16469914D01*
X17991114Y-16574676D01*
X18114924Y-16574676D02*
X18095876Y-16565152D01*
X18086352Y-16555628D01*
X18076828Y-16536581D01*
X18076828Y-16479438D01*
X18086352Y-16460390D01*
X18095876Y-16450866D01*
X18114924Y-16441343D01*
X18143495Y-16441343D01*
X18162543Y-16450866D01*
X18172067Y-16460390D01*
X18181590Y-16479438D01*
X18181590Y-16536581D01*
X18172067Y-16555628D01*
X18162543Y-16565152D01*
X18143495Y-16574676D01*
X18114924Y-16574676D01*
X18238733Y-16441343D02*
X18314924Y-16441343D01*
X18267305Y-16374676D02*
X18267305Y-16546105D01*
X18276828Y-16565152D01*
X18295876Y-16574676D01*
X18314924Y-16574676D01*
X18533971Y-16441343D02*
X18533971Y-16641343D01*
X18533971Y-16450866D02*
X18553019Y-16441343D01*
X18591114Y-16441343D01*
X18610162Y-16450866D01*
X18619686Y-16460390D01*
X18629209Y-16479438D01*
X18629209Y-16536581D01*
X18619686Y-16555628D01*
X18610162Y-16565152D01*
X18591114Y-16574676D01*
X18553019Y-16574676D01*
X18533971Y-16565152D01*
X18743495Y-16574676D02*
X18724448Y-16565152D01*
X18714924Y-16546105D01*
X18714924Y-16374676D01*
X18905400Y-16574676D02*
X18905400Y-16469914D01*
X18895876Y-16450866D01*
X18876828Y-16441343D01*
X18838733Y-16441343D01*
X18819686Y-16450866D01*
X18905400Y-16565152D02*
X18886352Y-16574676D01*
X18838733Y-16574676D01*
X18819686Y-16565152D01*
X18810162Y-16546105D01*
X18810162Y-16527057D01*
X18819686Y-16508009D01*
X18838733Y-16498486D01*
X18886352Y-16498486D01*
X18905400Y-16488962D01*
X18972067Y-16441343D02*
X19048257Y-16441343D01*
X19000638Y-16374676D02*
X19000638Y-16546105D01*
X19010162Y-16565152D01*
X19029209Y-16574676D01*
X19048257Y-16574676D01*
X19191114Y-16565152D02*
X19172067Y-16574676D01*
X19133971Y-16574676D01*
X19114924Y-16565152D01*
X19105400Y-16546105D01*
X19105400Y-16469914D01*
X19114924Y-16450866D01*
X19133971Y-16441343D01*
X19172067Y-16441343D01*
X19191114Y-16450866D01*
X19200638Y-16469914D01*
X19200638Y-16488962D01*
X19105400Y-16508009D01*
X19372067Y-16574676D02*
X19372067Y-16374676D01*
X19372067Y-16565152D02*
X19353019Y-16574676D01*
X19314924Y-16574676D01*
X19295876Y-16565152D01*
X19286352Y-16555628D01*
X19276828Y-16536581D01*
X19276828Y-16479438D01*
X19286352Y-16460390D01*
X19295876Y-16450866D01*
X19314924Y-16441343D01*
X19353019Y-16441343D01*
X19372067Y-16450866D01*
X19448257Y-16650866D02*
X19457781Y-16641343D01*
X19476828Y-16612771D01*
X19486352Y-16593724D01*
X19495876Y-16565152D01*
X19505400Y-16517533D01*
X19505400Y-16479438D01*
X19495876Y-16431819D01*
X19486352Y-16403247D01*
X19476828Y-16384200D01*
X19457781Y-16355628D01*
X19448257Y-16346105D01*
X12695400Y-16804200D02*
G75*
G03*
X12695400Y-16804200I-100000J0D01*
G01*
X12933971Y-16694676D02*
X13057781Y-16694676D01*
X12991114Y-16770866D01*
X13019686Y-16770866D01*
X13038733Y-16780390D01*
X13048257Y-16789914D01*
X13057781Y-16808962D01*
X13057781Y-16856581D01*
X13048257Y-16875628D01*
X13038733Y-16885152D01*
X13019686Y-16894676D01*
X12962543Y-16894676D01*
X12943495Y-16885152D01*
X12933971Y-16875628D01*
X13143495Y-16875628D02*
X13153019Y-16885152D01*
X13143495Y-16894676D01*
X13133971Y-16885152D01*
X13143495Y-16875628D01*
X13143495Y-16894676D01*
X13229209Y-16713724D02*
X13238733Y-16704200D01*
X13257781Y-16694676D01*
X13305400Y-16694676D01*
X13324447Y-16704200D01*
X13333971Y-16713724D01*
X13343495Y-16732771D01*
X13343495Y-16751819D01*
X13333971Y-16780390D01*
X13219686Y-16894676D01*
X13343495Y-16894676D01*
X13467305Y-16694676D02*
X13486352Y-16694676D01*
X13505400Y-16704200D01*
X13514924Y-16713724D01*
X13524447Y-16732771D01*
X13533971Y-16770866D01*
X13533971Y-16818486D01*
X13524447Y-16856581D01*
X13514924Y-16875628D01*
X13505400Y-16885152D01*
X13486352Y-16894676D01*
X13467305Y-16894676D01*
X13448257Y-16885152D01*
X13438733Y-16875628D01*
X13429209Y-16856581D01*
X13419686Y-16818486D01*
X13419686Y-16770866D01*
X13429209Y-16732771D01*
X13438733Y-16713724D01*
X13448257Y-16704200D01*
X13467305Y-16694676D01*
X13657781Y-16694676D02*
X13676828Y-16694676D01*
X13695876Y-16704200D01*
X13705400Y-16713724D01*
X13714924Y-16732771D01*
X13724447Y-16770866D01*
X13724447Y-16818486D01*
X13714924Y-16856581D01*
X13705400Y-16875628D01*
X13695876Y-16885152D01*
X13676828Y-16894676D01*
X13657781Y-16894676D01*
X13638733Y-16885152D01*
X13629209Y-16875628D01*
X13619686Y-16856581D01*
X13610162Y-16818486D01*
X13610162Y-16770866D01*
X13619686Y-16732771D01*
X13629209Y-16713724D01*
X13638733Y-16704200D01*
X13657781Y-16694676D01*
X13810162Y-16894676D02*
X13810162Y-16761343D01*
X13810162Y-16780390D02*
X13819686Y-16770866D01*
X13838733Y-16761343D01*
X13867305Y-16761343D01*
X13886352Y-16770866D01*
X13895876Y-16789914D01*
X13895876Y-16894676D01*
X13895876Y-16789914D02*
X13905400Y-16770866D01*
X13924447Y-16761343D01*
X13953019Y-16761343D01*
X13972066Y-16770866D01*
X13981590Y-16789914D01*
X13981590Y-16894676D01*
X14076828Y-16894676D02*
X14076828Y-16761343D01*
X14076828Y-16780390D02*
X14086352Y-16770866D01*
X14105400Y-16761343D01*
X14133971Y-16761343D01*
X14153019Y-16770866D01*
X14162543Y-16789914D01*
X14162543Y-16894676D01*
X14162543Y-16789914D02*
X14172066Y-16770866D01*
X14191114Y-16761343D01*
X14219686Y-16761343D01*
X14238733Y-16770866D01*
X14248257Y-16789914D01*
X14248257Y-16894676D01*
X14638733Y-16685152D02*
X14467305Y-16942295D01*
X14895876Y-16694676D02*
X14914924Y-16694676D01*
X14933971Y-16704200D01*
X14943495Y-16713724D01*
X14953019Y-16732771D01*
X14962543Y-16770866D01*
X14962543Y-16818486D01*
X14953019Y-16856581D01*
X14943495Y-16875628D01*
X14933971Y-16885152D01*
X14914924Y-16894676D01*
X14895876Y-16894676D01*
X14876828Y-16885152D01*
X14867305Y-16875628D01*
X14857781Y-16856581D01*
X14848257Y-16818486D01*
X14848257Y-16770866D01*
X14857781Y-16732771D01*
X14867305Y-16713724D01*
X14876828Y-16704200D01*
X14895876Y-16694676D01*
X15048257Y-16875628D02*
X15057781Y-16885152D01*
X15048257Y-16894676D01*
X15038733Y-16885152D01*
X15048257Y-16875628D01*
X15048257Y-16894676D01*
X15248257Y-16894676D02*
X15133971Y-16894676D01*
X15191114Y-16894676D02*
X15191114Y-16694676D01*
X15172066Y-16723247D01*
X15153019Y-16742295D01*
X15133971Y-16751819D01*
X15324447Y-16713724D02*
X15333971Y-16704200D01*
X15353019Y-16694676D01*
X15400638Y-16694676D01*
X15419686Y-16704200D01*
X15429209Y-16713724D01*
X15438733Y-16732771D01*
X15438733Y-16751819D01*
X15429209Y-16780390D01*
X15314924Y-16894676D01*
X15438733Y-16894676D01*
X15610162Y-16694676D02*
X15572066Y-16694676D01*
X15553019Y-16704200D01*
X15543495Y-16713724D01*
X15524447Y-16742295D01*
X15514924Y-16780390D01*
X15514924Y-16856581D01*
X15524447Y-16875628D01*
X15533971Y-16885152D01*
X15553019Y-16894676D01*
X15591114Y-16894676D01*
X15610162Y-16885152D01*
X15619686Y-16875628D01*
X15629209Y-16856581D01*
X15629209Y-16808962D01*
X15619686Y-16789914D01*
X15610162Y-16780390D01*
X15591114Y-16770866D01*
X15553019Y-16770866D01*
X15533971Y-16780390D01*
X15524447Y-16789914D01*
X15514924Y-16808962D01*
X15753019Y-16694676D02*
X15772066Y-16694676D01*
X15791114Y-16704200D01*
X15800638Y-16713724D01*
X15810162Y-16732771D01*
X15819686Y-16770866D01*
X15819686Y-16818486D01*
X15810162Y-16856581D01*
X15800638Y-16875628D01*
X15791114Y-16885152D01*
X15772066Y-16894676D01*
X15753019Y-16894676D01*
X15733971Y-16885152D01*
X15724447Y-16875628D01*
X15714924Y-16856581D01*
X15705400Y-16818486D01*
X15705400Y-16770866D01*
X15714924Y-16732771D01*
X15724447Y-16713724D01*
X15733971Y-16704200D01*
X15753019Y-16694676D01*
X15895876Y-16694676D02*
X15895876Y-16732771D01*
X15972066Y-16694676D02*
X15972066Y-16732771D01*
X16267305Y-16970867D02*
X16257781Y-16961343D01*
X16238733Y-16932771D01*
X16229209Y-16913724D01*
X16219686Y-16885152D01*
X16210162Y-16837533D01*
X16210162Y-16799438D01*
X16219686Y-16751819D01*
X16229209Y-16723247D01*
X16238733Y-16704200D01*
X16257781Y-16675628D01*
X16267305Y-16666105D01*
X16429209Y-16761343D02*
X16429209Y-16894676D01*
X16381590Y-16685152D02*
X16333971Y-16828009D01*
X16457781Y-16828009D01*
X16686352Y-16894676D02*
X16686352Y-16694676D01*
X16772066Y-16894676D02*
X16772066Y-16789914D01*
X16762543Y-16770866D01*
X16743495Y-16761343D01*
X16714924Y-16761343D01*
X16695876Y-16770866D01*
X16686352Y-16780390D01*
X16895876Y-16894676D02*
X16876828Y-16885152D01*
X16867305Y-16875628D01*
X16857781Y-16856581D01*
X16857781Y-16799438D01*
X16867305Y-16780390D01*
X16876828Y-16770866D01*
X16895876Y-16761343D01*
X16924448Y-16761343D01*
X16943495Y-16770866D01*
X16953019Y-16780390D01*
X16962543Y-16799438D01*
X16962543Y-16856581D01*
X16953019Y-16875628D01*
X16943495Y-16885152D01*
X16924448Y-16894676D01*
X16895876Y-16894676D01*
X17076828Y-16894676D02*
X17057781Y-16885152D01*
X17048257Y-16866105D01*
X17048257Y-16694676D01*
X17229209Y-16885152D02*
X17210162Y-16894676D01*
X17172067Y-16894676D01*
X17153019Y-16885152D01*
X17143495Y-16866105D01*
X17143495Y-16789914D01*
X17153019Y-16770866D01*
X17172067Y-16761343D01*
X17210162Y-16761343D01*
X17229209Y-16770866D01*
X17238733Y-16789914D01*
X17238733Y-16808962D01*
X17143495Y-16828009D01*
X17314924Y-16885152D02*
X17333971Y-16894676D01*
X17372067Y-16894676D01*
X17391114Y-16885152D01*
X17400638Y-16866105D01*
X17400638Y-16856581D01*
X17391114Y-16837533D01*
X17372067Y-16828009D01*
X17343495Y-16828009D01*
X17324448Y-16818486D01*
X17314924Y-16799438D01*
X17314924Y-16789914D01*
X17324448Y-16770866D01*
X17343495Y-16761343D01*
X17372067Y-16761343D01*
X17391114Y-16770866D01*
X17467305Y-16970867D02*
X17476828Y-16961343D01*
X17495876Y-16932771D01*
X17505400Y-16913724D01*
X17514924Y-16885152D01*
X17524448Y-16837533D01*
X17524448Y-16799438D01*
X17514924Y-16751819D01*
X17505400Y-16723247D01*
X17495876Y-16704200D01*
X17476828Y-16675628D01*
X17467305Y-16666105D01*
X17829209Y-16970867D02*
X17819686Y-16961343D01*
X17800638Y-16932771D01*
X17791114Y-16913724D01*
X17781590Y-16885152D01*
X17772067Y-16837533D01*
X17772067Y-16799438D01*
X17781590Y-16751819D01*
X17791114Y-16723247D01*
X17800638Y-16704200D01*
X17819686Y-16675628D01*
X17829209Y-16666105D01*
X17905400Y-16761343D02*
X17905400Y-16894676D01*
X17905400Y-16780390D02*
X17914924Y-16770866D01*
X17933971Y-16761343D01*
X17962543Y-16761343D01*
X17981590Y-16770866D01*
X17991114Y-16789914D01*
X17991114Y-16894676D01*
X18114924Y-16894676D02*
X18095876Y-16885152D01*
X18086352Y-16875628D01*
X18076828Y-16856581D01*
X18076828Y-16799438D01*
X18086352Y-16780390D01*
X18095876Y-16770866D01*
X18114924Y-16761343D01*
X18143495Y-16761343D01*
X18162543Y-16770866D01*
X18172067Y-16780390D01*
X18181590Y-16799438D01*
X18181590Y-16856581D01*
X18172067Y-16875628D01*
X18162543Y-16885152D01*
X18143495Y-16894676D01*
X18114924Y-16894676D01*
X18238733Y-16761343D02*
X18314924Y-16761343D01*
X18267305Y-16694676D02*
X18267305Y-16866105D01*
X18276828Y-16885152D01*
X18295876Y-16894676D01*
X18314924Y-16894676D01*
X18533971Y-16761343D02*
X18533971Y-16961343D01*
X18533971Y-16770866D02*
X18553019Y-16761343D01*
X18591114Y-16761343D01*
X18610162Y-16770866D01*
X18619686Y-16780390D01*
X18629209Y-16799438D01*
X18629209Y-16856581D01*
X18619686Y-16875628D01*
X18610162Y-16885152D01*
X18591114Y-16894676D01*
X18553019Y-16894676D01*
X18533971Y-16885152D01*
X18743495Y-16894676D02*
X18724448Y-16885152D01*
X18714924Y-16866105D01*
X18714924Y-16694676D01*
X18905400Y-16894676D02*
X18905400Y-16789914D01*
X18895876Y-16770866D01*
X18876828Y-16761343D01*
X18838733Y-16761343D01*
X18819686Y-16770866D01*
X18905400Y-16885152D02*
X18886352Y-16894676D01*
X18838733Y-16894676D01*
X18819686Y-16885152D01*
X18810162Y-16866105D01*
X18810162Y-16847057D01*
X18819686Y-16828009D01*
X18838733Y-16818486D01*
X18886352Y-16818486D01*
X18905400Y-16808962D01*
X18972067Y-16761343D02*
X19048257Y-16761343D01*
X19000638Y-16694676D02*
X19000638Y-16866105D01*
X19010162Y-16885152D01*
X19029209Y-16894676D01*
X19048257Y-16894676D01*
X19191114Y-16885152D02*
X19172067Y-16894676D01*
X19133971Y-16894676D01*
X19114924Y-16885152D01*
X19105400Y-16866105D01*
X19105400Y-16789914D01*
X19114924Y-16770866D01*
X19133971Y-16761343D01*
X19172067Y-16761343D01*
X19191114Y-16770866D01*
X19200638Y-16789914D01*
X19200638Y-16808962D01*
X19105400Y-16828009D01*
X19372067Y-16894676D02*
X19372067Y-16694676D01*
X19372067Y-16885152D02*
X19353019Y-16894676D01*
X19314924Y-16894676D01*
X19295876Y-16885152D01*
X19286352Y-16875628D01*
X19276828Y-16856581D01*
X19276828Y-16799438D01*
X19286352Y-16780390D01*
X19295876Y-16770866D01*
X19314924Y-16761343D01*
X19353019Y-16761343D01*
X19372067Y-16770866D01*
X19448257Y-16970867D02*
X19457781Y-16961343D01*
X19476828Y-16932771D01*
X19486352Y-16913724D01*
X19495876Y-16885152D01*
X19505400Y-16837533D01*
X19505400Y-16799438D01*
X19495876Y-16751819D01*
X19486352Y-16723247D01*
X19476828Y-16704200D01*
X19457781Y-16675628D01*
X19448257Y-16666105D01*
M02*
