G04 #@! TF.GenerationSoftware,KiCad,Pcbnew,(6.0.5)*
G04 #@! TF.CreationDate,2022-09-09T11:42:05-04:00*
G04 #@! TF.ProjectId,Buoy_WithoutGSM,42756f79-5f57-4697-9468-6f757447534d,Leonardo Ward*
G04 #@! TF.SameCoordinates,Original*
G04 #@! TF.FileFunction,Soldermask,Top*
G04 #@! TF.FilePolarity,Negative*
%FSLAX46Y46*%
G04 Gerber Fmt 4.6, Leading zero omitted, Abs format (unit mm)*
G04 Created by KiCad (PCBNEW (6.0.5)) date 2022-09-09 11:42:05*
%MOMM*%
%LPD*%
G01*
G04 APERTURE LIST*
G04 Aperture macros list*
%AMRoundRect*
0 Rectangle with rounded corners*
0 $1 Rounding radius*
0 $2 $3 $4 $5 $6 $7 $8 $9 X,Y pos of 4 corners*
0 Add a 4 corners polygon primitive as box body*
4,1,4,$2,$3,$4,$5,$6,$7,$8,$9,$2,$3,0*
0 Add four circle primitives for the rounded corners*
1,1,$1+$1,$2,$3*
1,1,$1+$1,$4,$5*
1,1,$1+$1,$6,$7*
1,1,$1+$1,$8,$9*
0 Add four rect primitives between the rounded corners*
20,1,$1+$1,$2,$3,$4,$5,0*
20,1,$1+$1,$4,$5,$6,$7,0*
20,1,$1+$1,$6,$7,$8,$9,0*
20,1,$1+$1,$8,$9,$2,$3,0*%
%AMFreePoly0*
4,1,21,5.397855,0.901855,5.412500,0.866500,5.412500,-0.866500,5.397855,-0.901855,5.362500,-0.916500,1.237500,-0.916500,1.202145,-0.901855,1.187500,-0.866500,1.187500,-0.500000,-1.237500,-0.500000,-1.272855,-0.485355,-1.287500,-0.450000,-1.287500,0.450000,-1.272855,0.485355,-1.237500,0.500000,1.187500,0.500000,1.187500,0.866500,1.202145,0.901855,1.237500,0.916500,5.362500,0.916500,
5.397855,0.901855,5.397855,0.901855,$1*%
G04 Aperture macros list end*
%ADD10C,1.624000*%
%ADD11C,2.640000*%
%ADD12RoundRect,0.050000X-0.780000X-0.780000X0.780000X-0.780000X0.780000X0.780000X-0.780000X0.780000X0*%
%ADD13C,1.660000*%
%ADD14RoundRect,0.050000X0.850000X0.850000X-0.850000X0.850000X-0.850000X-0.850000X0.850000X-0.850000X0*%
%ADD15O,1.800000X1.800000*%
%ADD16C,3.300000*%
%ADD17RoundRect,0.050000X-1.500000X1.500000X-1.500000X-1.500000X1.500000X-1.500000X1.500000X1.500000X0*%
%ADD18C,3.100000*%
%ADD19RoundRect,0.300000X-0.350000X-0.450000X0.350000X-0.450000X0.350000X0.450000X-0.350000X0.450000X0*%
%ADD20RoundRect,0.300000X0.450000X-0.262500X0.450000X0.262500X-0.450000X0.262500X-0.450000X-0.262500X0*%
%ADD21RoundRect,0.050000X1.100000X-1.100000X1.100000X1.100000X-1.100000X1.100000X-1.100000X-1.100000X0*%
%ADD22O,2.300000X2.300000*%
%ADD23RoundRect,0.050000X-0.850000X-0.850000X0.850000X-0.850000X0.850000X0.850000X-0.850000X0.850000X0*%
%ADD24RoundRect,0.050000X0.450000X-1.150000X0.450000X1.150000X-0.450000X1.150000X-0.450000X-1.150000X0*%
%ADD25FreePoly0,90.000000*%
%ADD26C,2.800000*%
G04 APERTURE END LIST*
D10*
X167110999Y-43694999D03*
X167110999Y-46234999D03*
X167110999Y-48774999D03*
X167110999Y-51314999D03*
X167110999Y-53854999D03*
X167110999Y-56394999D03*
X167110999Y-58934999D03*
X167110999Y-61474999D03*
X167110999Y-64014999D03*
D11*
X137646999Y-64014999D03*
X137646999Y-43694999D03*
D12*
X133985000Y-47550000D03*
D13*
X133985000Y-50090000D03*
X133985000Y-52630000D03*
X133985000Y-55170000D03*
X133985000Y-57710000D03*
X133985000Y-60250000D03*
X133985000Y-62790000D03*
X133985000Y-65330000D03*
X133985000Y-67870000D03*
X133985000Y-70410000D03*
X133985000Y-72950000D03*
X133985000Y-75490000D03*
X133985000Y-78030000D03*
X133985000Y-80570000D03*
X133985000Y-83110000D03*
X133985000Y-85650000D03*
X133985000Y-88190000D03*
X133985000Y-90730000D03*
X133985000Y-93270000D03*
X159385000Y-47550000D03*
X159385000Y-50090000D03*
X159385000Y-52630000D03*
X159385000Y-55170000D03*
X159385000Y-57710000D03*
X159385000Y-60250000D03*
X159385000Y-62790000D03*
X159385000Y-65330000D03*
X159385000Y-67870000D03*
X159385000Y-70410000D03*
X159385000Y-72950000D03*
X159385000Y-75490000D03*
X159385000Y-78030000D03*
X159385000Y-80570000D03*
X159385000Y-83110000D03*
X159385000Y-85650000D03*
X159385000Y-88190000D03*
X159385000Y-90730000D03*
X159385000Y-93270000D03*
D14*
X130175000Y-101600000D03*
D15*
X130175000Y-99060000D03*
X130175000Y-96520000D03*
D16*
X131804999Y-153000000D03*
X166856999Y-36582999D03*
D17*
X131445000Y-137160000D03*
D18*
X131445000Y-142240000D03*
D19*
X131715000Y-133350000D03*
X133715000Y-133350000D03*
D14*
X130175000Y-76835000D03*
D15*
X130175000Y-74295000D03*
X130175000Y-71755000D03*
X130175000Y-69215000D03*
X130175000Y-66675000D03*
D20*
X130175000Y-61515000D03*
X130175000Y-59690000D03*
D21*
X130175000Y-92710000D03*
D22*
X130175000Y-82550000D03*
D23*
X133375000Y-107980000D03*
D15*
X133375000Y-110520000D03*
X133375000Y-113060000D03*
X133375000Y-115600000D03*
X133375000Y-118140000D03*
D16*
X131804999Y-36582999D03*
D20*
X130175000Y-57070000D03*
X130175000Y-55245000D03*
D23*
X129565000Y-107980000D03*
D15*
X129565000Y-110520000D03*
X129565000Y-113060000D03*
X129565000Y-115600000D03*
X129565000Y-118140000D03*
D24*
X128675000Y-129150000D03*
D25*
X130175000Y-129062500D03*
D24*
X131675000Y-129150000D03*
D16*
X166856999Y-153000000D03*
D10*
X166094999Y-71634999D03*
X166094999Y-74174999D03*
X166094999Y-76714999D03*
X166094999Y-79254999D03*
X166094999Y-81794999D03*
X166094999Y-84334999D03*
X166094999Y-86874999D03*
X166094999Y-89414999D03*
X166094999Y-91954999D03*
X140694999Y-81794999D03*
X140694999Y-79254999D03*
X140694999Y-76714999D03*
X140694999Y-74174999D03*
X140694999Y-71634999D03*
D15*
X142000000Y-135446420D03*
X162320000Y-140526420D03*
D26*
X143270000Y-101156420D03*
D15*
X142000000Y-117666420D03*
X162320000Y-110046420D03*
X142000000Y-122746420D03*
X162320000Y-137986420D03*
D14*
X162320000Y-104966420D03*
D15*
X142000000Y-132906420D03*
X142000000Y-143066420D03*
X142000000Y-137986420D03*
X162320000Y-143066420D03*
D26*
X161048349Y-101148581D03*
D15*
X162320000Y-122746420D03*
X142000000Y-140526420D03*
D14*
X142000000Y-115126420D03*
D15*
X142000000Y-125286420D03*
X142000000Y-120206420D03*
D26*
X161050000Y-146876420D03*
D15*
X162320000Y-117666420D03*
X162320000Y-115126420D03*
X162320000Y-127826420D03*
X142000000Y-127826420D03*
X162320000Y-120206420D03*
X162320000Y-125286420D03*
D26*
X143270000Y-146876420D03*
D15*
X162320000Y-107506420D03*
X162320000Y-132906420D03*
X162320000Y-135446420D03*
X162320000Y-130366420D03*
X142000000Y-130366420D03*
X162320000Y-112586420D03*
M02*
