M48
; DRILL file {KiCad (6.0.5)} date Fri Sep  9 11:41:27 2022
; FORMAT={-:-/ absolute / metric / decimal}
; #@! TF.CreationDate,2022-09-09T11:41:27-04:00
; #@! TF.GenerationSoftware,Kicad,Pcbnew,(6.0.5)
; #@! TF.FileFunction,Plated,1,2,PTH
FMAT,2
METRIC
; #@! TA.AperFunction,Plated,PTH,ViaDrill
T1C0.400
; #@! TA.AperFunction,Plated,PTH,ComponentDrill
T2C0.762
; #@! TA.AperFunction,Plated,PTH,ComponentDrill
T3C1.000
; #@! TA.AperFunction,Plated,PTH,ComponentDrill
T4C1.040
; #@! TA.AperFunction,Plated,PTH,ComponentDrill
T5C1.100
; #@! TA.AperFunction,Plated,PTH,ComponentDrill
T6C1.520
; #@! TA.AperFunction,Plated,PTH,ComponentDrill
T7C2.286
%
G90
G05
T1
X130.175Y-52.347
T2
X140.695Y-71.635
X140.695Y-74.175
X140.695Y-76.715
X140.695Y-79.255
X140.695Y-81.795
X166.095Y-71.635
X166.095Y-74.175
X166.095Y-76.715
X166.095Y-79.255
X166.095Y-81.795
X166.095Y-84.335
X166.095Y-86.875
X166.095Y-89.415
X166.095Y-91.955
X167.111Y-43.695
X167.111Y-46.235
X167.111Y-48.775
X167.111Y-51.315
X167.111Y-53.855
X167.111Y-56.395
X167.111Y-58.935
X167.111Y-61.475
X167.111Y-64.015
T3
X129.565Y-107.98
X129.565Y-110.52
X129.565Y-113.06
X129.565Y-115.6
X129.565Y-118.14
X130.175Y-66.675
X130.175Y-69.215
X130.175Y-71.755
X130.175Y-74.295
X130.175Y-76.835
X130.175Y-96.52
X130.175Y-99.06
X130.175Y-101.6
X133.375Y-107.98
X133.375Y-110.52
X133.375Y-113.06
X133.375Y-115.6
X133.375Y-118.14
X142.0Y-115.126
X142.0Y-117.666
X142.0Y-120.206
X142.0Y-122.746
X142.0Y-125.286
X142.0Y-127.826
X142.0Y-130.366
X142.0Y-132.906
X142.0Y-135.446
X142.0Y-137.986
X142.0Y-140.526
X142.0Y-143.066
X162.32Y-104.966
X162.32Y-107.506
X162.32Y-110.046
X162.32Y-112.586
X162.32Y-115.126
X162.32Y-117.666
X162.32Y-120.206
X162.32Y-122.746
X162.32Y-125.286
X162.32Y-127.826
X162.32Y-130.366
X162.32Y-132.906
X162.32Y-135.446
X162.32Y-137.986
X162.32Y-140.526
X162.32Y-143.066
T4
X133.985Y-47.55
X133.985Y-50.09
X133.985Y-52.63
X133.985Y-55.17
X133.985Y-57.71
X133.985Y-60.25
X133.985Y-62.79
X133.985Y-65.33
X133.985Y-67.87
X133.985Y-70.41
X133.985Y-72.95
X133.985Y-75.49
X133.985Y-78.03
X133.985Y-80.57
X133.985Y-83.11
X133.985Y-85.65
X133.985Y-88.19
X133.985Y-90.73
X133.985Y-93.27
X159.385Y-47.55
X159.385Y-50.09
X159.385Y-52.63
X159.385Y-55.17
X159.385Y-57.71
X159.385Y-60.25
X159.385Y-62.79
X159.385Y-65.33
X159.385Y-67.87
X159.385Y-70.41
X159.385Y-72.95
X159.385Y-75.49
X159.385Y-78.03
X159.385Y-80.57
X159.385Y-83.11
X159.385Y-85.65
X159.385Y-88.19
X159.385Y-90.73
X159.385Y-93.27
T5
X130.175Y-82.55
X130.175Y-92.71
T6
X131.445Y-137.16
X131.445Y-142.24
T7
X137.647Y-43.695
X137.647Y-64.015
T0
M30
