G04 #@! TF.GenerationSoftware,KiCad,Pcbnew,(6.0.5)*
G04 #@! TF.CreationDate,2022-09-09T11:42:05-04:00*
G04 #@! TF.ProjectId,Buoy_WithoutGSM,42756f79-5f57-4697-9468-6f757447534d,Leonardo Ward*
G04 #@! TF.SameCoordinates,Original*
G04 #@! TF.FileFunction,OtherDrawing,Comment*
%FSLAX46Y46*%
G04 Gerber Fmt 4.6, Leading zero omitted, Abs format (unit mm)*
G04 Created by KiCad (PCBNEW (6.0.5)) date 2022-09-09 11:42:05*
%MOMM*%
%LPD*%
G01*
G04 APERTURE LIST*
%ADD10C,0.150000*%
%ADD11C,0.300000*%
G04 APERTURE END LIST*
D10*
X128270000Y-100076000D02*
X128270000Y-54356000D01*
X132080000Y-54356000D02*
X124460000Y-54356000D01*
X133604000Y-157988000D02*
X133604000Y-165100000D01*
X132080000Y-156718000D02*
X124460000Y-156718000D01*
X177800000Y-157480000D02*
X177800000Y-164846000D01*
X133604000Y-161798000D02*
X150876000Y-161798000D01*
X163830000Y-161798000D02*
X177800000Y-161798000D01*
X128270000Y-105918000D02*
X128270000Y-156718000D01*
D11*
X122658857Y-104056571D02*
X121801714Y-104056571D01*
X122230285Y-104056571D02*
X122230285Y-102556571D01*
X122087428Y-102770857D01*
X121944571Y-102913714D01*
X121801714Y-102985142D01*
X123587428Y-102556571D02*
X123730285Y-102556571D01*
X123873142Y-102628000D01*
X123944571Y-102699428D01*
X124016000Y-102842285D01*
X124087428Y-103128000D01*
X124087428Y-103485142D01*
X124016000Y-103770857D01*
X123944571Y-103913714D01*
X123873142Y-103985142D01*
X123730285Y-104056571D01*
X123587428Y-104056571D01*
X123444571Y-103985142D01*
X123373142Y-103913714D01*
X123301714Y-103770857D01*
X123230285Y-103485142D01*
X123230285Y-103128000D01*
X123301714Y-102842285D01*
X123373142Y-102699428D01*
X123444571Y-102628000D01*
X123587428Y-102556571D01*
X124658857Y-102699428D02*
X124730285Y-102628000D01*
X124873142Y-102556571D01*
X125230285Y-102556571D01*
X125373142Y-102628000D01*
X125444571Y-102699428D01*
X125516000Y-102842285D01*
X125516000Y-102985142D01*
X125444571Y-103199428D01*
X124587428Y-104056571D01*
X125516000Y-104056571D01*
X126158857Y-103913714D02*
X126230285Y-103985142D01*
X126158857Y-104056571D01*
X126087428Y-103985142D01*
X126158857Y-103913714D01*
X126158857Y-104056571D01*
X126730285Y-102556571D02*
X127658857Y-102556571D01*
X127158857Y-103128000D01*
X127373142Y-103128000D01*
X127516000Y-103199428D01*
X127587428Y-103270857D01*
X127658857Y-103413714D01*
X127658857Y-103770857D01*
X127587428Y-103913714D01*
X127516000Y-103985142D01*
X127373142Y-104056571D01*
X126944571Y-104056571D01*
X126801714Y-103985142D01*
X126730285Y-103913714D01*
X128944571Y-102556571D02*
X128658857Y-102556571D01*
X128516000Y-102628000D01*
X128444571Y-102699428D01*
X128301714Y-102913714D01*
X128230285Y-103199428D01*
X128230285Y-103770857D01*
X128301714Y-103913714D01*
X128373142Y-103985142D01*
X128516000Y-104056571D01*
X128801714Y-104056571D01*
X128944571Y-103985142D01*
X129016000Y-103913714D01*
X129087428Y-103770857D01*
X129087428Y-103413714D01*
X129016000Y-103270857D01*
X128944571Y-103199428D01*
X128801714Y-103128000D01*
X128516000Y-103128000D01*
X128373142Y-103199428D01*
X128301714Y-103270857D01*
X128230285Y-103413714D01*
X130873142Y-104056571D02*
X130873142Y-103056571D01*
X130873142Y-103199428D02*
X130944571Y-103128000D01*
X131087428Y-103056571D01*
X131301714Y-103056571D01*
X131444571Y-103128000D01*
X131516000Y-103270857D01*
X131516000Y-104056571D01*
X131516000Y-103270857D02*
X131587428Y-103128000D01*
X131730285Y-103056571D01*
X131944571Y-103056571D01*
X132087428Y-103128000D01*
X132158857Y-103270857D01*
X132158857Y-104056571D01*
X132873142Y-104056571D02*
X132873142Y-103056571D01*
X132873142Y-103199428D02*
X132944571Y-103128000D01*
X133087428Y-103056571D01*
X133301714Y-103056571D01*
X133444571Y-103128000D01*
X133516000Y-103270857D01*
X133516000Y-104056571D01*
X133516000Y-103270857D02*
X133587428Y-103128000D01*
X133730285Y-103056571D01*
X133944571Y-103056571D01*
X134087428Y-103128000D01*
X134158857Y-103270857D01*
X134158857Y-104056571D01*
X152440285Y-161476571D02*
X152440285Y-162476571D01*
X152083142Y-160905142D02*
X151726000Y-161976571D01*
X152654571Y-161976571D01*
X153868857Y-161476571D02*
X153868857Y-162476571D01*
X153511714Y-160905142D02*
X153154571Y-161976571D01*
X154083142Y-161976571D01*
X154654571Y-162333714D02*
X154726000Y-162405142D01*
X154654571Y-162476571D01*
X154583142Y-162405142D01*
X154654571Y-162333714D01*
X154654571Y-162476571D01*
X155297428Y-161119428D02*
X155368857Y-161048000D01*
X155511714Y-160976571D01*
X155868857Y-160976571D01*
X156011714Y-161048000D01*
X156083142Y-161119428D01*
X156154571Y-161262285D01*
X156154571Y-161405142D01*
X156083142Y-161619428D01*
X155226000Y-162476571D01*
X156154571Y-162476571D01*
X157083142Y-160976571D02*
X157226000Y-160976571D01*
X157368857Y-161048000D01*
X157440285Y-161119428D01*
X157511714Y-161262285D01*
X157583142Y-161548000D01*
X157583142Y-161905142D01*
X157511714Y-162190857D01*
X157440285Y-162333714D01*
X157368857Y-162405142D01*
X157226000Y-162476571D01*
X157083142Y-162476571D01*
X156940285Y-162405142D01*
X156868857Y-162333714D01*
X156797428Y-162190857D01*
X156726000Y-161905142D01*
X156726000Y-161548000D01*
X156797428Y-161262285D01*
X156868857Y-161119428D01*
X156940285Y-161048000D01*
X157083142Y-160976571D01*
X159368857Y-162476571D02*
X159368857Y-161476571D01*
X159368857Y-161619428D02*
X159440285Y-161548000D01*
X159583142Y-161476571D01*
X159797428Y-161476571D01*
X159940285Y-161548000D01*
X160011714Y-161690857D01*
X160011714Y-162476571D01*
X160011714Y-161690857D02*
X160083142Y-161548000D01*
X160226000Y-161476571D01*
X160440285Y-161476571D01*
X160583142Y-161548000D01*
X160654571Y-161690857D01*
X160654571Y-162476571D01*
X161368857Y-162476571D02*
X161368857Y-161476571D01*
X161368857Y-161619428D02*
X161440285Y-161548000D01*
X161583142Y-161476571D01*
X161797428Y-161476571D01*
X161940285Y-161548000D01*
X162011714Y-161690857D01*
X162011714Y-162476571D01*
X162011714Y-161690857D02*
X162083142Y-161548000D01*
X162226000Y-161476571D01*
X162440285Y-161476571D01*
X162583142Y-161548000D01*
X162654571Y-161690857D01*
X162654571Y-162476571D01*
M02*
