M48
INCH,TZ
T1C0.0157
T2C0.0300
T3C0.0374
T4C0.0394
T5C0.0409
T6C0.0598
T7C0.0900
%
G90
G05
T1
X56580Y-45760
X58100Y-45760
X58210Y-29050
X58670Y-36350
X59430Y-25690
X59430Y-28160
X66500Y-32200
X66500Y-38200
X66500Y-40200
X67500Y-31200
T2
X61500Y-47800
X61500Y-53800
X62500Y-47800
X62500Y-53800
X63500Y-47800
X63500Y-53800
X64500Y-47800
X64500Y-53800
X65500Y-47800
X65500Y-53800
X66500Y-47800
X66500Y-53800
X67500Y-47800
X67500Y-53800
X68500Y-47800
X68500Y-53800
X58000Y-36700
X58000Y-37700
X58000Y-38700
X58000Y-39700
X58000Y-40700
X68000Y-36700
X68000Y-37700
X68000Y-38700
X68000Y-39700
X68000Y-40700
X68000Y-41700
X68000Y-42700
X68000Y-43700
X68000Y-44700
X68400Y-25700
X68400Y-26700
X68400Y-27700
X68400Y-28700
X68400Y-29700
X68400Y-30700
X68400Y-31700
X68400Y-32700
X68400Y-33700
T3
X54400Y-49800
X55384Y-49800
X56369Y-49800
T4
X53770Y-34720
X53770Y-35720
X53770Y-36720
X53770Y-37720
X53770Y-38720
X53770Y-39720
X57400Y-47000
X58400Y-47000
X59400Y-47000
X53800Y-44300
X53800Y-45300
X53800Y-46300
T5
X55358Y-27218
X55358Y-28218
X55358Y-29218
X55358Y-30218
X55358Y-31218
X55358Y-32218
X55358Y-33218
X55358Y-34218
X55358Y-35218
X55358Y-36218
X55358Y-37218
X55358Y-38218
X55358Y-39218
X55358Y-40218
X55358Y-41218
X55358Y-42218
X55358Y-43218
X55358Y-44218
X55358Y-45218
X65358Y-27218
X65358Y-28218
X65358Y-29218
X65358Y-30218
X65358Y-31218
X65358Y-32218
X65358Y-33218
X65358Y-34218
X65358Y-35218
X65358Y-36218
X65358Y-37218
X65358Y-38218
X65358Y-39218
X65358Y-40218
X65358Y-41218
X65358Y-42218
X65358Y-43218
X65358Y-44218
X65358Y-45218
T6
X54800Y-56300
X56800Y-56300
X58800Y-56300
X66000Y-57000
X68000Y-57000
X61600Y-57000
X63600Y-57000
T7
X56800Y-25700
X56800Y-33700
T0
M30
