G04 #@! TF.GenerationSoftware,KiCad,Pcbnew,5.1.6-c6e7f7d~87~ubuntu20.04.1*
G04 #@! TF.CreationDate,2020-08-06T14:23:34-04:00*
G04 #@! TF.ProjectId,Buoy_WithoutGSM,42756f79-5f57-4697-9468-6f757447534d,Leonardo Ward*
G04 #@! TF.SameCoordinates,Original*
G04 #@! TF.FileFunction,Soldermask,Bot*
G04 #@! TF.FilePolarity,Negative*
%FSLAX46Y46*%
G04 Gerber Fmt 4.6, Leading zero omitted, Abs format (unit mm)*
G04 Created by KiCad (PCBNEW 5.1.6-c6e7f7d~87~ubuntu20.04.1) date 2020-08-06 14:23:34*
%MOMM*%
%LPD*%
G01*
G04 APERTURE LIST*
%ADD10C,3.300000*%
%ADD11C,2.640000*%
%ADD12C,1.624000*%
%ADD13R,1.660000X1.660000*%
%ADD14C,1.660000*%
%ADD15O,1.800000X2.050000*%
%ADD16R,3.100000X3.100000*%
%ADD17C,3.100000*%
%ADD18R,1.800000X1.800000*%
%ADD19O,1.800000X1.800000*%
G04 APERTURE END LIST*
D10*
X173482000Y-58166000D03*
X138430000Y-58166000D03*
X173482000Y-152908000D03*
X138430000Y-152400000D03*
D11*
X144272000Y-65278000D03*
X144272000Y-85598000D03*
D12*
X173736000Y-85598000D03*
X173736000Y-83058000D03*
X173736000Y-80518000D03*
X173736000Y-77978000D03*
X173736000Y-75438000D03*
X173736000Y-72898000D03*
X173736000Y-70358000D03*
X173736000Y-67818000D03*
X173736000Y-65278000D03*
D13*
X140610001Y-69133001D03*
D14*
X140610001Y-71673001D03*
X140610001Y-114853001D03*
X140610001Y-74213001D03*
X140610001Y-76753001D03*
X140610001Y-79293001D03*
X140610001Y-81833001D03*
X140610001Y-84373001D03*
X140610001Y-86913001D03*
X140610001Y-89453001D03*
X140610001Y-91993001D03*
X140610001Y-94533001D03*
X140610001Y-97073001D03*
X140610001Y-99613001D03*
X140610001Y-102153001D03*
X140610001Y-104693001D03*
X140610001Y-107233001D03*
X140610001Y-109773001D03*
X140610001Y-112313001D03*
X166010001Y-69133001D03*
X166010001Y-71673001D03*
X166010001Y-74213001D03*
X166010001Y-76753001D03*
X166010001Y-79293001D03*
X166010001Y-81833001D03*
X166010001Y-84373001D03*
X166010001Y-86913001D03*
X166010001Y-89453001D03*
X166010001Y-91993001D03*
X166010001Y-94533001D03*
X166010001Y-97073001D03*
X166010001Y-99613001D03*
X166010001Y-102153001D03*
X166010001Y-104693001D03*
X166010001Y-107233001D03*
X166010001Y-109773001D03*
X166010001Y-112313001D03*
X166010001Y-114853001D03*
D12*
X172720000Y-93218000D03*
X172720000Y-95758000D03*
X172720000Y-98298000D03*
X172720000Y-100838000D03*
X172720000Y-103378000D03*
X172720000Y-105918000D03*
X172720000Y-108458000D03*
X172720000Y-110998000D03*
X172720000Y-113538000D03*
X147320000Y-103378000D03*
X147320000Y-100838000D03*
X147320000Y-98298000D03*
X147320000Y-95758000D03*
X147320000Y-93218000D03*
G36*
G01*
X137276000Y-127252294D02*
X137276000Y-125731706D01*
G75*
G02*
X137540706Y-125467000I264706J0D01*
G01*
X138811294Y-125467000D01*
G75*
G02*
X139076000Y-125731706I0J-264706D01*
G01*
X139076000Y-127252294D01*
G75*
G02*
X138811294Y-127517000I-264706J0D01*
G01*
X137540706Y-127517000D01*
G75*
G02*
X137276000Y-127252294I0J264706D01*
G01*
G37*
D15*
X140676000Y-126492000D03*
X143176000Y-126492000D03*
D16*
X139192000Y-143002000D03*
D17*
X144272000Y-143002000D03*
X149352000Y-143002000D03*
D16*
X156464000Y-144780000D03*
D17*
X161544000Y-144780000D03*
D12*
X156210000Y-136652000D03*
X158750000Y-136652000D03*
X161290000Y-136652000D03*
X163830000Y-136652000D03*
X166370000Y-136652000D03*
X168910000Y-136652000D03*
X171450000Y-136652000D03*
X173990000Y-136652000D03*
X173990000Y-121412000D03*
X171450000Y-121412000D03*
X168910000Y-121412000D03*
X166370000Y-121412000D03*
X163830000Y-121412000D03*
X161290000Y-121412000D03*
X158750000Y-121412000D03*
X156210000Y-121412000D03*
D16*
X167640000Y-144780000D03*
D17*
X172720000Y-144780000D03*
D18*
X145796000Y-119380000D03*
D19*
X148336000Y-119380000D03*
X150876000Y-119380000D03*
X136652000Y-112522000D03*
X136652000Y-115062000D03*
D18*
X136652000Y-117602000D03*
X136575800Y-88188800D03*
D19*
X136575800Y-90728800D03*
X136575800Y-93268800D03*
X136575800Y-95808800D03*
X136575800Y-98348800D03*
X136575800Y-100888800D03*
M02*
