G04 #@! TF.GenerationSoftware,KiCad,Pcbnew,5.1.6-c6e7f7d~87~ubuntu20.04.1*
G04 #@! TF.CreationDate,2020-08-06T14:23:34-04:00*
G04 #@! TF.ProjectId,Buoy_WithoutGSM,42756f79-5f57-4697-9468-6f757447534d,Leonardo Ward*
G04 #@! TF.SameCoordinates,Original*
G04 #@! TF.FileFunction,Legend,Bot*
G04 #@! TF.FilePolarity,Positive*
%FSLAX46Y46*%
G04 Gerber Fmt 4.6, Leading zero omitted, Abs format (unit mm)*
G04 Created by KiCad (PCBNEW 5.1.6-c6e7f7d~87~ubuntu20.04.1) date 2020-08-06 14:23:34*
%MOMM*%
%LPD*%
G01*
G04 APERTURE LIST*
%ADD10C,0.300000*%
%ADD11C,0.500000*%
%ADD12C,0.120000*%
%ADD13C,0.150000*%
G04 APERTURE END LIST*
D10*
X173302000Y-132250571D02*
X174016285Y-132250571D01*
X174016285Y-130750571D01*
X172802000Y-132107714D02*
X172730571Y-132179142D01*
X172802000Y-132250571D01*
X172873428Y-132179142D01*
X172802000Y-132107714D01*
X172802000Y-132250571D01*
X172230571Y-130750571D02*
X171873428Y-132250571D01*
X171587714Y-131179142D01*
X171302000Y-132250571D01*
X170944857Y-130750571D01*
X170373428Y-132107714D02*
X170302000Y-132179142D01*
X170373428Y-132250571D01*
X170444857Y-132179142D01*
X170373428Y-132107714D01*
X170373428Y-132250571D01*
X163944857Y-131464857D02*
X163444857Y-131464857D01*
X163230571Y-132250571D02*
X163944857Y-132250571D01*
X163944857Y-130750571D01*
X163230571Y-130750571D01*
X162587714Y-132107714D02*
X162516285Y-132179142D01*
X162587714Y-132250571D01*
X162659142Y-132179142D01*
X162587714Y-132107714D01*
X162587714Y-132250571D01*
X161873428Y-132250571D02*
X161873428Y-130750571D01*
X161016285Y-132250571D02*
X161659142Y-131393428D01*
X161016285Y-130750571D02*
X161873428Y-131607714D01*
X160373428Y-132107714D02*
X160302000Y-132179142D01*
X160373428Y-132250571D01*
X160444857Y-132179142D01*
X160373428Y-132107714D01*
X160373428Y-132250571D01*
X153659142Y-130750571D02*
X153373428Y-130750571D01*
X153230571Y-130822000D01*
X153087714Y-130964857D01*
X153016285Y-131250571D01*
X153016285Y-131750571D01*
X153087714Y-132036285D01*
X153230571Y-132179142D01*
X153373428Y-132250571D01*
X153659142Y-132250571D01*
X153802000Y-132179142D01*
X153944857Y-132036285D01*
X154016285Y-131750571D01*
X154016285Y-131250571D01*
X153944857Y-130964857D01*
X153802000Y-130822000D01*
X153659142Y-130750571D01*
X152373428Y-132107714D02*
X152302000Y-132179142D01*
X152373428Y-132250571D01*
X152444857Y-132179142D01*
X152373428Y-132107714D01*
X152373428Y-132250571D01*
X151373428Y-130750571D02*
X151087714Y-130750571D01*
X150944857Y-130822000D01*
X150802000Y-130964857D01*
X150730571Y-131250571D01*
X150730571Y-131750571D01*
X150802000Y-132036285D01*
X150944857Y-132179142D01*
X151087714Y-132250571D01*
X151373428Y-132250571D01*
X151516285Y-132179142D01*
X151659142Y-132036285D01*
X151730571Y-131750571D01*
X151730571Y-131250571D01*
X151659142Y-130964857D01*
X151516285Y-130822000D01*
X151373428Y-130750571D01*
X150087714Y-132107714D02*
X150016285Y-132179142D01*
X150087714Y-132250571D01*
X150159142Y-132179142D01*
X150087714Y-132107714D01*
X150087714Y-132250571D01*
D11*
X176067809Y-128381142D02*
X175401142Y-128381142D01*
X175115428Y-129428761D02*
X176067809Y-129428761D01*
X176067809Y-127428761D01*
X175115428Y-127428761D01*
X173686857Y-127428761D02*
X173686857Y-128857333D01*
X173782095Y-129143047D01*
X173972571Y-129333523D01*
X174258285Y-129428761D01*
X174448761Y-129428761D01*
X172829714Y-128857333D02*
X171877333Y-128857333D01*
X173020190Y-129428761D02*
X172353523Y-127428761D01*
X171686857Y-129428761D01*
X169496380Y-128666857D02*
X167972571Y-128666857D01*
X164829714Y-128381142D02*
X164544000Y-128476380D01*
X164448761Y-128571619D01*
X164353523Y-128762095D01*
X164353523Y-129047809D01*
X164448761Y-129238285D01*
X164544000Y-129333523D01*
X164734476Y-129428761D01*
X165496380Y-129428761D01*
X165496380Y-127428761D01*
X164829714Y-127428761D01*
X164639238Y-127524000D01*
X164544000Y-127619238D01*
X164448761Y-127809714D01*
X164448761Y-128000190D01*
X164544000Y-128190666D01*
X164639238Y-128285904D01*
X164829714Y-128381142D01*
X165496380Y-128381142D01*
X163496380Y-127428761D02*
X163496380Y-129047809D01*
X163401142Y-129238285D01*
X163305904Y-129333523D01*
X163115428Y-129428761D01*
X162734476Y-129428761D01*
X162544000Y-129333523D01*
X162448761Y-129238285D01*
X162353523Y-129047809D01*
X162353523Y-127428761D01*
X161020190Y-127428761D02*
X160639238Y-127428761D01*
X160448761Y-127524000D01*
X160258285Y-127714476D01*
X160163047Y-128095428D01*
X160163047Y-128762095D01*
X160258285Y-129143047D01*
X160448761Y-129333523D01*
X160639238Y-129428761D01*
X161020190Y-129428761D01*
X161210666Y-129333523D01*
X161401142Y-129143047D01*
X161496380Y-128762095D01*
X161496380Y-128095428D01*
X161401142Y-127714476D01*
X161210666Y-127524000D01*
X161020190Y-127428761D01*
X158924952Y-128476380D02*
X158924952Y-129428761D01*
X159591619Y-127428761D02*
X158924952Y-128476380D01*
X158258285Y-127428761D01*
X155401142Y-128381142D02*
X155115428Y-128476380D01*
X155020190Y-128571619D01*
X154924952Y-128762095D01*
X154924952Y-129047809D01*
X155020190Y-129238285D01*
X155115428Y-129333523D01*
X155305904Y-129428761D01*
X156067809Y-129428761D01*
X156067809Y-127428761D01*
X155401142Y-127428761D01*
X155210666Y-127524000D01*
X155115428Y-127619238D01*
X155020190Y-127809714D01*
X155020190Y-128000190D01*
X155115428Y-128190666D01*
X155210666Y-128285904D01*
X155401142Y-128381142D01*
X156067809Y-128381142D01*
X152829714Y-127428761D02*
X152163047Y-129428761D01*
X151496380Y-127428761D01*
X149782095Y-129428761D02*
X150924952Y-129428761D01*
X150353523Y-129428761D02*
X150353523Y-127428761D01*
X150544000Y-127714476D01*
X150734476Y-127904952D01*
X150924952Y-128000190D01*
X148924952Y-129238285D02*
X148829714Y-129333523D01*
X148924952Y-129428761D01*
X149020190Y-129333523D01*
X148924952Y-129238285D01*
X148924952Y-129428761D01*
X147591619Y-127428761D02*
X147401142Y-127428761D01*
X147210666Y-127524000D01*
X147115428Y-127619238D01*
X147020190Y-127809714D01*
X146924952Y-128190666D01*
X146924952Y-128666857D01*
X147020190Y-129047809D01*
X147115428Y-129238285D01*
X147210666Y-129333523D01*
X147401142Y-129428761D01*
X147591619Y-129428761D01*
X147782095Y-129333523D01*
X147877333Y-129238285D01*
X147972571Y-129047809D01*
X148067809Y-128666857D01*
X148067809Y-128190666D01*
X147972571Y-127809714D01*
X147877333Y-127619238D01*
X147782095Y-127524000D01*
X147591619Y-127428761D01*
D10*
X150994857Y-136338571D02*
X150494857Y-137838571D01*
X149994857Y-136338571D01*
X149494857Y-137838571D02*
X149494857Y-136338571D01*
X148780571Y-137838571D02*
X148780571Y-136338571D01*
X147923428Y-137838571D01*
X147923428Y-136338571D01*
X144557714Y-136338571D02*
X145272000Y-136338571D01*
X145343428Y-137052857D01*
X145272000Y-136981428D01*
X145129142Y-136910000D01*
X144772000Y-136910000D01*
X144629142Y-136981428D01*
X144557714Y-137052857D01*
X144486285Y-137195714D01*
X144486285Y-137552857D01*
X144557714Y-137695714D01*
X144629142Y-137767142D01*
X144772000Y-137838571D01*
X145129142Y-137838571D01*
X145272000Y-137767142D01*
X145343428Y-137695714D01*
X144057714Y-136338571D02*
X143557714Y-137838571D01*
X143057714Y-136338571D01*
X140080857Y-136410000D02*
X140223714Y-136338571D01*
X140438000Y-136338571D01*
X140652285Y-136410000D01*
X140795142Y-136552857D01*
X140866571Y-136695714D01*
X140938000Y-136981428D01*
X140938000Y-137195714D01*
X140866571Y-137481428D01*
X140795142Y-137624285D01*
X140652285Y-137767142D01*
X140438000Y-137838571D01*
X140295142Y-137838571D01*
X140080857Y-137767142D01*
X140009428Y-137695714D01*
X140009428Y-137195714D01*
X140295142Y-137195714D01*
X139366571Y-137838571D02*
X139366571Y-136338571D01*
X138509428Y-137838571D01*
X138509428Y-136338571D01*
X137795142Y-137838571D02*
X137795142Y-136338571D01*
X137438000Y-136338571D01*
X137223714Y-136410000D01*
X137080857Y-136552857D01*
X137009428Y-136695714D01*
X136938000Y-136981428D01*
X136938000Y-137195714D01*
X137009428Y-137481428D01*
X137080857Y-137624285D01*
X137223714Y-137767142D01*
X137438000Y-137838571D01*
X137795142Y-137838571D01*
X174041428Y-139338857D02*
X173827142Y-139410285D01*
X173755714Y-139481714D01*
X173684285Y-139624571D01*
X173684285Y-139838857D01*
X173755714Y-139981714D01*
X173827142Y-140053142D01*
X173970000Y-140124571D01*
X174541428Y-140124571D01*
X174541428Y-138624571D01*
X174041428Y-138624571D01*
X173898571Y-138696000D01*
X173827142Y-138767428D01*
X173755714Y-138910285D01*
X173755714Y-139053142D01*
X173827142Y-139196000D01*
X173898571Y-139267428D01*
X174041428Y-139338857D01*
X174541428Y-139338857D01*
X172755714Y-138624571D02*
X172612857Y-138624571D01*
X172470000Y-138696000D01*
X172398571Y-138767428D01*
X172327142Y-138910285D01*
X172255714Y-139196000D01*
X172255714Y-139553142D01*
X172327142Y-139838857D01*
X172398571Y-139981714D01*
X172470000Y-140053142D01*
X172612857Y-140124571D01*
X172755714Y-140124571D01*
X172898571Y-140053142D01*
X172970000Y-139981714D01*
X173041428Y-139838857D01*
X173112857Y-139553142D01*
X173112857Y-139196000D01*
X173041428Y-138910285D01*
X172970000Y-138767428D01*
X172898571Y-138696000D01*
X172755714Y-138624571D01*
X171684285Y-138767428D02*
X171612857Y-138696000D01*
X171470000Y-138624571D01*
X171112857Y-138624571D01*
X170970000Y-138696000D01*
X170898571Y-138767428D01*
X170827142Y-138910285D01*
X170827142Y-139053142D01*
X170898571Y-139267428D01*
X171755714Y-140124571D01*
X170827142Y-140124571D01*
X168961428Y-139338857D02*
X168747142Y-139410285D01*
X168675714Y-139481714D01*
X168604285Y-139624571D01*
X168604285Y-139838857D01*
X168675714Y-139981714D01*
X168747142Y-140053142D01*
X168890000Y-140124571D01*
X169461428Y-140124571D01*
X169461428Y-138624571D01*
X168961428Y-138624571D01*
X168818571Y-138696000D01*
X168747142Y-138767428D01*
X168675714Y-138910285D01*
X168675714Y-139053142D01*
X168747142Y-139196000D01*
X168818571Y-139267428D01*
X168961428Y-139338857D01*
X169461428Y-139338857D01*
X167675714Y-138624571D02*
X167532857Y-138624571D01*
X167390000Y-138696000D01*
X167318571Y-138767428D01*
X167247142Y-138910285D01*
X167175714Y-139196000D01*
X167175714Y-139553142D01*
X167247142Y-139838857D01*
X167318571Y-139981714D01*
X167390000Y-140053142D01*
X167532857Y-140124571D01*
X167675714Y-140124571D01*
X167818571Y-140053142D01*
X167890000Y-139981714D01*
X167961428Y-139838857D01*
X168032857Y-139553142D01*
X168032857Y-139196000D01*
X167961428Y-138910285D01*
X167890000Y-138767428D01*
X167818571Y-138696000D01*
X167675714Y-138624571D01*
X165747142Y-140124571D02*
X166604285Y-140124571D01*
X166175714Y-140124571D02*
X166175714Y-138624571D01*
X166318571Y-138838857D01*
X166461428Y-138981714D01*
X166604285Y-139053142D01*
X163329714Y-139696000D02*
X162615428Y-139696000D01*
X163472571Y-140124571D02*
X162972571Y-138624571D01*
X162472571Y-140124571D01*
X161686857Y-138624571D02*
X161544000Y-138624571D01*
X161401142Y-138696000D01*
X161329714Y-138767428D01*
X161258285Y-138910285D01*
X161186857Y-139196000D01*
X161186857Y-139553142D01*
X161258285Y-139838857D01*
X161329714Y-139981714D01*
X161401142Y-140053142D01*
X161544000Y-140124571D01*
X161686857Y-140124571D01*
X161829714Y-140053142D01*
X161901142Y-139981714D01*
X161972571Y-139838857D01*
X162044000Y-139553142D01*
X162044000Y-139196000D01*
X161972571Y-138910285D01*
X161901142Y-138767428D01*
X161829714Y-138696000D01*
X161686857Y-138624571D01*
X160615428Y-138767428D02*
X160544000Y-138696000D01*
X160401142Y-138624571D01*
X160044000Y-138624571D01*
X159901142Y-138696000D01*
X159829714Y-138767428D01*
X159758285Y-138910285D01*
X159758285Y-139053142D01*
X159829714Y-139267428D01*
X160686857Y-140124571D01*
X159758285Y-140124571D01*
X157995714Y-139696000D02*
X157281428Y-139696000D01*
X158138571Y-140124571D02*
X157638571Y-138624571D01*
X157138571Y-140124571D01*
X156352857Y-138624571D02*
X156210000Y-138624571D01*
X156067142Y-138696000D01*
X155995714Y-138767428D01*
X155924285Y-138910285D01*
X155852857Y-139196000D01*
X155852857Y-139553142D01*
X155924285Y-139838857D01*
X155995714Y-139981714D01*
X156067142Y-140053142D01*
X156210000Y-140124571D01*
X156352857Y-140124571D01*
X156495714Y-140053142D01*
X156567142Y-139981714D01*
X156638571Y-139838857D01*
X156710000Y-139553142D01*
X156710000Y-139196000D01*
X156638571Y-138910285D01*
X156567142Y-138767428D01*
X156495714Y-138696000D01*
X156352857Y-138624571D01*
X154424285Y-140124571D02*
X155281428Y-140124571D01*
X154852857Y-140124571D02*
X154852857Y-138624571D01*
X154995714Y-138838857D01*
X155138571Y-138981714D01*
X155281428Y-139053142D01*
X151372000Y-124900142D02*
X151443428Y-125043000D01*
X151443428Y-125257285D01*
X151372000Y-125471571D01*
X151229142Y-125614428D01*
X151086285Y-125685857D01*
X150800571Y-125757285D01*
X150586285Y-125757285D01*
X150300571Y-125685857D01*
X150157714Y-125614428D01*
X150014857Y-125471571D01*
X149943428Y-125257285D01*
X149943428Y-125114428D01*
X150014857Y-124900142D01*
X150086285Y-124828714D01*
X150586285Y-124828714D01*
X150586285Y-125114428D01*
X149943428Y-124185857D02*
X151443428Y-124185857D01*
X149943428Y-123328714D01*
X151443428Y-123328714D01*
X149943428Y-122614428D02*
X151443428Y-122614428D01*
X151443428Y-122257285D01*
X151372000Y-122043000D01*
X151229142Y-121900142D01*
X151086285Y-121828714D01*
X150800571Y-121757285D01*
X150586285Y-121757285D01*
X150300571Y-121828714D01*
X150157714Y-121900142D01*
X150014857Y-122043000D01*
X149943428Y-122257285D01*
X149943428Y-122614428D01*
X148903428Y-123447571D02*
X148903428Y-124161857D01*
X148189142Y-124233285D01*
X148260571Y-124161857D01*
X148332000Y-124019000D01*
X148332000Y-123661857D01*
X148260571Y-123519000D01*
X148189142Y-123447571D01*
X148046285Y-123376142D01*
X147689142Y-123376142D01*
X147546285Y-123447571D01*
X147474857Y-123519000D01*
X147403428Y-123661857D01*
X147403428Y-124019000D01*
X147474857Y-124161857D01*
X147546285Y-124233285D01*
X148903428Y-122947571D02*
X147403428Y-122447571D01*
X148903428Y-121947571D01*
X144863428Y-126193857D02*
X146363428Y-126193857D01*
X146363428Y-125622428D01*
X146292000Y-125479571D01*
X146220571Y-125408142D01*
X146077714Y-125336714D01*
X145863428Y-125336714D01*
X145720571Y-125408142D01*
X145649142Y-125479571D01*
X145577714Y-125622428D01*
X145577714Y-126193857D01*
X144863428Y-124693857D02*
X146363428Y-124693857D01*
X145292000Y-124193857D01*
X146363428Y-123693857D01*
X144863428Y-123693857D01*
X146363428Y-123122428D02*
X144863428Y-122765285D01*
X145934857Y-122479571D01*
X144863428Y-122193857D01*
X146363428Y-121836714D01*
X159059428Y-71894000D02*
X159202285Y-71822571D01*
X159416571Y-71822571D01*
X159630857Y-71894000D01*
X159773714Y-72036857D01*
X159845142Y-72179714D01*
X159916571Y-72465428D01*
X159916571Y-72679714D01*
X159845142Y-72965428D01*
X159773714Y-73108285D01*
X159630857Y-73251142D01*
X159416571Y-73322571D01*
X159273714Y-73322571D01*
X159059428Y-73251142D01*
X158988000Y-73179714D01*
X158988000Y-72679714D01*
X159273714Y-72679714D01*
X158345142Y-73322571D02*
X158345142Y-71822571D01*
X157773714Y-71822571D01*
X157630857Y-71894000D01*
X157559428Y-71965428D01*
X157488000Y-72108285D01*
X157488000Y-72322571D01*
X157559428Y-72465428D01*
X157630857Y-72536857D01*
X157773714Y-72608285D01*
X158345142Y-72608285D01*
X156916571Y-73251142D02*
X156702285Y-73322571D01*
X156345142Y-73322571D01*
X156202285Y-73251142D01*
X156130857Y-73179714D01*
X156059428Y-73036857D01*
X156059428Y-72894000D01*
X156130857Y-72751142D01*
X156202285Y-72679714D01*
X156345142Y-72608285D01*
X156630857Y-72536857D01*
X156773714Y-72465428D01*
X156845142Y-72394000D01*
X156916571Y-72251142D01*
X156916571Y-72108285D01*
X156845142Y-71965428D01*
X156773714Y-71894000D01*
X156630857Y-71822571D01*
X156273714Y-71822571D01*
X156059428Y-71894000D01*
X161690000Y-108882571D02*
X162404285Y-108882571D01*
X162404285Y-107382571D01*
X160975714Y-108882571D02*
X161118571Y-108811142D01*
X161190000Y-108739714D01*
X161261428Y-108596857D01*
X161261428Y-108168285D01*
X161190000Y-108025428D01*
X161118571Y-107954000D01*
X160975714Y-107882571D01*
X160761428Y-107882571D01*
X160618571Y-107954000D01*
X160547142Y-108025428D01*
X160475714Y-108168285D01*
X160475714Y-108596857D01*
X160547142Y-108739714D01*
X160618571Y-108811142D01*
X160761428Y-108882571D01*
X160975714Y-108882571D01*
X158975714Y-108882571D02*
X159475714Y-108168285D01*
X159832857Y-108882571D02*
X159832857Y-107382571D01*
X159261428Y-107382571D01*
X159118571Y-107454000D01*
X159047142Y-107525428D01*
X158975714Y-107668285D01*
X158975714Y-107882571D01*
X159047142Y-108025428D01*
X159118571Y-108096857D01*
X159261428Y-108168285D01*
X159832857Y-108168285D01*
X157690000Y-108882571D02*
X157690000Y-108096857D01*
X157761428Y-107954000D01*
X157904285Y-107882571D01*
X158190000Y-107882571D01*
X158332857Y-107954000D01*
X157690000Y-108811142D02*
X157832857Y-108882571D01*
X158190000Y-108882571D01*
X158332857Y-108811142D01*
X158404285Y-108668285D01*
X158404285Y-108525428D01*
X158332857Y-108382571D01*
X158190000Y-108311142D01*
X157832857Y-108311142D01*
X157690000Y-108239714D01*
X157332857Y-109025428D02*
X156190000Y-109025428D01*
X154975714Y-108882571D02*
X155475714Y-108168285D01*
X155832857Y-108882571D02*
X155832857Y-107382571D01*
X155261428Y-107382571D01*
X155118571Y-107454000D01*
X155047142Y-107525428D01*
X154975714Y-107668285D01*
X154975714Y-107882571D01*
X155047142Y-108025428D01*
X155118571Y-108096857D01*
X155261428Y-108168285D01*
X155832857Y-108168285D01*
X153832857Y-108096857D02*
X154332857Y-108096857D01*
X154332857Y-108882571D02*
X154332857Y-107382571D01*
X153618571Y-107382571D01*
X153047142Y-108882571D02*
X153047142Y-107382571D01*
X152547142Y-108454000D01*
X152047142Y-107382571D01*
X152047142Y-108882571D01*
X151261428Y-108882571D02*
X150975714Y-108882571D01*
X150832857Y-108811142D01*
X150761428Y-108739714D01*
X150618571Y-108525428D01*
X150547142Y-108239714D01*
X150547142Y-107668285D01*
X150618571Y-107525428D01*
X150690000Y-107454000D01*
X150832857Y-107382571D01*
X151118571Y-107382571D01*
X151261428Y-107454000D01*
X151332857Y-107525428D01*
X151404285Y-107668285D01*
X151404285Y-108025428D01*
X151332857Y-108168285D01*
X151261428Y-108239714D01*
X151118571Y-108311142D01*
X150832857Y-108311142D01*
X150690000Y-108239714D01*
X150618571Y-108168285D01*
X150547142Y-108025428D01*
X149190000Y-107382571D02*
X149904285Y-107382571D01*
X149975714Y-108096857D01*
X149904285Y-108025428D01*
X149761428Y-107954000D01*
X149404285Y-107954000D01*
X149261428Y-108025428D01*
X149190000Y-108096857D01*
X149118571Y-108239714D01*
X149118571Y-108596857D01*
X149190000Y-108739714D01*
X149261428Y-108811142D01*
X149404285Y-108882571D01*
X149761428Y-108882571D01*
X149904285Y-108811142D01*
X149975714Y-108739714D01*
X148618571Y-107382571D02*
X148261428Y-108882571D01*
X147975714Y-107811142D01*
X147690000Y-108882571D01*
X147332857Y-107382571D01*
D12*
X176276000Y-62738000D02*
X141224000Y-62738000D01*
X176276000Y-88138000D02*
X176276000Y-62738000D01*
X141224000Y-88138000D02*
X176276000Y-88138000D01*
X141224000Y-62738000D02*
X141224000Y-88138000D01*
X175260000Y-90678000D02*
X175260000Y-116078000D01*
X175260000Y-116078000D02*
X144780000Y-116078000D01*
X144780000Y-116078000D02*
X144780000Y-90678000D01*
X144780000Y-90678000D02*
X175260000Y-90678000D01*
X136652000Y-139192000D02*
X151892000Y-139192000D01*
X136652000Y-146812000D02*
X151892000Y-146812000D01*
X136652000Y-140462000D02*
X151892000Y-140462000D01*
X151892000Y-139192000D02*
X151892000Y-146812000D01*
X136652000Y-139192000D02*
X136652000Y-146812000D01*
X153924000Y-140970000D02*
X164084000Y-140970000D01*
X153924000Y-148590000D02*
X153924000Y-140970000D01*
X164084000Y-148590000D02*
X153924000Y-148590000D01*
X164084000Y-140970000D02*
X164084000Y-148590000D01*
X164084000Y-142240000D02*
X153924000Y-142240000D01*
X165100000Y-140970000D02*
X175260000Y-140970000D01*
X165100000Y-148590000D02*
X165100000Y-140970000D01*
X175260000Y-148590000D02*
X165100000Y-148590000D01*
X175260000Y-140970000D02*
X175260000Y-148590000D01*
X175260000Y-142240000D02*
X165100000Y-142240000D01*
X144466000Y-118050000D02*
X144466000Y-119380000D01*
X145796000Y-118050000D02*
X144466000Y-118050000D01*
X147066000Y-118050000D02*
X147066000Y-120710000D01*
X147066000Y-120710000D02*
X152206000Y-120710000D01*
X147066000Y-118050000D02*
X152206000Y-118050000D01*
X152206000Y-118050000D02*
X152206000Y-120710000D01*
D13*
X159511904Y-88860380D02*
X159511904Y-89669904D01*
X159464285Y-89765142D01*
X159416666Y-89812761D01*
X159321428Y-89860380D01*
X159130952Y-89860380D01*
X159035714Y-89812761D01*
X158988095Y-89765142D01*
X158940476Y-89669904D01*
X158940476Y-88860380D01*
X157940476Y-89860380D02*
X158511904Y-89860380D01*
X158226190Y-89860380D02*
X158226190Y-88860380D01*
X158321428Y-89003238D01*
X158416666Y-89098476D01*
X158511904Y-89146095D01*
X171876404Y-86050380D02*
X171876404Y-85050380D01*
X171495452Y-85050380D01*
X171400214Y-85098000D01*
X171352595Y-85145619D01*
X171304976Y-85240857D01*
X171304976Y-85383714D01*
X171352595Y-85478952D01*
X171400214Y-85526571D01*
X171495452Y-85574190D01*
X171876404Y-85574190D01*
X170876404Y-86050380D02*
X170876404Y-85050380D01*
X170495452Y-85050380D01*
X170400214Y-85098000D01*
X170352595Y-85145619D01*
X170304976Y-85240857D01*
X170304976Y-85383714D01*
X170352595Y-85478952D01*
X170400214Y-85526571D01*
X170495452Y-85574190D01*
X170876404Y-85574190D01*
X169924023Y-86002761D02*
X169781166Y-86050380D01*
X169543071Y-86050380D01*
X169447833Y-86002761D01*
X169400214Y-85955142D01*
X169352595Y-85859904D01*
X169352595Y-85764666D01*
X169400214Y-85669428D01*
X169447833Y-85621809D01*
X169543071Y-85574190D01*
X169733547Y-85526571D01*
X169828785Y-85478952D01*
X169876404Y-85431333D01*
X169924023Y-85336095D01*
X169924023Y-85240857D01*
X169876404Y-85145619D01*
X169828785Y-85098000D01*
X169733547Y-85050380D01*
X169495452Y-85050380D01*
X169352595Y-85098000D01*
X172019261Y-82510380D02*
X171685928Y-83510380D01*
X171352595Y-82510380D01*
X171019261Y-83510380D02*
X171019261Y-82510380D01*
X170543071Y-83510380D02*
X170543071Y-82510380D01*
X169971642Y-83510380D01*
X169971642Y-82510380D01*
X171352595Y-80018000D02*
X171447833Y-79970380D01*
X171590690Y-79970380D01*
X171733547Y-80018000D01*
X171828785Y-80113238D01*
X171876404Y-80208476D01*
X171924023Y-80398952D01*
X171924023Y-80541809D01*
X171876404Y-80732285D01*
X171828785Y-80827523D01*
X171733547Y-80922761D01*
X171590690Y-80970380D01*
X171495452Y-80970380D01*
X171352595Y-80922761D01*
X171304976Y-80875142D01*
X171304976Y-80541809D01*
X171495452Y-80541809D01*
X170876404Y-80970380D02*
X170876404Y-79970380D01*
X170304976Y-80970380D01*
X170304976Y-79970380D01*
X169828785Y-80970380D02*
X169828785Y-79970380D01*
X169590690Y-79970380D01*
X169447833Y-80018000D01*
X169352595Y-80113238D01*
X169304976Y-80208476D01*
X169257357Y-80398952D01*
X169257357Y-80541809D01*
X169304976Y-80732285D01*
X169352595Y-80827523D01*
X169447833Y-80922761D01*
X169590690Y-80970380D01*
X169828785Y-80970380D01*
X171304976Y-78430380D02*
X171638309Y-77954190D01*
X171876404Y-78430380D02*
X171876404Y-77430380D01*
X171495452Y-77430380D01*
X171400214Y-77478000D01*
X171352595Y-77525619D01*
X171304976Y-77620857D01*
X171304976Y-77763714D01*
X171352595Y-77858952D01*
X171400214Y-77906571D01*
X171495452Y-77954190D01*
X171876404Y-77954190D01*
X170971642Y-77430380D02*
X170304976Y-78430380D01*
X170304976Y-77430380D02*
X170971642Y-78430380D01*
X172019261Y-74890380D02*
X171447833Y-74890380D01*
X171733547Y-75890380D02*
X171733547Y-74890380D01*
X171209738Y-74890380D02*
X170543071Y-75890380D01*
X170543071Y-74890380D02*
X171209738Y-75890380D01*
X171543071Y-72826571D02*
X171876404Y-72826571D01*
X171876404Y-73350380D02*
X171876404Y-72350380D01*
X171400214Y-72350380D01*
X171019261Y-73350380D02*
X171019261Y-72350380D01*
X170638309Y-72350380D02*
X169971642Y-73350380D01*
X169971642Y-72350380D02*
X170638309Y-73350380D01*
X172019261Y-69810380D02*
X171685928Y-70810380D01*
X171352595Y-69810380D01*
X170685928Y-70286571D02*
X170543071Y-70334190D01*
X170495452Y-70381809D01*
X170447833Y-70477047D01*
X170447833Y-70619904D01*
X170495452Y-70715142D01*
X170543071Y-70762761D01*
X170638309Y-70810380D01*
X171019261Y-70810380D01*
X171019261Y-69810380D01*
X170685928Y-69810380D01*
X170590690Y-69858000D01*
X170543071Y-69905619D01*
X170495452Y-70000857D01*
X170495452Y-70096095D01*
X170543071Y-70191333D01*
X170590690Y-70238952D01*
X170685928Y-70286571D01*
X171019261Y-70286571D01*
X170066880Y-70524666D02*
X169590690Y-70524666D01*
X170162119Y-70810380D02*
X169828785Y-69810380D01*
X169495452Y-70810380D01*
X169304976Y-69810380D02*
X168733547Y-69810380D01*
X169019261Y-70810380D02*
X169019261Y-69810380D01*
X171876404Y-67746571D02*
X171543071Y-67746571D01*
X171400214Y-68270380D02*
X171876404Y-68270380D01*
X171876404Y-67270380D01*
X171400214Y-67270380D01*
X170971642Y-68270380D02*
X170971642Y-67270380D01*
X170400214Y-68270380D01*
X170400214Y-67270380D01*
X171971642Y-64730380D02*
X171352595Y-64730380D01*
X171685928Y-65111333D01*
X171543071Y-65111333D01*
X171447833Y-65158952D01*
X171400214Y-65206571D01*
X171352595Y-65301809D01*
X171352595Y-65539904D01*
X171400214Y-65635142D01*
X171447833Y-65682761D01*
X171543071Y-65730380D01*
X171828785Y-65730380D01*
X171924023Y-65682761D01*
X171971642Y-65635142D01*
X170924023Y-65635142D02*
X170876404Y-65682761D01*
X170924023Y-65730380D01*
X170971642Y-65682761D01*
X170924023Y-65635142D01*
X170924023Y-65730380D01*
X170543071Y-64730380D02*
X169924023Y-64730380D01*
X170257357Y-65111333D01*
X170114500Y-65111333D01*
X170019261Y-65158952D01*
X169971642Y-65206571D01*
X169924023Y-65301809D01*
X169924023Y-65539904D01*
X169971642Y-65635142D01*
X170019261Y-65682761D01*
X170114500Y-65730380D01*
X170400214Y-65730380D01*
X170495452Y-65682761D01*
X170543071Y-65635142D01*
X169638309Y-64730380D02*
X169304976Y-65730380D01*
X168971642Y-64730380D01*
X156209904Y-114260380D02*
X156209904Y-115069904D01*
X156162285Y-115165142D01*
X156114666Y-115212761D01*
X156019428Y-115260380D01*
X155828952Y-115260380D01*
X155733714Y-115212761D01*
X155686095Y-115165142D01*
X155638476Y-115069904D01*
X155638476Y-114260380D01*
X155257523Y-114260380D02*
X154638476Y-114260380D01*
X154971809Y-114641333D01*
X154828952Y-114641333D01*
X154733714Y-114688952D01*
X154686095Y-114736571D01*
X154638476Y-114831809D01*
X154638476Y-115069904D01*
X154686095Y-115165142D01*
X154733714Y-115212761D01*
X154828952Y-115260380D01*
X155114666Y-115260380D01*
X155209904Y-115212761D01*
X155257523Y-115165142D01*
X169987261Y-92670380D02*
X169653928Y-93670380D01*
X169320595Y-92670380D01*
X168987261Y-93670380D02*
X168987261Y-92670380D01*
X168511071Y-93670380D02*
X168511071Y-92670380D01*
X167939642Y-93670380D01*
X167939642Y-92670380D01*
X169320595Y-95258000D02*
X169415833Y-95210380D01*
X169558690Y-95210380D01*
X169701547Y-95258000D01*
X169796785Y-95353238D01*
X169844404Y-95448476D01*
X169892023Y-95638952D01*
X169892023Y-95781809D01*
X169844404Y-95972285D01*
X169796785Y-96067523D01*
X169701547Y-96162761D01*
X169558690Y-96210380D01*
X169463452Y-96210380D01*
X169320595Y-96162761D01*
X169272976Y-96115142D01*
X169272976Y-95781809D01*
X169463452Y-95781809D01*
X168844404Y-96210380D02*
X168844404Y-95210380D01*
X168272976Y-96210380D01*
X168272976Y-95210380D01*
X167796785Y-96210380D02*
X167796785Y-95210380D01*
X167558690Y-95210380D01*
X167415833Y-95258000D01*
X167320595Y-95353238D01*
X167272976Y-95448476D01*
X167225357Y-95638952D01*
X167225357Y-95781809D01*
X167272976Y-95972285D01*
X167320595Y-96067523D01*
X167415833Y-96162761D01*
X167558690Y-96210380D01*
X167796785Y-96210380D01*
X169844404Y-98226571D02*
X169511071Y-98226571D01*
X169368214Y-98750380D02*
X169844404Y-98750380D01*
X169844404Y-97750380D01*
X169368214Y-97750380D01*
X168939642Y-98750380D02*
X168939642Y-97750380D01*
X168368214Y-98750380D01*
X168368214Y-97750380D01*
X169320595Y-100338000D02*
X169415833Y-100290380D01*
X169558690Y-100290380D01*
X169701547Y-100338000D01*
X169796785Y-100433238D01*
X169844404Y-100528476D01*
X169892023Y-100718952D01*
X169892023Y-100861809D01*
X169844404Y-101052285D01*
X169796785Y-101147523D01*
X169701547Y-101242761D01*
X169558690Y-101290380D01*
X169463452Y-101290380D01*
X169320595Y-101242761D01*
X169272976Y-101195142D01*
X169272976Y-100861809D01*
X169463452Y-100861809D01*
X168653928Y-100290380D02*
X168558690Y-100290380D01*
X168463452Y-100338000D01*
X168415833Y-100385619D01*
X168368214Y-100480857D01*
X168320595Y-100671333D01*
X168320595Y-100909428D01*
X168368214Y-101099904D01*
X168415833Y-101195142D01*
X168463452Y-101242761D01*
X168558690Y-101290380D01*
X168653928Y-101290380D01*
X168749166Y-101242761D01*
X168796785Y-101195142D01*
X168844404Y-101099904D01*
X168892023Y-100909428D01*
X168892023Y-100671333D01*
X168844404Y-100480857D01*
X168796785Y-100385619D01*
X168749166Y-100338000D01*
X168653928Y-100290380D01*
X169892023Y-103782761D02*
X169749166Y-103830380D01*
X169511071Y-103830380D01*
X169415833Y-103782761D01*
X169368214Y-103735142D01*
X169320595Y-103639904D01*
X169320595Y-103544666D01*
X169368214Y-103449428D01*
X169415833Y-103401809D01*
X169511071Y-103354190D01*
X169701547Y-103306571D01*
X169796785Y-103258952D01*
X169844404Y-103211333D01*
X169892023Y-103116095D01*
X169892023Y-103020857D01*
X169844404Y-102925619D01*
X169796785Y-102878000D01*
X169701547Y-102830380D01*
X169463452Y-102830380D01*
X169320595Y-102878000D01*
X168320595Y-103735142D02*
X168368214Y-103782761D01*
X168511071Y-103830380D01*
X168606309Y-103830380D01*
X168749166Y-103782761D01*
X168844404Y-103687523D01*
X168892023Y-103592285D01*
X168939642Y-103401809D01*
X168939642Y-103258952D01*
X168892023Y-103068476D01*
X168844404Y-102973238D01*
X168749166Y-102878000D01*
X168606309Y-102830380D01*
X168511071Y-102830380D01*
X168368214Y-102878000D01*
X168320595Y-102925619D01*
X167892023Y-103830380D02*
X167892023Y-102830380D01*
X167320595Y-103830380D02*
X167749166Y-103258952D01*
X167320595Y-102830380D02*
X167892023Y-103401809D01*
X169844404Y-106370380D02*
X169844404Y-105370380D01*
X169511071Y-106084666D01*
X169177738Y-105370380D01*
X169177738Y-106370380D01*
X168701547Y-106370380D02*
X168701547Y-105370380D01*
X168272976Y-106322761D02*
X168130119Y-106370380D01*
X167892023Y-106370380D01*
X167796785Y-106322761D01*
X167749166Y-106275142D01*
X167701547Y-106179904D01*
X167701547Y-106084666D01*
X167749166Y-105989428D01*
X167796785Y-105941809D01*
X167892023Y-105894190D01*
X168082500Y-105846571D01*
X168177738Y-105798952D01*
X168225357Y-105751333D01*
X168272976Y-105656095D01*
X168272976Y-105560857D01*
X168225357Y-105465619D01*
X168177738Y-105418000D01*
X168082500Y-105370380D01*
X167844404Y-105370380D01*
X167701547Y-105418000D01*
X167082500Y-105370380D02*
X166892023Y-105370380D01*
X166796785Y-105418000D01*
X166701547Y-105513238D01*
X166653928Y-105703714D01*
X166653928Y-106037047D01*
X166701547Y-106227523D01*
X166796785Y-106322761D01*
X166892023Y-106370380D01*
X167082500Y-106370380D01*
X167177738Y-106322761D01*
X167272976Y-106227523D01*
X167320595Y-106037047D01*
X167320595Y-105703714D01*
X167272976Y-105513238D01*
X167177738Y-105418000D01*
X167082500Y-105370380D01*
X169844404Y-108910380D02*
X169844404Y-107910380D01*
X169511071Y-108624666D01*
X169177738Y-107910380D01*
X169177738Y-108910380D01*
X168511071Y-107910380D02*
X168320595Y-107910380D01*
X168225357Y-107958000D01*
X168130119Y-108053238D01*
X168082500Y-108243714D01*
X168082500Y-108577047D01*
X168130119Y-108767523D01*
X168225357Y-108862761D01*
X168320595Y-108910380D01*
X168511071Y-108910380D01*
X168606309Y-108862761D01*
X168701547Y-108767523D01*
X168749166Y-108577047D01*
X168749166Y-108243714D01*
X168701547Y-108053238D01*
X168606309Y-107958000D01*
X168511071Y-107910380D01*
X167701547Y-108862761D02*
X167558690Y-108910380D01*
X167320595Y-108910380D01*
X167225357Y-108862761D01*
X167177738Y-108815142D01*
X167130119Y-108719904D01*
X167130119Y-108624666D01*
X167177738Y-108529428D01*
X167225357Y-108481809D01*
X167320595Y-108434190D01*
X167511071Y-108386571D01*
X167606309Y-108338952D01*
X167653928Y-108291333D01*
X167701547Y-108196095D01*
X167701547Y-108100857D01*
X167653928Y-108005619D01*
X167606309Y-107958000D01*
X167511071Y-107910380D01*
X167272976Y-107910380D01*
X167130119Y-107958000D01*
X166701547Y-108910380D02*
X166701547Y-107910380D01*
X169272976Y-111355142D02*
X169320595Y-111402761D01*
X169463452Y-111450380D01*
X169558690Y-111450380D01*
X169701547Y-111402761D01*
X169796785Y-111307523D01*
X169844404Y-111212285D01*
X169892023Y-111021809D01*
X169892023Y-110878952D01*
X169844404Y-110688476D01*
X169796785Y-110593238D01*
X169701547Y-110498000D01*
X169558690Y-110450380D01*
X169463452Y-110450380D01*
X169320595Y-110498000D01*
X169272976Y-110545619D01*
X168892023Y-111402761D02*
X168749166Y-111450380D01*
X168511071Y-111450380D01*
X168415833Y-111402761D01*
X168368214Y-111355142D01*
X168320595Y-111259904D01*
X168320595Y-111164666D01*
X168368214Y-111069428D01*
X168415833Y-111021809D01*
X168511071Y-110974190D01*
X168701547Y-110926571D01*
X168796785Y-110878952D01*
X168844404Y-110831333D01*
X168892023Y-110736095D01*
X168892023Y-110640857D01*
X168844404Y-110545619D01*
X168796785Y-110498000D01*
X168701547Y-110450380D01*
X168463452Y-110450380D01*
X168320595Y-110498000D01*
X169272976Y-113990380D02*
X169606309Y-113514190D01*
X169844404Y-113990380D02*
X169844404Y-112990380D01*
X169463452Y-112990380D01*
X169368214Y-113038000D01*
X169320595Y-113085619D01*
X169272976Y-113180857D01*
X169272976Y-113323714D01*
X169320595Y-113418952D01*
X169368214Y-113466571D01*
X169463452Y-113514190D01*
X169844404Y-113514190D01*
X168892023Y-113942761D02*
X168749166Y-113990380D01*
X168511071Y-113990380D01*
X168415833Y-113942761D01*
X168368214Y-113895142D01*
X168320595Y-113799904D01*
X168320595Y-113704666D01*
X168368214Y-113609428D01*
X168415833Y-113561809D01*
X168511071Y-113514190D01*
X168701547Y-113466571D01*
X168796785Y-113418952D01*
X168844404Y-113371333D01*
X168892023Y-113276095D01*
X168892023Y-113180857D01*
X168844404Y-113085619D01*
X168796785Y-113038000D01*
X168701547Y-112990380D01*
X168463452Y-112990380D01*
X168320595Y-113038000D01*
X168034880Y-112990380D02*
X167463452Y-112990380D01*
X167749166Y-113990380D02*
X167749166Y-112990380D01*
X151147976Y-92718000D02*
X151243214Y-92670380D01*
X151386071Y-92670380D01*
X151528928Y-92718000D01*
X151624166Y-92813238D01*
X151671785Y-92908476D01*
X151719404Y-93098952D01*
X151719404Y-93241809D01*
X151671785Y-93432285D01*
X151624166Y-93527523D01*
X151528928Y-93622761D01*
X151386071Y-93670380D01*
X151290833Y-93670380D01*
X151147976Y-93622761D01*
X151100357Y-93575142D01*
X151100357Y-93241809D01*
X151290833Y-93241809D01*
X150147976Y-93670380D02*
X150719404Y-93670380D01*
X150433690Y-93670380D02*
X150433690Y-92670380D01*
X150528928Y-92813238D01*
X150624166Y-92908476D01*
X150719404Y-92956095D01*
X151147976Y-95258000D02*
X151243214Y-95210380D01*
X151386071Y-95210380D01*
X151528928Y-95258000D01*
X151624166Y-95353238D01*
X151671785Y-95448476D01*
X151719404Y-95638952D01*
X151719404Y-95781809D01*
X151671785Y-95972285D01*
X151624166Y-96067523D01*
X151528928Y-96162761D01*
X151386071Y-96210380D01*
X151290833Y-96210380D01*
X151147976Y-96162761D01*
X151100357Y-96115142D01*
X151100357Y-95781809D01*
X151290833Y-95781809D01*
X150719404Y-95305619D02*
X150671785Y-95258000D01*
X150576547Y-95210380D01*
X150338452Y-95210380D01*
X150243214Y-95258000D01*
X150195595Y-95305619D01*
X150147976Y-95400857D01*
X150147976Y-95496095D01*
X150195595Y-95638952D01*
X150767023Y-96210380D01*
X150147976Y-96210380D01*
X151147976Y-97798000D02*
X151243214Y-97750380D01*
X151386071Y-97750380D01*
X151528928Y-97798000D01*
X151624166Y-97893238D01*
X151671785Y-97988476D01*
X151719404Y-98178952D01*
X151719404Y-98321809D01*
X151671785Y-98512285D01*
X151624166Y-98607523D01*
X151528928Y-98702761D01*
X151386071Y-98750380D01*
X151290833Y-98750380D01*
X151147976Y-98702761D01*
X151100357Y-98655142D01*
X151100357Y-98321809D01*
X151290833Y-98321809D01*
X150767023Y-97750380D02*
X150147976Y-97750380D01*
X150481309Y-98131333D01*
X150338452Y-98131333D01*
X150243214Y-98178952D01*
X150195595Y-98226571D01*
X150147976Y-98321809D01*
X150147976Y-98559904D01*
X150195595Y-98655142D01*
X150243214Y-98702761D01*
X150338452Y-98750380D01*
X150624166Y-98750380D01*
X150719404Y-98702761D01*
X150767023Y-98655142D01*
X151147976Y-100338000D02*
X151243214Y-100290380D01*
X151386071Y-100290380D01*
X151528928Y-100338000D01*
X151624166Y-100433238D01*
X151671785Y-100528476D01*
X151719404Y-100718952D01*
X151719404Y-100861809D01*
X151671785Y-101052285D01*
X151624166Y-101147523D01*
X151528928Y-101242761D01*
X151386071Y-101290380D01*
X151290833Y-101290380D01*
X151147976Y-101242761D01*
X151100357Y-101195142D01*
X151100357Y-100861809D01*
X151290833Y-100861809D01*
X150243214Y-100623714D02*
X150243214Y-101290380D01*
X150481309Y-100242761D02*
X150719404Y-100957047D01*
X150100357Y-100957047D01*
X151147976Y-102878000D02*
X151243214Y-102830380D01*
X151386071Y-102830380D01*
X151528928Y-102878000D01*
X151624166Y-102973238D01*
X151671785Y-103068476D01*
X151719404Y-103258952D01*
X151719404Y-103401809D01*
X151671785Y-103592285D01*
X151624166Y-103687523D01*
X151528928Y-103782761D01*
X151386071Y-103830380D01*
X151290833Y-103830380D01*
X151147976Y-103782761D01*
X151100357Y-103735142D01*
X151100357Y-103401809D01*
X151290833Y-103401809D01*
X150195595Y-102830380D02*
X150671785Y-102830380D01*
X150719404Y-103306571D01*
X150671785Y-103258952D01*
X150576547Y-103211333D01*
X150338452Y-103211333D01*
X150243214Y-103258952D01*
X150195595Y-103306571D01*
X150147976Y-103401809D01*
X150147976Y-103639904D01*
X150195595Y-103735142D01*
X150243214Y-103782761D01*
X150338452Y-103830380D01*
X150576547Y-103830380D01*
X150671785Y-103782761D01*
X150719404Y-103735142D01*
X144575333Y-147104380D02*
X144575333Y-147818666D01*
X144622952Y-147961523D01*
X144718190Y-148056761D01*
X144861047Y-148104380D01*
X144956285Y-148104380D01*
X144146761Y-147199619D02*
X144099142Y-147152000D01*
X144003904Y-147104380D01*
X143765809Y-147104380D01*
X143670571Y-147152000D01*
X143622952Y-147199619D01*
X143575333Y-147294857D01*
X143575333Y-147390095D01*
X143622952Y-147532952D01*
X144194380Y-148104380D01*
X143575333Y-148104380D01*
X159337333Y-149312380D02*
X159337333Y-150026666D01*
X159384952Y-150169523D01*
X159480190Y-150264761D01*
X159623047Y-150312380D01*
X159718285Y-150312380D01*
X158956380Y-149312380D02*
X158337333Y-149312380D01*
X158670666Y-149693333D01*
X158527809Y-149693333D01*
X158432571Y-149740952D01*
X158384952Y-149788571D01*
X158337333Y-149883809D01*
X158337333Y-150121904D01*
X158384952Y-150217142D01*
X158432571Y-150264761D01*
X158527809Y-150312380D01*
X158813523Y-150312380D01*
X158908761Y-150264761D01*
X158956380Y-150217142D01*
X170513333Y-149312380D02*
X170513333Y-150026666D01*
X170560952Y-150169523D01*
X170656190Y-150264761D01*
X170799047Y-150312380D01*
X170894285Y-150312380D01*
X169608571Y-149645714D02*
X169608571Y-150312380D01*
X169846666Y-149264761D02*
X170084761Y-149979047D01*
X169465714Y-149979047D01*
X142918380Y-119046666D02*
X143632666Y-119046666D01*
X143775523Y-118999047D01*
X143870761Y-118903809D01*
X143918380Y-118760952D01*
X143918380Y-118665714D01*
X142918380Y-119999047D02*
X142918380Y-119522857D01*
X143394571Y-119475238D01*
X143346952Y-119522857D01*
X143299333Y-119618095D01*
X143299333Y-119856190D01*
X143346952Y-119951428D01*
X143394571Y-119999047D01*
X143489809Y-120046666D01*
X143727904Y-120046666D01*
X143823142Y-119999047D01*
X143870761Y-119951428D01*
X143918380Y-119856190D01*
X143918380Y-119618095D01*
X143870761Y-119522857D01*
X143823142Y-119475238D01*
M02*
